<svg width="462" height="60" viewBox="0 0 462 60" fill="none" xmlns="http://www.w3.org/2000/svg">
<path d="M97.364 30.16C97.364 28.2533 97.7013 26.3907 98.376 24.572C99.08 22.724 100.092 21.052 101.412 19.556C102.732 18.0307 104.345 16.828 106.252 15.948C108.159 15.0387 110.329 14.584 112.764 14.584C115.639 14.584 118.117 15.2147 120.2 16.476C122.312 17.7373 123.881 19.38 124.908 21.404L120.244 24.616C119.716 23.4427 119.027 22.5187 118.176 21.844C117.325 21.14 116.416 20.656 115.448 20.392C114.48 20.0987 113.527 19.952 112.588 19.952C111.063 19.952 109.728 20.26 108.584 20.876C107.469 21.492 106.531 22.2987 105.768 23.296C105.005 24.2933 104.433 25.408 104.052 26.64C103.7 27.872 103.524 29.104 103.524 30.336C103.524 31.7147 103.744 33.0493 104.184 34.34C104.624 35.6013 105.24 36.7307 106.032 37.728C106.853 38.696 107.821 39.4733 108.936 40.06C110.08 40.6173 111.327 40.896 112.676 40.896C113.644 40.896 114.627 40.7347 115.624 40.412C116.621 40.0893 117.545 39.576 118.396 38.872C119.247 38.168 119.907 37.2587 120.376 36.144L125.348 39.004C124.732 40.5587 123.72 41.8787 122.312 42.964C120.933 44.0493 119.379 44.8707 117.648 45.428C115.917 45.9853 114.201 46.264 112.5 46.264C110.271 46.264 108.232 45.8093 106.384 44.9C104.536 43.9613 102.937 42.7293 101.588 41.204C100.268 39.6493 99.2267 37.9187 98.464 36.012C97.7307 34.076 97.364 32.1253 97.364 30.16Z" fill="#27292C"/>
<path d="M139.41 46.44C137.533 46.44 135.846 46.132 134.35 45.516C132.854 44.8707 131.578 43.9907 130.522 42.876C129.495 41.7613 128.703 40.4853 128.146 39.048C127.589 37.6107 127.31 36.1 127.31 34.516C127.31 32.9027 127.589 31.3773 128.146 29.94C128.703 28.5027 129.495 27.2267 130.522 26.112C131.578 24.9973 132.854 24.132 134.35 23.516C135.846 22.8707 137.533 22.548 139.41 22.548C141.287 22.548 142.959 22.8707 144.426 23.516C145.922 24.132 147.198 24.9973 148.254 26.112C149.31 27.2267 150.102 28.5027 150.63 29.94C151.187 31.3773 151.466 32.9027 151.466 34.516C151.466 36.1 151.187 37.6107 150.63 39.048C150.102 40.4853 149.31 41.7613 148.254 42.876C147.227 43.9907 145.966 44.8707 144.47 45.516C142.974 46.132 141.287 46.44 139.41 46.44ZM133.382 34.516C133.382 35.8653 133.646 37.068 134.174 38.124C134.702 39.1507 135.421 39.9573 136.33 40.544C137.239 41.1307 138.266 41.424 139.41 41.424C140.525 41.424 141.537 41.1307 142.446 40.544C143.355 39.928 144.074 39.1067 144.602 38.08C145.159 37.024 145.438 35.8213 145.438 34.472C145.438 33.152 145.159 31.964 144.602 30.908C144.074 29.852 143.355 29.0307 142.446 28.444C141.537 27.8573 140.525 27.564 139.41 27.564C138.266 27.564 137.239 27.872 136.33 28.488C135.421 29.0747 134.702 29.896 134.174 30.952C133.646 31.9787 133.382 33.1667 133.382 34.516Z" fill="#27292C"/>
<path d="M153.862 39.18C153.862 37.684 154.272 36.3787 155.094 35.264C155.944 34.12 157.118 33.24 158.614 32.624C160.11 32.008 161.826 31.7 163.762 31.7C164.73 31.7 165.712 31.7733 166.71 31.92C167.707 32.0667 168.572 32.3013 169.306 32.624V31.392C169.306 29.9253 168.866 28.796 167.986 28.004C167.135 27.212 165.859 26.816 164.158 26.816C162.896 26.816 161.694 27.036 160.55 27.476C159.406 27.916 158.203 28.5613 156.942 29.412L155.05 25.54C156.575 24.5427 158.13 23.7947 159.714 23.296C161.327 22.7973 163.014 22.548 164.774 22.548C168.059 22.548 170.611 23.3693 172.43 25.012C174.278 26.6547 175.202 29.0013 175.202 32.052V39.4C175.202 40.016 175.304 40.456 175.51 40.72C175.744 40.984 176.111 41.1453 176.61 41.204V46C176.082 46.088 175.598 46.1613 175.158 46.22C174.747 46.2787 174.395 46.308 174.102 46.308C172.928 46.308 172.034 46.044 171.418 45.516C170.831 44.988 170.464 44.3427 170.318 43.58L170.186 42.392C169.188 43.6827 167.942 44.68 166.446 45.384C164.95 46.088 163.424 46.44 161.87 46.44C160.344 46.44 158.966 46.132 157.734 45.516C156.531 44.8707 155.578 44.0053 154.874 42.92C154.199 41.8053 153.862 40.5587 153.862 39.18ZM168.206 40.368C168.528 40.016 168.792 39.664 168.998 39.312C169.203 38.96 169.306 38.6373 169.306 38.344V36.012C168.602 35.7187 167.839 35.4987 167.018 35.352C166.196 35.176 165.419 35.088 164.686 35.088C163.16 35.088 161.899 35.4253 160.902 36.1C159.934 36.7453 159.45 37.6107 159.45 38.696C159.45 39.2827 159.611 39.84 159.934 40.368C160.256 40.896 160.726 41.3213 161.342 41.644C161.958 41.9667 162.691 42.128 163.542 42.128C164.422 42.128 165.287 41.9667 166.138 41.644C166.988 41.292 167.678 40.8667 168.206 40.368Z" fill="#27292C"/>
<path d="M189.203 46.44C187.238 46.44 185.361 46.1173 183.571 45.472C181.782 44.8267 180.242 43.8733 178.951 42.612L181.063 38.784C182.442 39.8987 183.791 40.72 185.111 41.248C186.461 41.776 187.751 42.04 188.983 42.04C190.127 42.04 191.037 41.8347 191.711 41.424C192.415 41.0133 192.767 40.3973 192.767 39.576C192.767 39.0187 192.577 38.5933 192.195 38.3C191.814 37.9773 191.257 37.6987 190.523 37.464C189.819 37.2293 188.954 36.9653 187.927 36.672C186.226 36.1147 184.803 35.572 183.659 35.044C182.515 34.516 181.65 33.856 181.063 33.064C180.506 32.2427 180.227 31.2013 180.227 29.94C180.227 28.4147 180.609 27.1093 181.371 26.024C182.163 24.9093 183.249 24.044 184.627 23.428C186.035 22.812 187.678 22.504 189.555 22.504C191.198 22.504 192.753 22.768 194.219 23.296C195.686 23.7947 197.021 24.616 198.223 25.76L195.847 29.5C194.674 28.5907 193.559 27.9307 192.503 27.52C191.447 27.08 190.377 26.86 189.291 26.86C188.675 26.86 188.089 26.9333 187.531 27.08C187.003 27.2267 186.563 27.476 186.211 27.828C185.889 28.1507 185.727 28.62 185.727 29.236C185.727 29.7933 185.874 30.2333 186.167 30.556C186.49 30.8493 186.959 31.1133 187.575 31.348C188.221 31.5827 188.998 31.8467 189.907 32.14C191.755 32.668 193.31 33.2107 194.571 33.768C195.862 34.3253 196.83 35.0147 197.475 35.836C198.121 36.628 198.443 37.728 198.443 39.136C198.443 41.424 197.607 43.2133 195.935 44.504C194.263 45.7947 192.019 46.44 189.203 46.44Z" fill="#27292C"/>
<path d="M216.141 44.812C215.642 45.0173 215.041 45.252 214.337 45.516C213.633 45.78 212.87 45.9853 212.049 46.132C211.257 46.308 210.45 46.396 209.629 46.396C208.543 46.396 207.546 46.2053 206.637 45.824C205.727 45.4427 204.994 44.8413 204.437 44.02C203.909 43.1693 203.645 42.0693 203.645 40.72V27.476H200.609V22.944H203.645V15.464H209.541V22.944H214.381V27.476H209.541V38.74C209.57 39.532 209.79 40.104 210.201 40.456C210.611 40.808 211.125 40.984 211.741 40.984C212.357 40.984 212.958 40.8813 213.545 40.676C214.131 40.4707 214.601 40.2947 214.953 40.148L216.141 44.812Z" fill="#27292C"/>
<path d="M219.167 13.88H225.063V38.608C225.063 39.664 225.239 40.3827 225.591 40.764C225.943 41.116 226.427 41.292 227.043 41.292C227.513 41.292 227.997 41.2333 228.495 41.116C228.994 40.9987 229.434 40.852 229.815 40.676L230.607 45.164C229.815 45.5453 228.891 45.8387 227.835 46.044C226.779 46.2493 225.826 46.352 224.975 46.352C223.127 46.352 221.69 45.868 220.663 44.9C219.666 43.9027 219.167 42.4947 219.167 40.676V13.88Z" fill="#27292C"/>
<path d="M233.176 46V22.944H239.072V46H233.176ZM233.176 19.732V13.88H239.072V19.732H233.176Z" fill="#27292C"/>
<path d="M253.411 46.132C251.886 46.132 250.478 45.8387 249.187 45.252C247.926 44.636 246.826 43.7853 245.887 42.7C244.978 41.6147 244.274 40.368 243.775 38.96C243.276 37.552 243.027 36.056 243.027 34.472C243.027 32.8 243.291 31.2453 243.819 29.808C244.347 28.3707 245.08 27.1093 246.019 26.024C246.987 24.9093 248.116 24.0587 249.407 23.472C250.727 22.856 252.179 22.548 253.763 22.548C255.552 22.548 257.122 22.9587 258.471 23.78C259.82 24.572 260.935 25.6427 261.815 26.992V22.944H266.963V44.9C266.963 47.188 266.406 49.1387 265.291 50.752C264.206 52.3947 262.695 53.6413 260.759 54.492C258.823 55.372 256.623 55.812 254.159 55.812C251.666 55.812 249.554 55.3867 247.823 54.536C246.092 53.7147 244.611 52.5413 243.379 51.016L246.591 47.892C247.471 48.9773 248.571 49.828 249.891 50.444C251.24 51.06 252.663 51.368 254.159 51.368C255.42 51.368 256.564 51.1333 257.591 50.664C258.647 50.224 259.483 49.52 260.099 48.552C260.744 47.6133 261.067 46.396 261.067 44.9V41.996C260.304 43.316 259.219 44.3427 257.811 45.076C256.432 45.78 254.966 46.132 253.411 46.132ZM255.391 41.424C256.036 41.424 256.652 41.3213 257.239 41.116C257.826 40.9107 258.368 40.632 258.867 40.28C259.366 39.928 259.806 39.5173 260.187 39.048C260.568 38.5493 260.862 38.0507 261.067 37.552V32.052C260.715 31.1427 260.216 30.3507 259.571 29.676C258.955 29.0013 258.251 28.488 257.459 28.136C256.696 27.7547 255.89 27.564 255.039 27.564C254.13 27.564 253.308 27.7547 252.575 28.136C251.842 28.5173 251.211 29.06 250.683 29.764C250.155 30.4387 249.744 31.2013 249.451 32.052C249.187 32.8733 249.055 33.7387 249.055 34.648C249.055 35.5867 249.216 36.4667 249.539 37.288C249.862 38.1093 250.302 38.828 250.859 39.444C251.446 40.06 252.12 40.544 252.883 40.896C253.675 41.248 254.511 41.424 255.391 41.424Z" fill="#27292C"/>
<path d="M293.706 46H287.81V33.064C287.81 31.2747 287.458 29.94 286.754 29.06C286.079 28.18 285.14 27.74 283.938 27.74C283.234 27.74 282.486 27.9453 281.694 28.356C280.902 28.7667 280.183 29.3387 279.538 30.072C278.922 30.776 278.467 31.5973 278.174 32.536V46H272.278V13.88H278.174V27.212C279.024 25.7453 280.183 24.6013 281.65 23.78C283.116 22.9587 284.715 22.548 286.446 22.548C287.942 22.548 289.159 22.812 290.098 23.34C291.036 23.8387 291.77 24.528 292.298 25.408C292.826 26.2587 293.192 27.2267 293.398 28.312C293.603 29.368 293.706 30.468 293.706 31.612V46Z" fill="#27292C"/>
<path d="M312.52 44.812C312.021 45.0173 311.42 45.252 310.716 45.516C310.012 45.78 309.249 45.9853 308.428 46.132C307.636 46.308 306.829 46.396 306.008 46.396C304.922 46.396 303.925 46.2053 303.016 45.824C302.106 45.4427 301.373 44.8413 300.816 44.02C300.288 43.1693 300.024 42.0693 300.024 40.72V27.476H296.988V22.944H300.024V15.464H305.92V22.944H310.76V27.476H305.92V38.74C305.949 39.532 306.169 40.104 306.58 40.456C306.99 40.808 307.504 40.984 308.12 40.984C308.736 40.984 309.337 40.8813 309.924 40.676C310.51 40.4707 310.98 40.2947 311.332 40.148L312.52 44.812Z" fill="#27292C"/>
<path d="M326.733 46V14.76H338.085C341.487 14.76 344.333 15.464 346.621 16.872C348.909 18.2507 350.625 20.128 351.769 22.504C352.913 24.8507 353.485 27.4613 353.485 30.336C353.485 33.504 352.854 36.2613 351.593 38.608C350.331 40.9547 348.542 42.7733 346.225 44.064C343.937 45.3547 341.223 46 338.085 46H326.733ZM347.369 30.336C347.369 28.312 347.002 26.5373 346.269 25.012C345.535 23.4573 344.479 22.2547 343.101 21.404C341.722 20.524 340.05 20.084 338.085 20.084H332.805V40.676H338.085C340.079 40.676 341.766 40.236 343.145 39.356C344.523 38.4467 345.565 37.2147 346.269 35.66C347.002 34.076 347.369 32.3013 347.369 30.336Z" fill="#27292C"/>
<path d="M357.571 46V22.944H363.467V46H357.571ZM357.571 19.732V13.88H363.467V19.732H357.571Z" fill="#27292C"/>
<path d="M377.806 46.132C376.28 46.132 374.872 45.8387 373.582 45.252C372.32 44.636 371.22 43.7853 370.282 42.7C369.372 41.6147 368.668 40.368 368.17 38.96C367.671 37.552 367.422 36.056 367.422 34.472C367.422 32.8 367.686 31.2453 368.214 29.808C368.742 28.3707 369.475 27.1093 370.414 26.024C371.382 24.9093 372.511 24.0587 373.802 23.472C375.122 22.856 376.574 22.548 378.158 22.548C379.947 22.548 381.516 22.9587 382.866 23.78C384.215 24.572 385.33 25.6427 386.21 26.992V22.944H391.358V44.9C391.358 47.188 390.8 49.1387 389.686 50.752C388.6 52.3947 387.09 53.6413 385.154 54.492C383.218 55.372 381.018 55.812 378.554 55.812C376.06 55.812 373.948 55.3867 372.218 54.536C370.487 53.7147 369.006 52.5413 367.774 51.016L370.986 47.892C371.866 48.9773 372.966 49.828 374.286 50.444C375.635 51.06 377.058 51.368 378.554 51.368C379.815 51.368 380.959 51.1333 381.986 50.664C383.042 50.224 383.878 49.52 384.494 48.552C385.139 47.6133 385.462 46.396 385.462 44.9V41.996C384.699 43.316 383.614 44.3427 382.206 45.076C380.827 45.78 379.36 46.132 377.806 46.132ZM379.786 41.424C380.431 41.424 381.047 41.3213 381.634 41.116C382.22 40.9107 382.763 40.632 383.262 40.28C383.76 39.928 384.2 39.5173 384.582 39.048C384.963 38.5493 385.256 38.0507 385.462 37.552V32.052C385.11 31.1427 384.611 30.3507 383.966 29.676C383.35 29.0013 382.646 28.488 381.854 28.136C381.091 27.7547 380.284 27.564 379.434 27.564C378.524 27.564 377.703 27.7547 376.97 28.136C376.236 28.5173 375.606 29.06 375.078 29.764C374.55 30.4387 374.139 31.2013 373.846 32.052C373.582 32.8733 373.45 33.7387 373.45 34.648C373.45 35.5867 373.611 36.4667 373.934 37.288C374.256 38.1093 374.696 38.828 375.254 39.444C375.84 40.06 376.515 40.544 377.278 40.896C378.07 41.248 378.906 41.424 379.786 41.424Z" fill="#27292C"/>
<path d="M396.672 46V22.944H402.568V46H396.672ZM396.672 19.732V13.88H402.568V19.732H396.672Z" fill="#27292C"/>
<path d="M421.703 44.812C421.204 45.0173 420.603 45.252 419.899 45.516C419.195 45.78 418.432 45.9853 417.611 46.132C416.819 46.308 416.012 46.396 415.191 46.396C414.106 46.396 413.108 46.2053 412.199 45.824C411.29 45.4427 410.556 44.8413 409.999 44.02C409.471 43.1693 409.207 42.0693 409.207 40.72V27.476H406.171V22.944H409.207V15.464H415.103V22.944H419.943V27.476H415.103V38.74C415.132 39.532 415.352 40.104 415.763 40.456C416.174 40.808 416.687 40.984 417.303 40.984C417.919 40.984 418.52 40.8813 419.107 40.676C419.694 40.4707 420.163 40.2947 420.515 40.148L421.703 44.812Z" fill="#27292C"/>
<path d="M423.19 39.18C423.19 37.684 423.601 36.3787 424.422 35.264C425.273 34.12 426.446 33.24 427.942 32.624C429.438 32.008 431.154 31.7 433.09 31.7C434.058 31.7 435.041 31.7733 436.038 31.92C437.035 32.0667 437.901 32.3013 438.634 32.624V31.392C438.634 29.9253 438.194 28.796 437.314 28.004C436.463 27.212 435.187 26.816 433.486 26.816C432.225 26.816 431.022 27.036 429.878 27.476C428.734 27.916 427.531 28.5613 426.27 29.412L424.378 25.54C425.903 24.5427 427.458 23.7947 429.042 23.296C430.655 22.7973 432.342 22.548 434.102 22.548C437.387 22.548 439.939 23.3693 441.758 25.012C443.606 26.6547 444.53 29.0013 444.53 32.052V39.4C444.53 40.016 444.632 40.456 444.838 40.72C445.072 40.984 445.439 41.1453 445.938 41.204V46C445.41 46.088 444.926 46.1613 444.486 46.22C444.075 46.2787 443.723 46.308 443.43 46.308C442.257 46.308 441.362 46.044 440.746 45.516C440.159 44.988 439.793 44.3427 439.646 43.58L439.514 42.392C438.517 43.6827 437.27 44.68 435.774 45.384C434.278 46.088 432.753 46.44 431.198 46.44C429.673 46.44 428.294 46.132 427.062 45.516C425.859 44.8707 424.906 44.0053 424.202 42.92C423.527 41.8053 423.19 40.5587 423.19 39.18ZM437.534 40.368C437.857 40.016 438.121 39.664 438.326 39.312C438.531 38.96 438.634 38.6373 438.634 38.344V36.012C437.93 35.7187 437.167 35.4987 436.346 35.352C435.525 35.176 434.747 35.088 434.014 35.088C432.489 35.088 431.227 35.4253 430.23 36.1C429.262 36.7453 428.778 37.6107 428.778 38.696C428.778 39.2827 428.939 39.84 429.262 40.368C429.585 40.896 430.054 41.3213 430.67 41.644C431.286 41.9667 432.019 42.128 432.87 42.128C433.75 42.128 434.615 41.9667 435.466 41.644C436.317 41.292 437.006 40.8667 437.534 40.368Z" fill="#27292C"/>
<path d="M449.995 13.88H455.891V38.608C455.891 39.664 456.067 40.3827 456.419 40.764C456.771 41.116 457.255 41.292 457.871 41.292C458.341 41.292 458.825 41.2333 459.323 41.116C459.822 40.9987 460.262 40.852 460.643 40.676L461.435 45.164C460.643 45.5453 459.719 45.8387 458.663 46.044C457.607 46.2493 456.654 46.352 455.803 46.352C453.955 46.352 452.518 45.868 451.491 44.9C450.494 43.9027 449.995 42.4947 449.995 40.676V13.88Z" fill="#27292C"/>
<path d="M0 60L-1.31134e-06 30L60 30L60 60L0 60Z" fill="#257BEC"/>
<path d="M0 30L-1.31134e-06 0L60 -2.62268e-06L60 30L0 30Z" fill="#F39C2A"/>
</svg>
