<svg width="449" height="60" viewBox="0 0 449 60" fill="none" xmlns="http://www.w3.org/2000/svg">
<path d="M84 31.16C84 29.2533 84.3373 27.3907 85.012 25.572C85.716 23.724 86.728 22.052 88.048 20.556C89.368 19.0307 90.9813 17.828 92.888 16.948C94.7947 16.0387 96.9653 15.584 99.4 15.584C102.275 15.584 104.753 16.2147 106.836 17.476C108.948 18.7373 110.517 20.38 111.544 22.404L106.88 25.616C106.352 24.4427 105.663 23.5187 104.812 22.844C103.961 22.14 103.052 21.656 102.084 21.392C101.116 21.0987 100.163 20.952 99.224 20.952C97.6987 20.952 96.364 21.26 95.22 21.876C94.1053 22.492 93.1667 23.2987 92.404 24.296C91.6413 25.2933 91.0693 26.408 90.688 27.64C90.336 28.872 90.16 30.104 90.16 31.336C90.16 32.7147 90.38 34.0493 90.82 35.34C91.26 36.6013 91.876 37.7307 92.668 38.728C93.4893 39.696 94.4573 40.4733 95.572 41.06C96.716 41.6173 97.9627 41.896 99.312 41.896C100.28 41.896 101.263 41.7347 102.26 41.412C103.257 41.0893 104.181 40.576 105.032 39.872C105.883 39.168 106.543 38.2587 107.012 37.144L111.984 40.004C111.368 41.5587 110.356 42.8787 108.948 43.964C107.569 45.0493 106.015 45.8707 104.284 46.428C102.553 46.9853 100.837 47.264 99.136 47.264C96.9067 47.264 94.868 46.8093 93.02 45.9C91.172 44.9613 89.5733 43.7293 88.224 42.204C86.904 40.6493 85.8627 38.9187 85.1 37.012C84.3667 35.076 84 33.1253 84 31.16Z" fill="#27292C"/>
<path d="M126.046 47.44C124.169 47.44 122.482 47.132 120.986 46.516C119.49 45.8707 118.214 44.9907 117.158 43.876C116.131 42.7613 115.339 41.4853 114.782 40.048C114.225 38.6107 113.946 37.1 113.946 35.516C113.946 33.9027 114.225 32.3773 114.782 30.94C115.339 29.5027 116.131 28.2267 117.158 27.112C118.214 25.9973 119.49 25.132 120.986 24.516C122.482 23.8707 124.169 23.548 126.046 23.548C127.923 23.548 129.595 23.8707 131.062 24.516C132.558 25.132 133.834 25.9973 134.89 27.112C135.946 28.2267 136.738 29.5027 137.266 30.94C137.823 32.3773 138.102 33.9027 138.102 35.516C138.102 37.1 137.823 38.6107 137.266 40.048C136.738 41.4853 135.946 42.7613 134.89 43.876C133.863 44.9907 132.602 45.8707 131.106 46.516C129.61 47.132 127.923 47.44 126.046 47.44ZM120.018 35.516C120.018 36.8653 120.282 38.068 120.81 39.124C121.338 40.1507 122.057 40.9573 122.966 41.544C123.875 42.1307 124.902 42.424 126.046 42.424C127.161 42.424 128.173 42.1307 129.082 41.544C129.991 40.928 130.71 40.1067 131.238 39.08C131.795 38.024 132.074 36.8213 132.074 35.472C132.074 34.152 131.795 32.964 131.238 31.908C130.71 30.852 129.991 30.0307 129.082 29.444C128.173 28.8573 127.161 28.564 126.046 28.564C124.902 28.564 123.875 28.872 122.966 29.488C122.057 30.0747 121.338 30.896 120.81 31.952C120.282 32.9787 120.018 34.1667 120.018 35.516Z" fill="#27292C"/>
<path d="M140.498 40.18C140.498 38.684 140.908 37.3787 141.73 36.264C142.58 35.12 143.754 34.24 145.25 33.624C146.746 33.008 148.462 32.7 150.398 32.7C151.366 32.7 152.348 32.7733 153.346 32.92C154.343 33.0667 155.208 33.3013 155.942 33.624V32.392C155.942 30.9253 155.502 29.796 154.622 29.004C153.771 28.212 152.495 27.816 150.794 27.816C149.532 27.816 148.33 28.036 147.186 28.476C146.042 28.916 144.839 29.5613 143.578 30.412L141.686 26.54C143.211 25.5427 144.766 24.7947 146.35 24.296C147.963 23.7973 149.65 23.548 151.41 23.548C154.695 23.548 157.247 24.3693 159.066 26.012C160.914 27.6547 161.838 30.0013 161.838 33.052V40.4C161.838 41.016 161.94 41.456 162.146 41.72C162.38 41.984 162.747 42.1453 163.246 42.204V47C162.718 47.088 162.234 47.1613 161.794 47.22C161.383 47.2787 161.031 47.308 160.738 47.308C159.564 47.308 158.67 47.044 158.054 46.516C157.467 45.988 157.1 45.3427 156.954 44.58L156.822 43.392C155.824 44.6827 154.578 45.68 153.082 46.384C151.586 47.088 150.06 47.44 148.506 47.44C146.98 47.44 145.602 47.132 144.37 46.516C143.167 45.8707 142.214 45.0053 141.51 43.92C140.835 42.8053 140.498 41.5587 140.498 40.18ZM154.842 41.368C155.164 41.016 155.428 40.664 155.634 40.312C155.839 39.96 155.942 39.6373 155.942 39.344V37.012C155.238 36.7187 154.475 36.4987 153.654 36.352C152.832 36.176 152.055 36.088 151.322 36.088C149.796 36.088 148.535 36.4253 147.538 37.1C146.57 37.7453 146.086 38.6107 146.086 39.696C146.086 40.2827 146.247 40.84 146.57 41.368C146.892 41.896 147.362 42.3213 147.978 42.644C148.594 42.9667 149.327 43.128 150.178 43.128C151.058 43.128 151.923 42.9667 152.774 42.644C153.624 42.292 154.314 41.8667 154.842 41.368Z" fill="#27292C"/>
<path d="M175.839 47.44C173.874 47.44 171.997 47.1173 170.207 46.472C168.418 45.8267 166.878 44.8733 165.587 43.612L167.699 39.784C169.078 40.8987 170.427 41.72 171.747 42.248C173.097 42.776 174.387 43.04 175.619 43.04C176.763 43.04 177.673 42.8347 178.347 42.424C179.051 42.0133 179.403 41.3973 179.403 40.576C179.403 40.0187 179.213 39.5933 178.831 39.3C178.45 38.9773 177.893 38.6987 177.159 38.464C176.455 38.2293 175.59 37.9653 174.563 37.672C172.862 37.1147 171.439 36.572 170.295 36.044C169.151 35.516 168.286 34.856 167.699 34.064C167.142 33.2427 166.863 32.2013 166.863 30.94C166.863 29.4147 167.245 28.1093 168.007 27.024C168.799 25.9093 169.885 25.044 171.263 24.428C172.671 23.812 174.314 23.504 176.191 23.504C177.834 23.504 179.389 23.768 180.855 24.296C182.322 24.7947 183.657 25.616 184.859 26.76L182.483 30.5C181.31 29.5907 180.195 28.9307 179.139 28.52C178.083 28.08 177.013 27.86 175.927 27.86C175.311 27.86 174.725 27.9333 174.167 28.08C173.639 28.2267 173.199 28.476 172.847 28.828C172.525 29.1507 172.363 29.62 172.363 30.236C172.363 30.7933 172.51 31.2333 172.803 31.556C173.126 31.8493 173.595 32.1133 174.211 32.348C174.857 32.5827 175.634 32.8467 176.543 33.14C178.391 33.668 179.946 34.2107 181.207 34.768C182.498 35.3253 183.466 36.0147 184.111 36.836C184.757 37.628 185.079 38.728 185.079 40.136C185.079 42.424 184.243 44.2133 182.571 45.504C180.899 46.7947 178.655 47.44 175.839 47.44Z" fill="#27292C"/>
<path d="M202.777 45.812C202.278 46.0173 201.677 46.252 200.973 46.516C200.269 46.78 199.506 46.9853 198.685 47.132C197.893 47.308 197.086 47.396 196.265 47.396C195.179 47.396 194.182 47.2053 193.273 46.824C192.363 46.4427 191.63 45.8413 191.073 45.02C190.545 44.1693 190.281 43.0693 190.281 41.72V28.476H187.245V23.944H190.281V16.464H196.177V23.944H201.017V28.476H196.177V39.74C196.206 40.532 196.426 41.104 196.837 41.456C197.247 41.808 197.761 41.984 198.377 41.984C198.993 41.984 199.594 41.8813 200.181 41.676C200.767 41.4707 201.237 41.2947 201.589 41.148L202.777 45.812Z" fill="#27292C"/>
<path d="M205.803 14.88H211.699V39.608C211.699 40.664 211.875 41.3827 212.227 41.764C212.579 42.116 213.063 42.292 213.679 42.292C214.149 42.292 214.633 42.2333 215.131 42.116C215.63 41.9987 216.07 41.852 216.451 41.676L217.243 46.164C216.451 46.5453 215.527 46.8387 214.471 47.044C213.415 47.2493 212.462 47.352 211.611 47.352C209.763 47.352 208.326 46.868 207.299 45.9C206.302 44.9027 205.803 43.4947 205.803 41.676V14.88Z" fill="#27292C"/>
<path d="M219.812 47V23.944H225.708V47H219.812ZM219.812 20.732V14.88H225.708V20.732H219.812Z" fill="#27292C"/>
<path d="M240.047 47.132C238.522 47.132 237.114 46.8387 235.823 46.252C234.562 45.636 233.462 44.7853 232.523 43.7C231.614 42.6147 230.91 41.368 230.411 39.96C229.912 38.552 229.663 37.056 229.663 35.472C229.663 33.8 229.927 32.2453 230.455 30.808C230.983 29.3707 231.716 28.1093 232.655 27.024C233.623 25.9093 234.752 25.0587 236.043 24.472C237.363 23.856 238.815 23.548 240.399 23.548C242.188 23.548 243.758 23.9587 245.107 24.78C246.456 25.572 247.571 26.6427 248.451 27.992V23.944H253.599V45.9C253.599 48.188 253.042 50.1387 251.927 51.752C250.842 53.3947 249.331 54.6413 247.395 55.492C245.459 56.372 243.259 56.812 240.795 56.812C238.302 56.812 236.19 56.3867 234.459 55.536C232.728 54.7147 231.247 53.5413 230.015 52.016L233.227 48.892C234.107 49.9773 235.207 50.828 236.527 51.444C237.876 52.06 239.299 52.368 240.795 52.368C242.056 52.368 243.2 52.1333 244.227 51.664C245.283 51.224 246.119 50.52 246.735 49.552C247.38 48.6133 247.703 47.396 247.703 45.9V42.996C246.94 44.316 245.855 45.3427 244.447 46.076C243.068 46.78 241.602 47.132 240.047 47.132ZM242.027 42.424C242.672 42.424 243.288 42.3213 243.875 42.116C244.462 41.9107 245.004 41.632 245.503 41.28C246.002 40.928 246.442 40.5173 246.823 40.048C247.204 39.5493 247.498 39.0507 247.703 38.552V33.052C247.351 32.1427 246.852 31.3507 246.207 30.676C245.591 30.0013 244.887 29.488 244.095 29.136C243.332 28.7547 242.526 28.564 241.675 28.564C240.766 28.564 239.944 28.7547 239.211 29.136C238.478 29.5173 237.847 30.06 237.319 30.764C236.791 31.4387 236.38 32.2013 236.087 33.052C235.823 33.8733 235.691 34.7387 235.691 35.648C235.691 36.5867 235.852 37.4667 236.175 38.288C236.498 39.1093 236.938 39.828 237.495 40.444C238.082 41.06 238.756 41.544 239.519 41.896C240.311 42.248 241.147 42.424 242.027 42.424Z" fill="#27292C"/>
<path d="M280.342 47H274.446V34.064C274.446 32.2747 274.094 30.94 273.39 30.06C272.715 29.18 271.776 28.74 270.574 28.74C269.87 28.74 269.122 28.9453 268.33 29.356C267.538 29.7667 266.819 30.3387 266.174 31.072C265.558 31.776 265.103 32.5973 264.81 33.536V47H258.914V14.88H264.81V28.212C265.66 26.7453 266.819 25.6013 268.286 24.78C269.752 23.9587 271.351 23.548 273.082 23.548C274.578 23.548 275.795 23.812 276.734 24.34C277.672 24.8387 278.406 25.528 278.934 26.408C279.462 27.2587 279.828 28.2267 280.034 29.312C280.239 30.368 280.342 31.468 280.342 32.612V47Z" fill="#27292C"/>
<path d="M299.156 45.812C298.657 46.0173 298.056 46.252 297.352 46.516C296.648 46.78 295.885 46.9853 295.064 47.132C294.272 47.308 293.465 47.396 292.644 47.396C291.558 47.396 290.561 47.2053 289.652 46.824C288.742 46.4427 288.009 45.8413 287.452 45.02C286.924 44.1693 286.66 43.0693 286.66 41.72V28.476H283.624V23.944H286.66V16.464H292.556V23.944H297.396V28.476H292.556V39.74C292.585 40.532 292.805 41.104 293.216 41.456C293.626 41.808 294.14 41.984 294.756 41.984C295.372 41.984 295.973 41.8813 296.56 41.676C297.146 41.4707 297.616 41.2947 297.968 41.148L299.156 45.812Z" fill="#27292C"/>
<path d="M313.369 47V15.76H324.721C328.123 15.76 330.969 16.464 333.257 17.872C335.545 19.2507 337.261 21.128 338.405 23.504C339.549 25.8507 340.121 28.4613 340.121 31.336C340.121 34.504 339.49 37.2613 338.229 39.608C336.967 41.9547 335.178 43.7733 332.861 45.064C330.573 46.3547 327.859 47 324.721 47H313.369ZM334.005 31.336C334.005 29.312 333.638 27.5373 332.905 26.012C332.171 24.4573 331.115 23.2547 329.737 22.404C328.358 21.524 326.686 21.084 324.721 21.084H319.441V41.676H324.721C326.715 41.676 328.402 41.236 329.781 40.356C331.159 39.4467 332.201 38.2147 332.905 36.66C333.638 35.076 334.005 33.3013 334.005 31.336Z" fill="#27292C"/>
<path d="M344.207 47V23.944H350.103V47H344.207ZM344.207 20.732V14.88H350.103V20.732H344.207Z" fill="#27292C"/>
<path d="M364.442 47.132C362.916 47.132 361.508 46.8387 360.218 46.252C358.956 45.636 357.856 44.7853 356.918 43.7C356.008 42.6147 355.304 41.368 354.806 39.96C354.307 38.552 354.058 37.056 354.058 35.472C354.058 33.8 354.322 32.2453 354.85 30.808C355.378 29.3707 356.111 28.1093 357.05 27.024C358.018 25.9093 359.147 25.0587 360.438 24.472C361.758 23.856 363.21 23.548 364.794 23.548C366.583 23.548 368.152 23.9587 369.502 24.78C370.851 25.572 371.966 26.6427 372.846 27.992V23.944H377.994V45.9C377.994 48.188 377.436 50.1387 376.322 51.752C375.236 53.3947 373.726 54.6413 371.79 55.492C369.854 56.372 367.654 56.812 365.19 56.812C362.696 56.812 360.584 56.3867 358.854 55.536C357.123 54.7147 355.642 53.5413 354.41 52.016L357.622 48.892C358.502 49.9773 359.602 50.828 360.922 51.444C362.271 52.06 363.694 52.368 365.19 52.368C366.451 52.368 367.595 52.1333 368.622 51.664C369.678 51.224 370.514 50.52 371.13 49.552C371.775 48.6133 372.098 47.396 372.098 45.9V42.996C371.335 44.316 370.25 45.3427 368.842 46.076C367.463 46.78 365.996 47.132 364.442 47.132ZM366.422 42.424C367.067 42.424 367.683 42.3213 368.27 42.116C368.856 41.9107 369.399 41.632 369.898 41.28C370.396 40.928 370.836 40.5173 371.218 40.048C371.599 39.5493 371.892 39.0507 372.098 38.552V33.052C371.746 32.1427 371.247 31.3507 370.602 30.676C369.986 30.0013 369.282 29.488 368.49 29.136C367.727 28.7547 366.92 28.564 366.07 28.564C365.16 28.564 364.339 28.7547 363.606 29.136C362.872 29.5173 362.242 30.06 361.714 30.764C361.186 31.4387 360.775 32.2013 360.482 33.052C360.218 33.8733 360.086 34.7387 360.086 35.648C360.086 36.5867 360.247 37.4667 360.57 38.288C360.892 39.1093 361.332 39.828 361.89 40.444C362.476 41.06 363.151 41.544 363.914 41.896C364.706 42.248 365.542 42.424 366.422 42.424Z" fill="#27292C"/>
<path d="M383.308 47V23.944H389.204V47H383.308ZM383.308 20.732V14.88H389.204V20.732H383.308Z" fill="#27292C"/>
<path d="M408.339 45.812C407.84 46.0173 407.239 46.252 406.535 46.516C405.831 46.78 405.068 46.9853 404.247 47.132C403.455 47.308 402.648 47.396 401.827 47.396C400.742 47.396 399.744 47.2053 398.835 46.824C397.926 46.4427 397.192 45.8413 396.635 45.02C396.107 44.1693 395.843 43.0693 395.843 41.72V28.476H392.807V23.944H395.843V16.464H401.739V23.944H406.579V28.476H401.739V39.74C401.768 40.532 401.988 41.104 402.399 41.456C402.81 41.808 403.323 41.984 403.939 41.984C404.555 41.984 405.156 41.8813 405.743 41.676C406.33 41.4707 406.799 41.2947 407.151 41.148L408.339 45.812Z" fill="#27292C"/>
<path d="M409.826 40.18C409.826 38.684 410.236 37.3787 411.058 36.264C411.908 35.12 413.082 34.24 414.578 33.624C416.074 33.008 417.79 32.7 419.726 32.7C420.694 32.7 421.676 32.7733 422.674 32.92C423.671 33.0667 424.537 33.3013 425.27 33.624V32.392C425.27 30.9253 424.83 29.796 423.95 29.004C423.099 28.212 421.823 27.816 420.122 27.816C418.86 27.816 417.658 28.036 416.514 28.476C415.37 28.916 414.167 29.5613 412.906 30.412L411.014 26.54C412.539 25.5427 414.094 24.7947 415.678 24.296C417.291 23.7973 418.978 23.548 420.738 23.548C424.023 23.548 426.575 24.3693 428.394 26.012C430.242 27.6547 431.166 30.0013 431.166 33.052V40.4C431.166 41.016 431.268 41.456 431.474 41.72C431.708 41.984 432.075 42.1453 432.574 42.204V47C432.046 47.088 431.562 47.1613 431.122 47.22C430.711 47.2787 430.359 47.308 430.066 47.308C428.892 47.308 427.998 47.044 427.382 46.516C426.795 45.988 426.428 45.3427 426.282 44.58L426.15 43.392C425.153 44.6827 423.906 45.68 422.41 46.384C420.914 47.088 419.388 47.44 417.834 47.44C416.308 47.44 414.93 47.132 413.698 46.516C412.495 45.8707 411.542 45.0053 410.838 43.92C410.163 42.8053 409.826 41.5587 409.826 40.18ZM424.17 41.368C424.492 41.016 424.756 40.664 424.962 40.312C425.167 39.96 425.27 39.6373 425.27 39.344V37.012C424.566 36.7187 423.803 36.4987 422.982 36.352C422.161 36.176 421.383 36.088 420.65 36.088C419.125 36.088 417.863 36.4253 416.866 37.1C415.898 37.7453 415.414 38.6107 415.414 39.696C415.414 40.2827 415.575 40.84 415.898 41.368C416.22 41.896 416.69 42.3213 417.306 42.644C417.922 42.9667 418.655 43.128 419.506 43.128C420.386 43.128 421.251 42.9667 422.102 42.644C422.953 42.292 423.642 41.8667 424.17 41.368Z" fill="#27292C"/>
<path d="M436.631 14.88H442.527V39.608C442.527 40.664 442.703 41.3827 443.055 41.764C443.407 42.116 443.891 42.292 444.507 42.292C444.977 42.292 445.461 42.2333 445.959 42.116C446.458 41.9987 446.898 41.852 447.279 41.676L448.071 46.164C447.279 46.5453 446.355 46.8387 445.299 47.044C444.243 47.2493 443.29 47.352 442.439 47.352C440.591 47.352 439.154 46.868 438.127 45.9C437.13 44.9027 436.631 43.4947 436.631 41.676V14.88Z" fill="#27292C"/>
<path d="M0 60L-1.31134e-06 30L60 30L60 60L0 60Z" fill="#257BEC"/>
<path d="M0 30L-1.31134e-06 0L60 -2.62268e-06L60 30L0 30Z" fill="#F39C2A"/>
</svg>
