<svg width="224" height="251" viewBox="0 0 224 251" fill="none" xmlns="http://www.w3.org/2000/svg">
<path d="M0 137C0 76.2485 49.2487 26.9998 110 26.9998H114C174.751 26.9998 224 76.2485 224 137V141C224 201.751 174.751 251 114 251H110C49.2487 251 0 201.751 0 141V137Z" fill="#5EA1FA"/>
<path d="M133.923 163.846L129.898 170.142L127.46 169.289L114.208 189.019L111.185 199.405L107.139 198.788L104.902 202.286C105.543 204.284 104.79 211.052 96.6479 222.139C95.1794 223.664 90.7835 227.555 84.9478 230.919C84.5801 229.37 84.2063 225.058 85.6525 220.2C81.6938 223.645 76.9342 226.658 74.2116 228.161C74.5198 223.649 76.1351 213.063 80.131 206.814C84.1269 200.565 89.9046 195.817 92.2939 194.224L94.5304 190.726L93.7153 188.143C93.4718 188.016 93.2246 187.889 92.9735 187.759L100.549 180.285L111.379 164.378L111.75 163.797L100.996 160.038L105.469 153.042L104.185 152.221L99.7117 159.217L91.7503 168.58L88.248 166.341C86.4303 167.04 82.2743 166.989 80.1928 161.19L79.2588 160.593C78.7068 160.679 77.9132 160.672 77.045 160.454L73.9714 165.26L71.843 174.248L67.8582 174.82L66.1435 177.502C64.705 182.495 60.9163 193.805 57.2703 199.095C53.6244 204.385 49.1833 207.283 47.4185 208.071C47.3426 207.176 47.2876 206.015 47.2825 204.699C45.9865 205.71 42.0171 207.355 40.1944 208.051C38.8184 202.178 42.8235 194.401 44.998 191.247C42.4573 192.661 39.8614 193.658 38.2298 194.147C37.905 191.311 37.7125 185.439 40.8858 180.733C43.4245 176.969 50.1431 171.486 53.1851 169.216L54.5495 166.31L54.0981 162.901L61.013 156.974L63.2525 153.472L61.7937 153.695L66.7141 146.001L72.0388 142.561C71.6653 142.03 70.8827 140.716 70.7399 139.705L55.1246 125.285L59.0012 119.222L65.3422 113.422L96.2179 104.748L142.084 35.8508L158.582 22.9115C159.354 22.4748 160.786 22.0873 160.333 24.0312C159.879 25.9751 157.487 34.3119 156.347 38.2372L167.667 21.822C168.625 20.409 171.904 17.3044 179.104 11.3956C186.303 5.48675 201.083 -0.0097245 203.151 1.31229C203.968 1.83484 203.289 14.2132 202.483 20.1038C201.127 30.0168 196.545 39.8504 194.107 43.4925L185.351 56.0947C189.477 52.7728 196.212 47.321 197.842 45.8814C199.655 44.281 200.573 45.3829 200.806 46.1339L195.846 65.4655L136.354 155.38L133.923 163.846Z" fill="#F8F8FD"/>
<path fill-rule="evenodd" clip-rule="evenodd" d="M202.687 0.647463C202.948 0.683543 203.206 0.754445 203.42 0.891044C203.538 0.96675 203.611 1.06895 203.655 1.14392C203.701 1.22311 203.735 1.30823 203.762 1.38853C203.814 1.54889 203.853 1.74384 203.884 1.9563C203.947 2.38456 203.985 2.9563 204.004 3.62595C204.043 4.96947 204.009 6.76354 203.925 8.7166C203.757 12.6229 203.384 17.2064 202.979 20.1716C201.611 30.1658 196.999 40.0706 194.522 43.7707L194.517 43.7779L187.751 53.5164C191.643 50.3717 196.214 46.6519 197.511 45.5065C198.48 44.6513 199.35 44.3986 200.081 44.6538C200.776 44.8961 201.143 45.5312 201.284 45.986L201.325 46.1211L196.309 65.6712L136.813 155.592L134.384 164.054L130.106 170.744L127.659 169.889L114.667 189.233L111.543 199.965L107.385 199.332L105.443 202.368C105.735 203.586 105.607 205.818 104.543 208.964C103.397 212.351 101.145 216.86 97.0509 222.435L97.0311 222.462L97.008 222.486C95.5085 224.043 91.0758 227.964 85.1975 231.353L84.6163 231.688L84.4613 231.035C84.1152 229.577 83.7798 225.9 84.7669 221.601C81.0544 224.641 76.924 227.235 74.4532 228.598L73.6503 229.041L73.7128 228.126C73.8686 225.845 74.3534 222.043 75.3017 218.024C76.2484 214.012 77.6669 209.74 79.7098 206.545C83.7043 200.298 89.4478 195.542 91.9288 193.867L93.9833 190.654L93.3009 188.491C93.2298 188.454 93.1583 188.417 93.0865 188.38C92.9734 188.322 92.8595 188.263 92.7448 188.204L92.1308 187.888L100.164 179.963L110.958 164.108L110.988 164.061L100.234 160.301L104.778 153.194L104.337 152.912L100.115 159.515L91.8486 169.237L88.1836 166.893C87.1627 167.219 85.6562 167.315 84.1234 166.662C82.4762 165.96 80.8602 164.421 79.7811 161.52L79.1433 161.112C78.6287 161.169 77.9806 161.156 77.2777 161.018L74.4384 165.458L72.2511 174.694L68.1561 175.283L66.6038 177.71C65.8769 180.225 64.5752 184.277 63.0013 188.367C61.4169 192.484 59.5409 196.681 57.682 199.379C53.9838 204.745 49.4707 207.703 47.6223 208.528L46.9798 208.815L46.9203 208.113C46.8615 207.419 46.8152 206.571 46.7943 205.619C46.0636 206.048 45.1033 206.514 44.1419 206.949C42.7489 207.578 41.2915 208.167 40.3728 208.518L39.8381 208.722L39.7076 208.165C38.987 205.089 39.6808 201.567 40.794 198.461C41.6017 196.207 42.6439 194.134 43.5784 192.551C41.5771 193.529 39.6777 194.235 38.3733 194.626L37.8011 194.797L37.7331 194.204C37.4051 191.341 37.1935 185.314 40.4712 180.454C41.778 178.516 44.1334 176.169 46.5135 174.042C48.8514 171.952 51.2489 170.042 52.7856 168.89L54.0346 166.23L53.5669 162.697L60.6315 156.643L62.2359 154.133L60.7772 154.357L66.3514 145.64L71.3449 142.414C71.1896 142.162 71.0172 141.86 70.8555 141.536C70.6148 141.054 70.381 140.491 70.2757 139.957L54.4778 125.368L58.6153 118.898L65.0925 112.972L95.9044 104.317L141.712 35.5069L158.303 22.4947L158.336 22.4762C158.555 22.3519 158.826 22.2284 159.108 22.1481C159.38 22.0702 159.712 22.0184 160.029 22.0914C160.38 22.1722 160.685 22.4028 160.83 22.806C160.96 23.1687 160.942 23.6208 160.82 24.1448C160.458 25.6938 158.886 31.2333 157.681 35.4226L167.253 21.5414L167.254 21.5397C167.77 20.7795 168.869 19.6155 170.706 17.9266C172.556 16.2262 175.183 13.9662 178.786 11.0091C182.442 8.00897 187.989 5.13499 192.865 3.17833C195.307 2.19868 197.598 1.44172 199.419 1.01249C200.328 0.798217 201.134 0.662085 201.79 0.624457C202.119 0.605637 202.421 0.610693 202.687 0.647463ZM155.887 38.0286C157.037 34.0668 159.399 25.8336 159.846 23.9176C159.95 23.4697 159.923 23.2412 159.888 23.1435C159.868 23.0863 159.851 23.0766 159.805 23.0659C159.724 23.0473 159.581 23.0527 159.382 23.1096C159.204 23.1606 159.019 23.2417 158.859 23.3292L142.455 36.1947L97.704 103.418L105.182 98.0382L128.529 64.0957L128.543 64.079C130.256 61.9999 134.461 57.2515 137.486 55.0357C140.433 52.8776 148.256 47.0196 151.875 44.3039L155.887 38.0286ZM152.52 45.0701C148.923 47.7694 141.042 53.6712 138.077 55.8425C135.171 57.9704 131.051 62.6095 129.328 64.6982L105.908 98.7483L98.1911 104.3L96.4013 105.216L65.5919 113.871L59.3871 119.547L55.7713 125.202L71.21 139.459L71.2349 139.635C71.2951 140.061 71.4981 140.585 71.7502 141.09C71.8944 141.379 72.0478 141.648 72.185 141.871L91.1045 129.649L91.6471 130.489L67.0768 146.362L62.8103 153.034L76.4864 150.938L73.31 155.905C74.9564 156.303 77.6456 157.512 79.6091 160.223L80.3919 160.724C81.787 161.074 83.4318 162.026 84.8956 163.039C86.3832 164.068 87.7408 165.199 88.5539 165.943L91.652 167.924L99.3088 158.919L104.033 151.531L106.16 152.891L101.758 159.774L129.689 169.539L133.463 163.638L136.36 153.549L131.513 125.682L132.628 116.878L146.467 83.8881L146.483 83.8602C147.57 81.9898 150.374 77.0053 152.883 72.0538C156.001 65.9022 158.073 58.577 159.763 52.5844C161.069 47.9576 160.22 44.7191 159.683 43.7087L159.682 43.708C159.639 43.6808 159.553 43.6363 159.405 43.586C159.11 43.4855 158.611 43.3761 157.822 43.3163C157.122 43.2634 156.106 43.5197 155.062 43.9077C154.056 44.2818 153.1 44.7498 152.52 45.0701ZM87.2141 166.093C86.4416 165.431 85.4195 164.617 84.3267 163.861C83.2215 163.097 82.076 162.415 81.0593 162C82.0322 164.138 83.3114 165.229 84.5153 165.742C85.4918 166.158 86.4512 166.207 87.2141 166.093ZM78.2677 160.136C76.6528 158.256 74.6781 157.326 73.3622 156.952C74.3766 158.806 75.869 159.643 77.1666 159.969C77.5587 160.067 77.932 160.118 78.2677 160.136ZM153.633 43.4104C153.977 43.259 154.342 43.1088 154.714 42.9704C155.771 42.5772 156.965 42.2486 157.897 42.3191C158.739 42.3829 159.327 42.503 159.728 42.6393C159.927 42.7073 160.092 42.7831 160.22 42.8655C160.326 42.9328 160.465 43.0401 160.545 43.1998C161.23 44.4501 162.1 47.9841 160.726 52.8559C159.04 58.8306 156.945 66.2524 153.775 72.5059C151.267 77.4541 148.469 82.4311 147.364 84.3345L133.603 117.139L132.524 125.658L133.564 131.635L183.705 56.777L183.764 56.7291C184.133 56.4326 184.542 56.1038 184.981 55.7503L193.691 43.2143L193.694 43.2106C196.094 39.6234 200.643 29.8644 201.988 20.036C202.388 17.1107 202.758 12.5597 202.926 8.67348C203.01 6.7303 203.043 4.96363 203.005 3.65515C202.985 2.99881 202.949 2.47173 202.895 2.10002C202.867 1.91249 202.838 1.78216 202.812 1.70091L202.811 1.6995C202.754 1.6776 202.67 1.65464 202.55 1.63804C202.369 1.61297 202.135 1.60632 201.848 1.62282C201.272 1.65582 200.528 1.77837 199.648 1.98581C197.891 2.40001 195.65 3.13858 193.238 4.1064C188.407 6.04468 182.965 8.87334 179.421 11.7821C175.824 14.7337 173.213 16.9804 171.383 18.6628C169.542 20.3554 168.523 21.4498 168.08 22.1027L168.078 22.1059L156.764 38.5139L153.633 43.4104ZM133.812 133.062L137.29 153.06L195.382 65.2598L200.283 46.1588C200.177 45.9082 199.99 45.6808 199.752 45.598C199.513 45.5146 199.017 45.5111 198.173 46.2562C196.531 47.7055 189.785 53.1671 185.664 56.4841C185.227 56.836 184.82 57.1639 184.45 57.4607L133.812 133.062ZM63.5519 153.932L61.3944 157.306L54.9942 162.791C61.7656 166.212 65.5669 168.732 71.5361 173.374L73.5044 165.063L76.2687 160.74C74.6845 160.171 73.0062 158.914 72.0233 156.448L71.9283 156.21L74.4532 152.261L63.5519 153.932ZM70.6085 173.92C64.9129 169.506 61.1951 167.054 54.7179 163.772L55.0114 165.989C60.2923 168.797 63.2509 170.604 67.9976 174.295L70.6085 173.92ZM67.1913 174.935C62.6823 171.442 59.8013 169.676 54.7787 166.998L53.8372 169.003C58.9266 171.802 61.7768 173.582 66.0138 176.777L67.1913 174.935ZM65.5675 177.693C61.2544 174.431 58.4276 172.666 53.2273 169.809C51.7071 170.956 49.4151 172.789 47.1799 174.787C44.8055 176.91 42.5322 179.186 41.3003 181.013C38.4375 185.258 38.3961 190.518 38.6647 193.486C40.2654 192.961 42.5321 192.047 44.7549 190.81C47.366 189.357 49.8488 187.495 51.1599 185.345L52.0137 185.865C50.5847 188.208 47.9674 190.154 45.3442 191.627C44.2825 193.186 42.7983 195.832 41.7354 198.798C40.7192 201.634 40.1107 204.699 40.5668 207.37C41.4482 207.023 42.6115 206.543 43.7301 206.037C44.9844 205.471 46.1336 204.893 46.7822 204.446C46.7845 202.243 46.9264 199.634 47.3385 197.108C47.7652 194.491 48.4881 191.921 49.6763 189.98L50.5292 190.502C49.4395 192.282 48.7436 194.705 48.3254 197.269C47.9086 199.825 47.774 202.48 47.7825 204.697C47.7863 205.662 47.8171 206.542 47.8631 207.29C49.8486 206.21 53.6606 203.451 56.8586 198.811C58.6457 196.218 60.4871 192.116 62.0681 188.008C63.5772 184.086 64.8348 180.197 65.5675 177.693ZM111.958 164.4L111.796 164.653L100.935 180.606L93.8153 187.631C93.8589 187.654 93.9023 187.676 93.9456 187.699C100.828 191.271 104.756 193.809 110.911 198.56L113.75 188.804L126.684 169.548L111.958 164.4ZM109.345 198.619C104.084 194.606 100.385 192.22 94.5564 189.147L94.9454 190.38C100.005 193.054 102.766 194.847 107.34 198.313L109.345 198.619ZM106.469 198.908C102.161 195.655 99.4708 193.912 94.7037 191.383L93.0194 194.017C97.7535 196.307 100.478 198.105 104.781 201.548L106.469 198.908ZM104.465 202.576C99.9532 198.948 97.26 197.162 92.3371 194.799C89.8612 196.506 84.3761 201.104 80.5522 207.084C78.5991 210.138 77.212 214.283 76.275 218.254C75.46 221.708 74.993 224.998 74.7856 227.262C77.5553 225.664 81.7692 222.917 85.3243 219.823C87.6323 217.815 89.6306 215.688 90.7872 213.658L91.6559 214.154C90.4364 216.293 88.3857 218.472 86.091 220.481C84.8916 224.6 85.0236 228.295 85.3063 230.131C90.7653 226.894 94.856 223.272 96.2647 221.816C100.3 216.317 102.491 211.907 103.595 208.644C104.654 205.515 104.696 203.495 104.465 202.576ZM144.917 56.106L145.002 56.1929C145.565 56.7727 146.886 58.1952 147.605 59.1983C148.008 59.7604 148.358 60.7336 148.63 61.6526C148.909 62.5942 149.127 63.5606 149.244 64.1668L149.293 64.4214L146.871 66.9364L144.242 65.2556L144.919 62.389C143.844 61.6506 142.345 60.635 141.022 59.7715C140.3 59.3002 139.634 58.877 139.121 58.5694C138.864 58.4152 138.651 58.2936 138.491 58.2103C138.411 58.169 138.351 58.1404 138.308 58.1226C138.299 58.1251 138.287 58.1286 138.272 58.1333C138.204 58.155 138.112 58.193 137.996 58.2495C137.766 58.3623 137.481 58.529 137.173 58.7247C136.56 59.1149 135.898 59.5946 135.476 59.9169L134.751 59.2503C135.73 57.719 136.797 56.8648 137.778 56.3384C138.265 56.0773 138.722 55.9009 139.122 55.7632C139.285 55.7069 139.429 55.6598 139.56 55.617C139.767 55.5494 139.941 55.4926 140.102 55.4279C140.425 55.2988 140.827 55.2767 141.211 55.2933C141.609 55.3106 142.05 55.3731 142.485 55.4562C143.355 55.6225 144.245 55.8799 144.802 56.0674L144.917 56.106ZM144.369 56.9773C143.84 56.805 143.056 56.5835 142.297 56.4384C141.889 56.3604 141.5 56.3068 141.168 56.2924C140.822 56.2774 140.594 56.3082 140.474 56.3562C140.286 56.4315 140.057 56.5067 139.823 56.5834C139.697 56.6246 139.57 56.6662 139.448 56.7085C139.131 56.8179 138.792 56.9474 138.438 57.123C138.539 57.1374 138.633 57.1745 138.693 57.1995C138.771 57.2322 138.859 57.2748 138.952 57.323C139.138 57.42 139.371 57.5534 139.635 57.7117C140.165 58.0291 140.843 58.4605 141.568 58.9341C143.021 59.8821 144.682 61.01 145.768 61.7595L146.049 61.9535L145.378 64.7951L146.719 65.6524L148.211 64.1027C148.092 63.5242 147.903 62.7194 147.671 61.9362C147.397 61.0086 147.085 60.1891 146.792 59.7808C146.152 58.888 144.965 57.5967 144.369 56.9773Z" fill="#27292C"/>
</svg>
