<svg width="320" height="224" viewBox="0 0 320 224" fill="none" xmlns="http://www.w3.org/2000/svg">
<rect x="1" width="224" height="224" rx="45" fill="#5EA1FA"/>
<path d="M229.786 156.944C228.287 159.937 221.459 163.178 218.233 164.425C219.087 165.152 220.702 167.386 220.327 170.502C219.952 173.619 214.342 174.918 211.584 175.178L206.367 171.327L204.557 170.502L200.967 171.327C201.518 171.987 202.62 173.682 202.62 175.178C202.62 177.048 201.904 181.099 198.404 183.905C195.605 186.149 191.097 185.775 189.193 185.307C188.798 186.658 187.602 189.671 185.979 190.917C184.355 192.164 180.202 192.372 178.328 192.32V193.567V194.813C177.027 196.164 173.507 198.896 169.833 199.021C166.159 199.146 162.725 197.099 161.467 196.06L156.939 197.618H152.19C150.368 197.618 147.623 194.086 146.478 192.32C145.303 193.099 142.127 194.19 138.828 192.32C135.529 190.45 135.953 187.362 136.577 186.583L134.704 187.645H129.304C127.274 187.645 123.683 181.879 123.527 180.009C123.402 178.512 125.973 174.918 127.274 173.307L123.527 171.327C123.007 171.987 121.685 173.682 120.561 175.178C119.437 176.674 116.137 177.152 114.628 177.203C113.275 176.528 110.569 174.243 110.569 170.502C110.569 166.762 111.77 162.71 112.371 161.152C110.694 159.53 109.141 158.032 108.013 156.944C106.382 160.311 104.718 163.715 104.324 164.425C103.699 165.547 99.1713 163.542 96.9855 162.399C93.5507 168.788 86.119 182.315 83.8708 185.307C81.0604 189.047 23.6387 151.851 1.00006 144.526C1.00006 144.526 1.00019 101 1 46C10.68 52.3374 29.1946 62.5997 35.3148 64.8437C37.6567 65.7024 45.7754 75.5966 46.0877 76.22C46.4 76.8433 54.8309 77.4667 60.2954 79.9601C64.667 81.9548 72.8377 86.5053 76.3766 88.5312L120.561 109.258C120.54 108.871 123.579 109.725 125.245 112.842C126.234 113.517 128.648 114.681 130.397 113.933C132.583 112.998 146.166 111.44 152.19 108.871C157.01 106.815 165.066 108.014 168.492 108.871C171.415 107.987 174.25 107.116 176.39 106.453C177.967 106.89 189.193 109.414 198.404 112.842C206.367 114.868 212.617 114.501 213.08 114.868L211.584 112.842L216.892 110.66C215.955 110.297 216.892 109.258 216.892 109.258C224.178 105.466 239.094 97.5699 240.468 96.3232C242.185 94.7648 255.612 86.9728 260.764 82.7652C265.917 78.5575 269.351 78.5576 271.537 77.7784C273.723 76.9992 276.377 74.0382 283.871 70.4539C289.867 67.5865 295.113 67.2852 296.986 67.493C301.878 63.3373 313.005 54.6207 318.376 53C318.376 58.9219 319.781 111.44 318.376 143.854L296.986 153.204C295.477 154.503 290.741 157.505 283.871 159.126C277.002 160.747 271.329 164.477 269.351 166.139L249.351 173.185C249.394 174.567 249.046 174.91 248.118 173.619C244.621 168.757 241.56 161.931 240.468 159.126L235.003 161.152L229.786 156.944Z" fill="#F8F8FD"/>
<path d="M159.997 124.997C159.997 125.777 159.997 127.771 159.997 129.517M159.997 129.517C159.997 131.699 167.647 128.114 169.833 126.556C171.581 125.309 174.933 126.971 176.39 127.958M159.997 129.517L152.19 135.127C148.703 136.322 140.699 137.994 136.577 135.127C132.456 132.26 133.611 129.153 134.704 127.958M176.39 127.958C176.963 127.699 177.764 126.369 176.39 123.127M176.39 127.958C178.316 130.296 183.572 135.719 189.193 138.711C193.26 140.876 198.662 145.62 202.62 149.435M218.233 164.425C217.14 162.451 214.579 158.191 213.08 156.944C211.582 155.698 207.98 153.932 206.367 153.204C205.432 152.214 204.131 150.892 202.62 149.435M218.233 164.425C221.459 163.178 228.287 159.937 229.786 156.944M218.233 164.425C219.087 165.152 220.702 167.386 220.327 170.502C219.952 173.619 214.342 174.918 211.584 175.178L206.367 171.327L204.557 170.502M229.786 156.944C231.285 153.952 228.433 143.542 226.82 138.711M229.786 156.944C231.317 156.789 234.503 156.321 235.003 155.698M229.786 156.944L235.003 161.152M226.82 138.711L221.98 129.517C220.262 125.621 216.078 117.237 213.08 114.868M226.82 138.711C229.756 144.114 235.503 155.074 235.003 155.698M213.08 114.868C212.617 114.501 206.367 114.868 198.404 112.842M213.08 114.868L211.584 112.842L216.892 110.66M176.39 106.453C177.967 106.89 189.193 109.414 198.404 112.842M176.39 106.453L198.404 112.842M176.39 106.453C174.25 107.116 171.415 107.987 168.492 108.871M141.73 123.127C145.477 119.699 153.252 112.842 154.376 112.842C155.15 112.842 162.035 110.823 168.492 108.871M141.73 123.127L134.704 127.958M141.73 123.127C144.353 123.127 147.298 125.413 148.443 126.556C147.246 128.062 144.602 130.764 143.603 129.517C142.604 128.27 137.254 127.958 134.704 127.958M202.62 149.435C212.487 140.856 213.705 127.283 213.08 121.569M202.62 149.435H210.114M235.003 155.698C236.452 159.438 235.607 160.892 235.003 161.152M235.003 161.152L240.468 159.126M216.892 110.66C219.868 113.881 226.612 122.161 229.786 129.517C232.96 136.872 237.761 147.127 240.468 153.204C240.934 155.771 240.917 157.059 240.468 159.126M216.892 110.66C215.955 110.297 216.892 109.258 216.892 109.258M240.468 159.126C241.56 161.931 244.621 168.757 248.118 173.619M248.118 173.619C251.615 178.481 246.869 160.165 244.058 150.399C235.94 136.581 216.892 109.258 216.892 109.258M248.118 173.619L269.351 166.139C271.329 164.477 277.002 160.747 283.871 159.126C290.741 157.505 295.477 154.503 296.986 153.204L318.376 143.854C319.781 111.44 318.376 58.9219 318.376 53C313.005 54.6207 301.878 63.3373 296.986 67.493C295.113 67.2852 289.867 67.5865 283.871 70.4539C276.377 74.0382 273.723 76.9992 271.537 77.7784C269.351 78.5576 265.916 78.5575 260.764 82.7652C255.612 86.9728 242.185 94.7648 240.468 96.3232C239.094 97.5699 224.178 105.466 216.892 109.258M168.492 108.871C165.066 108.014 157.01 106.815 152.19 108.871C146.166 111.44 132.583 112.998 130.397 113.933C128.648 114.681 126.234 113.517 125.245 112.842M125.245 112.842C124.256 117.621 121.123 129.486 116.502 138.711C111.88 147.937 110.621 151.178 110.569 151.646C109.899 153.041 108.961 154.986 108.013 156.944M125.245 112.842C123.579 109.725 120.54 108.871 120.561 109.258M96.9855 162.399C99.1713 163.542 103.699 165.547 104.324 164.425C104.718 163.715 106.382 160.311 108.013 156.944M96.9855 162.399C101.93 152.945 111.849 133.849 111.974 133.101C112.13 132.166 120.873 115.024 120.561 109.258M96.9855 162.399C93.5507 168.788 86.119 182.315 83.8708 185.307C81.0604 189.047 23.6387 151.851 1.00006 144.526C1.00006 144.526 1.00019 101 1 46C10.68 52.3374 29.1946 62.5997 35.3148 64.8437C37.6567 65.7024 45.7754 75.5966 46.0877 76.22C46.4 76.8433 54.8309 77.4667 60.2954 79.9601C64.667 81.9548 72.8377 86.5053 76.3766 88.5312L120.561 109.258M108.013 156.944C109.141 158.032 110.694 159.53 112.371 161.152M127.274 173.307L130.397 175.178C131.655 174.554 134.652 173.681 136.577 175.178C138.503 176.674 138.88 179.022 138.828 180.009M127.274 173.307C125.973 174.918 123.402 178.512 123.527 180.009C123.683 181.879 127.274 187.645 129.304 187.645C130.928 187.645 133.581 187.645 134.704 187.645M127.274 173.307L123.527 171.327M138.828 180.009V185.307M138.828 180.009C139.973 178.398 143.106 175.863 146.478 178.606C149.305 180.905 149.301 184.386 148.783 186.554M138.828 185.307L134.704 187.645M138.828 185.307C139.878 186.554 142.303 189.11 143.603 189.359C144.904 189.608 142.896 190.502 141.73 190.917C140.138 190.242 137.142 188.767 137.891 188.268M134.704 187.645C131.405 186.273 129.729 181.983 129.304 180.009L127.274 182.034C127.795 183.177 129.148 185.681 130.397 186.554M146.478 192.32L148.443 187.645C148.565 187.342 148.684 186.972 148.783 186.554M146.478 192.32C145.303 193.099 142.127 194.19 138.828 192.32C135.529 190.45 135.953 187.362 136.577 186.583M146.478 192.32C147.623 194.086 150.368 197.618 152.19 197.618C154.012 197.618 156.115 197.618 156.939 197.618M148.783 186.554C149.585 185.723 151.826 184.31 154.376 185.307C156.926 186.304 158.292 191.229 158.656 193.567M158.656 193.567L156.939 197.618M158.656 193.567L161.467 196.06M156.939 197.618L161.467 196.06M152.19 194.813C151.269 194.761 149.229 194.19 148.443 192.32M161.467 196.06C162.725 197.099 166.159 199.146 169.833 199.021C173.507 198.896 177.027 196.164 178.328 194.813V193.567M112.371 161.152C115.983 164.645 120.175 168.715 121.966 170.502L123.527 171.327M112.371 161.152C111.77 162.71 110.569 166.762 110.569 170.502C110.569 174.243 113.275 176.528 114.628 177.203C116.137 177.152 119.437 176.674 120.561 175.178C121.685 173.681 123.007 171.987 123.527 171.327M189.193 185.307C188.798 186.658 187.602 189.671 185.979 190.917C184.355 192.164 180.202 192.372 178.328 192.32V193.567M189.193 185.307C191.097 185.775 195.605 186.149 198.404 183.905C201.904 181.099 202.62 177.048 202.62 175.178C202.62 173.681 201.518 171.987 200.967 171.327M189.193 185.307L178.328 175.178M200.967 171.327C196.804 168.975 188.227 163.645 187.228 161.152M200.967 171.327L204.557 170.502M187.228 161.152C186.229 158.659 194.262 164.477 198.404 167.697L204.557 170.502M187.228 161.152C186.447 159.801 184.855 156.82 184.73 155.698M178.328 193.567L169.833 186.554C167.573 185.047 162.443 182.034 159.997 182.034" stroke="#27292C"/>
</svg>
