<svg width="322" height="326" viewBox="0 0 322 326" fill="none" xmlns="http://www.w3.org/2000/svg">
<rect x="96" y="47" width="224" height="224" rx="45" fill="#5EA1FA"/>
<path d="M172.383 31.6876H166.932L164.325 35.93V44.415C165.589 45.8292 168.306 49.506 169.065 52.9C169.823 56.294 170.961 62.1706 171.435 64.6846L170.487 74.8195V77.6478C172.62 79.2191 177.455 82.833 179.73 84.7186C182.006 86.6041 189.685 90.2181 193.24 91.7894C192.213 92.8107 189.875 95.5133 188.737 98.1531C188.324 99.1105 187.899 99.8902 187.502 100.51C187.842 100.014 191.469 101.56 193.24 102.396V99.5673C193.24 98.7985 194.396 96.0971 195.294 94.1463H200.588C202.247 95.0105 205.802 97.3046 206.75 99.5673C207.698 101.83 205.723 100.51 204.617 99.5673V100.746L205.565 103.574H203.906L202.721 104.517H200.588C200.588 104.831 200.398 105.507 199.64 105.695C198.881 105.884 197.901 104.988 197.506 104.517L193.24 102.396C191.469 101.56 187.842 100.014 187.502 100.51C186.805 101.599 186.195 102.195 185.893 102.396L170.89 91.7894C172.037 96.0841 174.63 103.814 175.938 107.581C176.244 108.978 176.757 111.736 176.886 113.787C182.284 119.653 193.523 133.224 195.294 140.578C195.083 142.149 194.141 146.046 192.055 149.063C189.969 152.08 186.446 158.491 184.945 161.319C183.128 164.619 178.972 172.444 176.886 177.346C174.801 182.249 172.699 187.717 171.909 189.838C170.503 189.202 167.527 187.992 165.036 187.352C165.036 188.003 168.828 193.209 170.724 195.73L172.62 196.909C173.173 196.987 175.038 197.239 178.071 197.616C180.734 197.947 181.157 199.27 181.007 200.12L180.916 201.858L175.701 202.801C171.988 203.115 164.04 203.272 161.955 201.387C159.869 199.501 155.397 197.616 153.422 196.909V198.087C148.445 197.616 144.89 194.787 144.89 194.08C144.89 193.515 145.779 191.331 146.224 190.309C146.192 189.649 146.197 188.743 146.312 187.717C146.501 186.02 148.761 184.181 149.867 183.474L151.289 182.296L161.955 166.504C163.377 163.676 166.553 157.501 167.88 155.427C169.539 152.834 175.938 144.113 175.938 143.171C175.938 142.228 161.006 133.507 157.688 130.914C156.681 130.127 155.027 128.908 153.185 127.573L149.156 134.686L154.133 136.571V137.514L143.23 181.589L134.698 179.46L129.484 207.279C129.326 210.343 129.152 217.084 129.721 219.535C130.29 221.232 133.276 222.913 134.698 223.542L138.727 224.013C140.07 224.013 142.756 223.919 142.756 225.428L143.23 228.185C142.093 229.26 139.754 230.409 138.727 230.848C135.488 231.163 128.725 231.603 127.588 230.848C126.45 230.094 123.163 230.063 121.662 230.141V231.791C121.662 232.168 119.45 232.734 118.344 232.97C114.552 233.158 111.829 232.42 110.941 232.027V228.185C110.294 224.408 111.329 222.109 111.945 221.421C111.471 220.478 114.078 212.7 115.026 211.286C115.026 211.286 114.078 194.787 115.026 189.838C115.784 185.878 116.606 178.312 116.922 175.024L79 165.561L89.4286 121.487L115.026 126.672C114.947 126.043 115.026 124.456 115.974 123.137C116.922 121.817 118.66 121.801 119.411 121.958L119.529 120.544L119.292 115.712C118.723 115.712 118.581 112.334 118.581 110.645C118.739 108.995 119.103 105.035 119.292 102.396C119.482 99.7558 120.635 96.4247 121.188 95.0891C121.425 92.8893 121.899 87.924 121.899 85.6614C121.899 83.3987 123.005 77.962 123.558 75.5265C124.348 74.9766 125.976 73.7353 126.166 73.1696C126.355 72.6039 127.351 70.577 127.825 69.6342C128.141 67.9844 128.82 64.4018 129.01 63.2705C129.247 61.8563 132.565 54.3141 133.039 51.2501C133.418 48.7989 134.461 45.672 134.935 44.415C135.883 43.5508 138.064 41.3981 139.201 39.7011C140.339 38.0042 144.258 35.0658 146.075 33.8088L146.786 31.6876L147.971 30.9805C148.366 30.6662 149.203 29.3306 149.393 26.5023C149.582 23.674 147.734 19.9815 146.786 18.4887C146.391 16.2889 145.601 11.5122 145.601 10.0038C145.601 8.49534 146.707 6.54694 147.26 5.7613C147.655 4.97565 149.725 3.02726 154.844 1.51882C159.964 0.0103812 166.458 2.14733 169.065 3.40437C168.828 5.05422 168.496 8.49534 169.065 9.06101C169.634 9.62667 171.514 12.4393 172.383 13.7749V15.8961L175.227 20.3743L173.568 22.0241V24.3811C173.173 25.0096 172.383 26.3138 172.383 26.5023V31.6876Z" fill="#F8F8FD"/>
<path d="M166.932 31.6876H172.383C172.383 30.0377 172.383 26.6909 172.383 26.5023C172.383 26.3138 173.173 25.0096 173.568 24.3811V22.0241L175.227 20.3743L172.383 15.8961V13.7749C171.514 12.4393 169.634 9.62667 169.065 9.06101C168.496 8.49534 168.828 5.05422 169.065 3.40437C166.458 2.14733 159.964 0.0103812 154.844 1.51882C149.725 3.02726 147.655 4.97565 147.26 5.7613C146.707 6.54694 145.601 8.49534 145.601 10.0038C145.601 11.5122 146.391 16.2889 146.786 18.4887C147.734 19.9815 149.582 23.674 149.393 26.5023C149.203 29.3306 148.366 30.6662 147.971 30.9805M166.932 31.6876L164.325 35.9301V44.415M166.932 31.6876C165.273 30.9019 161.907 29.0478 161.717 27.9165M147.971 30.9805L146.786 31.6876L146.075 33.8088C144.258 35.0658 140.339 38.0042 139.201 39.7011C138.064 41.3981 135.883 43.5508 134.935 44.415C134.461 45.672 133.418 48.7989 133.039 51.2501C132.565 54.3141 129.247 61.8563 129.01 63.2705C128.82 64.4018 128.141 67.9844 127.825 69.6342C127.351 70.577 126.355 72.6039 126.166 73.1696C125.976 73.7353 124.348 74.9766 123.558 75.5265C123.005 77.962 121.899 83.3987 121.899 85.6614C121.899 87.924 121.425 92.8893 121.188 95.0891C120.635 96.4247 119.482 99.7558 119.292 102.396C119.103 105.035 118.739 108.995 118.581 110.645M147.971 30.9805C151.368 32.7089 158.684 37.1085 160.769 40.8796L162.429 40.4082L164.325 44.415M118.581 110.645C122.61 110.723 130.906 111.022 131.854 111.588M118.581 110.645C118.581 112.334 118.723 115.712 119.292 115.712M131.854 111.588C132.249 107.581 133.039 99.2844 133.039 98.1531C133.039 96.7389 136.594 88.7254 138.727 80.4761C142.519 74.3481 149.077 62.1706 153.185 57.1425M131.854 111.588L130.432 112.059L130.669 115.712M164.325 44.415C165.589 45.8292 168.306 49.506 169.065 52.9C169.823 56.294 170.961 62.1706 171.435 64.6846L170.487 74.8195V77.6478M170.487 77.6478C170.171 80.319 169.729 86.557 170.487 90.1395C170.584 90.5993 170.722 91.1571 170.89 91.7894M170.487 77.6478C172.62 79.2191 177.455 82.833 179.73 84.7186C182.006 86.6041 189.685 90.2181 193.24 91.7894C192.213 92.8107 189.875 95.5133 188.737 98.1531C188.324 99.1105 187.899 99.8902 187.502 100.51M130.906 119.366C133.513 119.13 139.723 118.8 143.705 119.366C147.686 119.931 166.379 119.601 175.227 119.366C175.701 118.816 176.697 117.244 176.886 115.359C176.929 114.931 176.924 114.39 176.886 113.787M130.906 119.366L130.669 115.712M130.906 119.366C130.934 119.804 130.83 121.218 130.702 122.665M170.89 91.7894C172.037 96.0841 174.63 103.814 175.938 107.581C176.244 108.978 176.757 111.736 176.886 113.787M170.89 91.7894L185.893 102.396C186.195 102.195 186.805 101.599 187.502 100.51M193.24 92.9679H195.847C195.687 93.3014 195.497 93.7046 195.294 94.1463M193.24 102.396C193.24 101.846 193.24 100.51 193.24 99.5673C193.24 98.7985 194.396 96.0971 195.294 94.1463M193.24 102.396C191.469 101.56 187.842 100.014 187.502 100.51M193.24 102.396L197.506 104.517C197.901 104.988 198.881 105.884 199.64 105.695C200.398 105.507 200.588 104.831 200.588 104.517M195.294 94.1463H200.588C202.247 95.0105 205.802 97.3046 206.75 99.5673C207.698 101.83 205.723 100.51 204.617 99.5673M204.617 99.5673C204.186 99.3334 203.471 98.9836 202.721 98.6904M204.617 99.5673V100.746M197.506 98.8602C198.613 98.3888 199.45 98.3888 200.588 98.3888C201.161 98.3888 201.959 98.3925 202.721 98.6904M202.721 98.6904L201.773 99.5673M201.773 99.5673L203.906 101.924H204.617V100.746M201.773 99.5673H199.64V101.924L202.721 103.574H203.906M204.617 100.746L205.565 103.574H203.906M200.588 104.517H202.721L203.906 103.574M200.588 104.517L197.98 101.924M176.886 113.787C182.284 119.653 193.523 133.224 195.294 140.578C195.083 142.149 194.141 146.046 192.055 149.063C189.969 152.08 186.446 158.491 184.945 161.319C183.128 164.619 178.972 172.444 176.886 177.346C174.801 182.249 172.699 187.717 171.909 189.838C170.503 189.202 167.527 187.992 165.036 187.352M163.377 187.01C160.722 186.632 154.212 183.71 151.289 182.296M163.377 187.01L160.532 188.659C159.268 188.817 156.077 188.848 153.422 187.717C150.767 186.585 149.946 184.417 149.867 183.474M163.377 187.01C163.884 187.082 164.446 187.201 165.036 187.352M151.289 182.296L161.955 166.504C163.377 163.676 166.553 157.501 167.88 155.427C169.539 152.834 175.938 144.113 175.938 143.171C175.938 142.228 161.006 133.507 157.688 130.914C156.681 130.127 155.027 128.908 153.185 127.573M151.289 182.296L149.867 183.474M144.653 121.487C146.662 122.9 150.174 125.391 153.185 127.573M153.185 127.573L149.156 134.686M149.156 134.686L129.721 130.207L130.432 125.494C130.507 124.769 130.61 123.709 130.702 122.665M149.156 134.686L154.133 136.571V137.514M130.669 115.712C127.114 115.712 119.861 115.712 119.292 115.712M119.292 115.712L119.529 120.544L119.411 121.958M121.425 125.494H120.477L119.055 125.258L119.144 124.551M121.425 125.494L121.899 123.372M121.425 125.494V127.573L122.847 128.086L123.558 126.672M123.558 126.672L124.032 125.258M123.558 126.672V127.573L124.743 129.029M124.743 129.029L125.692 128.086M124.743 129.029L116.922 127.573M125.692 128.086L126.64 125.494M125.692 128.086L125.524 130.914M130.702 122.665L129.484 125.729L126.836 132.093M119.411 121.958L119.292 123.372L119.144 124.551M119.411 121.958C118.66 121.801 116.922 121.817 115.974 123.137C115.026 124.456 114.947 126.043 115.026 126.672M115.026 126.672C115.263 126.972 115.974 127.573 116.922 127.573M115.026 126.672L89.4286 121.487M116.922 127.573V125.729C117.218 125.336 118.078 124.551 119.144 124.551M146.786 34.2802C148.998 35.3801 153.706 37.8627 154.844 38.9941C155.982 40.1254 157.846 41.1939 158.636 41.5867V43.7079C160.69 45.9863 164.846 50.7787 165.036 51.7215C165.225 52.6643 169.065 60.7564 170.961 64.6846M89.4286 121.487L79 165.561L116.922 175.024M89.4286 121.487L125.524 130.914M154.133 137.514L143.23 181.589L134.698 179.46M154.133 137.514L126.836 132.093M126.836 132.093L126.64 132.564L125.455 132.093L125.524 130.914M147.734 89.4325V95.0891L165.51 95.5605C165.352 94.6963 165.036 92.4965 165.036 90.6109M151.289 89.4325C152.158 89.1968 155.271 89.0082 160.769 90.1395M134.698 179.46L129.484 207.279C129.326 210.343 129.152 217.084 129.721 219.535M134.698 179.46L116.922 175.024M129.721 219.535C130.29 221.986 126.166 222.756 124.032 222.835C120.161 222.678 112.324 222.175 111.945 221.421M129.721 219.535C130.29 221.232 133.276 222.913 134.698 223.542L138.727 224.013C140.07 224.013 142.756 223.919 142.756 225.428M111.945 221.421C111.471 220.478 114.078 212.7 115.026 211.286C115.026 211.286 114.078 194.787 115.026 189.838C115.784 185.878 116.606 178.312 116.922 175.024M111.945 221.421C111.329 222.109 110.294 224.408 110.941 228.185M142.756 225.428C142.756 226.936 140.702 228.099 139.675 228.492C136.831 230.566 128.694 229.356 124.98 228.492C120.635 230.141 111.755 232.451 110.997 228.492C110.977 228.388 110.958 228.286 110.941 228.185M142.756 225.428L143.23 228.185C142.093 229.26 139.754 230.409 138.727 230.848C135.488 231.163 128.725 231.603 127.588 230.848C126.45 230.094 123.163 230.063 121.662 230.141C121.662 230.534 121.662 231.414 121.662 231.791C121.662 232.168 119.45 232.734 118.344 232.97C114.552 233.158 111.829 232.42 110.941 232.027V228.185M149.867 183.474C148.761 184.181 146.501 186.02 146.312 187.717C146.197 188.743 146.192 189.649 146.224 190.309M165.036 187.352C165.036 188.003 168.828 193.209 170.724 195.73L172.62 196.909C173.173 196.987 175.038 197.239 178.071 197.616C180.734 197.947 181.157 199.27 181.007 200.12M146.224 190.309C146.234 190.532 146.249 190.727 146.265 190.889C146.28 191.04 146.297 191.162 146.312 191.252C147.892 192.666 151.716 195.636 154.37 196.202C157.025 196.767 161.48 199.58 163.377 200.915C165.747 201.387 171.53 202.235 175.701 201.858C179.873 201.481 180.916 200.758 180.916 200.444C180.954 200.348 180.986 200.239 181.007 200.12M146.224 190.309C145.779 191.331 144.89 193.515 144.89 194.08C144.89 194.787 148.445 197.616 153.422 198.087V196.909C155.397 197.616 159.869 199.501 161.955 201.387C164.04 203.272 171.988 203.115 175.701 202.801L180.916 201.858L181.007 200.12" stroke="#27292C"/>
<path d="M86.2546 228.71H111.524V232.722L117.9 233.666L122.624 232.722V230.834H126.638L130.181 232.014L139.627 231.306L144.114 228.71H160.633L161.354 205.109L162.299 201.805C163.558 202.513 167.542 203.882 173.399 203.693C179.255 203.504 181.192 202.67 181.428 202.277V199.209H238.343L239.76 169H315.804L321 173.484L318.875 209.829L16.8229 325H1V267.415L8.79336 258.682H81.059V236.026L86.2546 228.71Z" fill="#F8F8FD"/>
<path d="M81.059 236.026L86.2546 228.71H111.524V232.722L117.9 233.666L122.624 232.722V230.834H126.638L130.181 232.014L139.627 231.306L144.114 228.71H160.633M81.059 236.026H160.41L160.633 228.71M81.059 236.026V258.682M161.354 205.109H239.76L241.649 173.484M161.354 205.109L162.299 201.805C163.558 202.513 167.542 203.882 173.399 203.693C179.255 203.504 181.192 202.67 181.428 202.277V199.209H238.343L239.76 169M161.354 205.109L160.633 228.71M241.649 173.484L239.76 169M241.649 173.484H321M239.76 169H315.804L321 173.484M1 267.415H81.059V258.682M1 267.415L8.79336 258.682H81.059M1 267.415V325H16.8229L318.875 209.829L321 173.484" stroke="#27292C"/>
</svg>
