<svg width="307" height="266" viewBox="0 0 307 266" fill="none" xmlns="http://www.w3.org/2000/svg">
<path d="M15.2178 134L83.3433 134C86.3867 169.851 116.451 198 153.09 198C189.729 198 219.793 169.851 222.836 134L290.962 134C287.82 207.432 227.295 266 153.09 266C78.8848 266 18.3592 207.432 15.2178 134Z" fill="url(#paint0_linear_150_338)"/>
<path d="M51.9617 68L103.923 143L0.00014931 143L51.9617 68Z" fill="url(#paint1_linear_150_338)"/>
<path d="M291.744 132L223.619 132C220.575 96.1488 190.511 68 153.872 68C117.233 68 87.1691 96.1488 84.1257 132L16.0003 132C19.1416 58.5683 79.6672 8.34891e-06 153.872 1.80797e-05C228.077 2.78105e-05 288.603 58.5683 291.744 132Z" fill="url(#paint2_linear_150_338)"/>
<path d="M255 198L203.039 123L306.962 123L255 198Z" fill="url(#paint3_linear_150_338)"/>
<path d="M51.9616 68L103.923 143L4.2498e-05 143L51.9616 68Z" fill="url(#paint4_linear_150_338)"/>
<defs>
<linearGradient id="paint0_linear_150_338" x1="270.962" y1="167" x2="0.000136148" y2="167" gradientUnits="userSpaceOnUse">
<stop stop-color="#CDCFD6"/>
<stop offset="0.510417" stop-color="#FCFCFF"/>
</linearGradient>
<linearGradient id="paint1_linear_150_338" x1="270.962" y1="167" x2="0.000136148" y2="167" gradientUnits="userSpaceOnUse">
<stop stop-color="#CDCFD6"/>
<stop offset="0.510417" stop-color="#FCFCFF"/>
</linearGradient>
<linearGradient id="paint2_linear_150_338" x1="36.0003" y1="99" x2="306.962" y2="99" gradientUnits="userSpaceOnUse">
<stop stop-color="#CDCFD6"/>
<stop offset="0.53125" stop-color="#FCFCFF"/>
</linearGradient>
<linearGradient id="paint3_linear_150_338" x1="36.0003" y1="99" x2="306.962" y2="99" gradientUnits="userSpaceOnUse">
<stop stop-color="#CDCFD6"/>
<stop offset="0.53125" stop-color="#FCFCFF"/>
</linearGradient>
<linearGradient id="paint4_linear_150_338" x1="270.962" y1="167" x2="0.000130277" y2="167" gradientUnits="userSpaceOnUse">
<stop stop-color="#E3E4EA"/>
<stop offset="1" stop-color="#FCFCFF"/>
</linearGradient>
</defs>
</svg>
