<svg width="323" height="231" viewBox="0 0 323 231" fill="none" xmlns="http://www.w3.org/2000/svg">
<rect width="224" height="224" rx="112" fill="#5EA1FA"/>
<path d="M112.052 79.535L123.223 76.0749C124.428 74.5371 127.166 71.3956 128.48 71.132C129.794 70.8683 132.094 72.0107 133.08 72.6149L150.493 74.0977C151.589 76.4594 153.746 81.9406 153.615 84.9723C153.563 86.1583 153.225 88.3749 152.774 90.9038C159.406 91.2883 175.299 91.8265 185.813 90.9038C191.384 90.415 196.524 90.3362 200.598 90.4274L185.813 90.9038C175.299 91.8265 159.406 91.2883 152.774 90.9038C152.071 94.8392 151.093 99.5309 150.493 102.273L148.686 104.909C153.177 112.598 165.016 131.963 176.449 147.913L179.242 150.549C180.173 150.164 183.579 149.626 189.756 150.549C195.446 151.399 198.971 153.06 200.304 153.961C200.443 154.022 200.542 154.093 200.598 154.174L204.377 159.611H206.512C208.155 159.391 212.262 158.26 215.548 155.492C218.833 152.724 219.545 153.46 219.49 154.174C220.005 153.746 220.692 153.221 221.462 152.699C223.559 151.274 226.262 149.874 227.704 150.549C237.397 146.286 257.913 136.66 266.32 130.612C266.794 130.271 267.23 129.941 267.624 129.624C274.983 123.692 285.475 120.671 289.801 119.903C294.182 119.738 303.535 120.858 305.901 126.658C307.215 129.881 307.373 133.492 307.085 136.544C306.854 138.983 306.339 141.066 305.901 142.311C305.353 144.343 303.634 148.835 301.137 150.549C298.64 152.262 298.837 155.492 297.03 159.611C296.34 160.196 295.047 161.242 293.12 162.742C292.17 163.481 291.064 164.332 289.801 165.292C285.701 168.407 279.938 172.675 272.388 178.065C271.676 179.383 269.989 182.283 268.938 183.337C268.784 183.491 268.666 183.535 268.578 183.489L265.817 184.655L266.32 190.5L272.388 197.837L283.723 207.5L288.816 212C288.816 212 289.46 220.808 288.816 223.5C288.457 225 285.749 226.78 283.723 227C283.723 227 257.808 233.238 243.311 227C238.951 225.124 232.797 220.904 232.797 220.904C232.041 220.745 231.154 220.521 230.168 220.23C221.962 222.474 205.123 224.944 193.723 220.23C191.43 219.282 189.358 218.044 187.62 216.455C177.238 206.965 151.315 202.066 139.651 200.802H133.08L121.087 194.541C116.25 190.66 106.601 182.524 105.998 180.48C106.904 184.499 109.896 194.01 114.845 200.802C107.124 201.791 91.4188 203.175 90.3674 200.802C89.316 198.43 87.4104 200.912 86.589 202.45L80.675 200.802C70.5445 199.237 49.1664 195.233 44.6981 191.74C46.0671 192.509 50.185 193.586 55.7047 191.74C61.2244 189.895 67.4232 188.493 69.8326 188.023C66.1693 183.365 62.7252 178.535 60.9616 174.934C58.4802 169.868 59.6321 151.951 60.9616 134.997C46.8337 125.791 17.9207 105.897 15.2922 99.9659C12.6638 94.0344 4.66888 90.1349 1 88.9266V69.4843C4.39509 68.4408 12.6309 66.9799 18.4135 69.4843H29.0916C30.0262 70.3356 31.4926 71.9509 32.9444 74.0977C37.3551 76.3327 48.0822 81.2195 55.7047 82.8874C63.3272 84.5553 65.2329 83.5824 65.2329 82.8874L62.6044 76.0749C60.5016 70.6249 63.4805 65.3461 65.2329 63.388C65.9995 61.4657 69.077 56.6326 75.2538 52.6782C82.9749 47.7353 93.4887 48.3943 97.0133 51.0306C99.833 53.1396 100.657 58.0606 100.717 60.2575L105.974 66.0242V71.132C110.179 71.132 111.778 76.734 112.052 79.535Z" fill="#F8F8FD"/>
<path d="M112.052 79.535L123.223 76.0749C124.428 74.5371 127.166 71.3956 128.48 71.132M112.052 79.535C111.778 76.734 110.179 71.132 105.974 71.132V66.0242L100.717 60.2575C100.657 58.0606 99.833 53.1396 97.0133 51.0306C93.4887 48.3943 82.9749 47.7353 75.2538 52.6782C69.077 56.6326 65.9995 61.4657 65.2329 63.388C63.4805 65.3461 60.5016 70.6249 62.6044 76.0749L65.2329 82.8874M112.052 79.535V87.1142L113.038 89.7505M128.48 71.132C129.794 70.8683 132.094 72.0107 133.08 72.6149L150.493 74.0977C151.589 76.4594 153.746 81.9406 153.615 84.9723C153.563 86.1583 153.225 88.3749 152.774 90.9038M128.48 71.132C127.494 72.4501 125.293 76.4704 124.373 82.0065C123.453 87.5426 123.223 87.7184 123.223 87.1142M148.686 104.909L150.493 102.273C151.093 99.5309 152.071 94.8392 152.774 90.9038M148.686 104.909C153.177 112.598 165.016 131.963 176.449 147.913M148.686 104.909L128.48 92.5515L123.223 87.1142M176.449 147.913L179.242 150.549C180.173 150.164 183.579 149.626 189.756 150.549C195.933 151.472 199.558 153.35 200.598 154.174M176.449 147.913L160.35 133.249L157.229 129.294L153.615 125.505C150.439 119.683 141.885 107.413 133.08 104.909L125.359 96.1763L118.788 99.9659L116.652 96.1763L105.974 99.9659H97.0133M200.598 154.174L204.377 159.611H206.512C208.155 159.391 212.262 158.26 215.548 155.492C218.833 152.724 219.545 153.46 219.49 154.174C220.005 153.746 220.692 153.221 221.462 152.699M200.598 154.174C199.865 153.119 191.641 153.734 187.62 154.174C180.721 154.613 164.983 156.942 157.229 162.742C147.536 169.991 148.686 170.98 144.744 178.065C141.589 183.733 134.339 193.608 131.108 197.837L133.08 200.802M268.938 183.337C269.989 182.283 271.676 179.383 272.388 178.065C279.938 172.675 285.701 168.407 289.801 165.292M268.938 183.337C267.887 184.392 268.5 180.262 268.938 178.065M268.938 183.337L265.817 184.655M268.938 178.065C267.295 175.703 262.005 170.98 253.989 170.98C245.972 170.98 241.996 172.298 241.011 172.957L235.425 174.934M268.938 178.065L265 183.854M235.425 174.934C236.959 174 240.124 171.639 240.518 169.662C240.912 167.684 247.91 164.224 251.36 162.742L255.467 155.492C258.096 151.483 265.521 142.08 274.195 136.544M235.425 174.934C227.321 171.694 209.765 165.279 204.377 165.543M235.425 174.934C227.868 176.307 212.492 179.317 211.441 180.371M235.425 174.934C235.425 176.911 246.596 174.934 251.36 174.934C254.878 174.934 261.466 180.456 265 183.854M211.441 180.371C210.126 181.69 229.84 189.598 235.425 194.541C239.894 198.496 247 196.5 256.781 197.837C265.652 201.736 283.46 210.458 283.723 214.148C283.772 214.836 283.807 215.619 283.83 216.455M211.441 180.371L200.598 183.337C199.558 186.193 199.284 194.442 206.512 204.592C212.79 213.407 223.653 218.303 230.168 220.23M283.723 227C285.749 226.78 288.457 225 288.816 223.5C289.46 220.808 288.816 212 288.816 212L283.723 207.5M283.723 227C283.723 227 257.808 233.238 243.311 227C238.951 225.124 232.797 220.904 232.797 220.904C232.041 220.745 231.154 220.521 230.168 220.23M283.723 227C283.812 224.766 283.93 220.103 283.83 216.455M265.817 184.655L266.32 190.5M265.817 184.655C265.568 184.406 265.295 184.137 265 183.854M283.83 216.455C275.69 211.292 257.307 200.934 248.896 200.802C238.382 200.638 227.704 199.649 224.419 197.837C221.133 196.024 205.855 182.678 201.912 184.491M230.168 220.23C221.962 222.474 205.123 224.944 193.723 220.23C191.43 219.282 189.358 218.044 187.62 216.455C177.238 206.965 151.315 202.066 139.651 200.802H133.08M133.08 200.802L121.087 194.541C116.159 190.587 106.237 182.217 105.974 180.371M105.974 180.371C107.617 168.618 110.804 143.563 110.409 137.368C110.015 131.172 111.34 121.605 112.052 117.596C111.587 117.038 111.029 116.373 110.409 115.642M105.974 180.371C106.85 184.326 109.851 193.948 114.845 200.802C107.124 201.791 91.4188 203.175 90.3674 200.802C89.316 198.43 87.4104 200.912 86.589 202.45M95.6243 97.1649C89.7651 94.5287 77.488 88.8278 75.2538 87.1142M95.6243 97.1649H107.945L112.052 94.6934C112.052 93.9794 112.249 91.9913 113.038 89.7505M95.6243 97.1649C95.9046 97.8353 96.387 98.8515 97.0133 99.9659M75.2538 87.1142C77.488 88.8278 79.7988 94.5287 80.675 97.1649M75.2538 87.1142C73.4535 85.7335 71.6035 88.4678 70.4944 90.9038M72.4611 97.1649L69.8326 92.5515C70.0028 92.0608 70.2271 91.491 70.4944 90.9038M72.4611 97.1649H80.675M72.4611 97.1649C70.0517 96.4509 63.3272 94.1991 55.7047 90.9038C50.6636 88.7245 43.1411 85.5122 36.977 82.8874M80.675 97.1649C84.5629 100.86 95.9529 109.729 110.409 115.642M110.409 115.642C107.309 111.981 102.689 106.667 100.717 104.909C99.2828 103.63 97.9775 101.682 97.0133 99.9659M86.589 202.45L80.675 200.802M86.589 202.45C92.3935 204.592 105.612 208.876 112.052 208.876M80.675 200.802C78.0516 197.942 73.8128 193.084 69.8326 188.023M80.675 200.802C70.5445 199.237 49.1664 195.233 44.6981 191.74M62.6044 102.273C63.3609 106.75 62.0966 120.523 60.9616 134.997M60.9616 134.997C59.6321 151.951 58.4802 169.868 60.9616 174.934C62.7252 178.535 66.1693 183.365 69.8326 188.023M60.9616 134.997C46.8337 125.791 17.9207 105.897 15.2922 99.9659C12.6638 94.0344 4.66888 90.1349 1 88.9266V69.4843C4.39509 68.4408 12.6309 66.9799 18.4135 69.4843M18.4135 69.4843C24.1961 71.9887 27.9417 77.2283 29.0916 79.535C31.0202 80.3534 33.8205 81.5434 36.977 82.8874M18.4135 69.4843H29.0916C30.0262 70.3356 31.4926 71.9509 32.9444 74.0977M36.977 82.8874C36.1476 79.5148 34.5549 76.4792 32.9444 74.0977M32.9444 74.0977C37.3551 76.3327 48.0822 81.2195 55.7047 82.8874C63.3272 84.5553 65.2329 83.5824 65.2329 82.8874M65.2329 82.8874L70.4944 90.9038M123.223 87.1142C120.157 87.0593 113.826 87.5096 113.038 89.7505M152.774 90.9038C159.406 91.2883 175.299 91.8265 185.813 90.9038M185.813 90.9038C191.384 90.415 196.524 90.3362 200.598 90.4274M185.813 90.9038L200.598 90.4274M236.575 114.465C235.59 111.335 237.068 99.9659 235.097 96.1763C233.125 92.3867 227.704 89.7505 225.733 88.7619C224.156 87.971 213.576 89.8603 208.484 90.9038C206.99 90.7231 204.214 90.5083 200.598 90.4274M239.697 128.8C236.137 129.569 228.361 132.787 225.733 139.51C223.104 146.232 221.79 151.103 221.462 152.699M266.32 130.612C257.913 136.66 237.397 146.286 227.704 150.549C226.262 149.874 223.559 151.274 221.462 152.699M266.32 130.612C266.794 130.271 267.23 129.941 267.624 129.624C274.983 123.692 285.475 120.671 289.801 119.903C294.182 119.738 303.535 120.858 305.901 126.658C307.215 129.881 307.373 133.492 307.085 136.544M266.32 130.612H253.989M307.085 136.544C306.854 138.983 306.339 141.066 305.901 142.311C305.353 144.343 303.634 148.835 301.137 150.549C298.64 152.262 298.837 155.492 297.03 159.611C296.34 160.196 295.047 161.242 293.12 162.742M307.085 136.544L322 139.51M322 150.549L312.472 163.73C310.884 165.646 306.393 168.69 301.137 165.543L293.12 162.742M293.12 162.742C292.17 163.481 291.064 164.332 289.801 165.292M322 160.764L314.607 170.98C313.042 171.639 309.346 172.957 307.085 172.957M307.085 172.957C304.258 172.957 304.422 169.497 299.822 168.344C296.143 167.421 291.608 165.924 289.801 165.292M307.085 172.957L310.993 176.417C311.339 179.116 311.928 184.685 312.248 190.5M266.32 190.5L272.388 197.837L283.723 207.5M266.32 190.5C271.138 189.154 283.427 182.942 288.816 181.36C291.753 180.498 296.548 179.401 301.137 178.421M312.472 197.837C312.472 199.814 293.923 205.358 283.723 207.5M15.2922 102.273C23.2323 124.434 39.5069 170.617 41.0839 178.065C42.661 185.512 44.1505 190.285 44.6981 191.74M44.6981 191.74C46.0671 192.509 50.185 193.586 55.7047 191.74C61.2244 189.895 67.4232 188.493 69.8326 188.023M44.6981 191.74C36.3199 192.235 15.8508 194.146 1 197.837V227" stroke="#27292C"/>
</svg>
