<svg width="322" height="224" viewBox="0 0 322 224" fill="none" xmlns="http://www.w3.org/2000/svg">
<rect x="1" width="224" height="224" rx="110" fill="#5EA1FA"/>
<path d="M231.786 147.918C230.287 150.91 223.459 154.152 220.232 155.398C221.087 156.126 222.702 158.359 222.327 161.476C221.952 164.593 216.342 165.891 213.584 166.151L208.367 162.301L206.557 161.476L202.967 162.301C203.518 162.961 204.62 164.655 204.62 166.151C204.62 168.021 203.904 172.073 200.404 174.878C197.605 177.122 193.097 176.748 191.193 176.281C190.798 177.631 189.602 180.644 187.979 181.891C186.355 183.138 182.202 183.345 180.328 183.293V184.54V185.787C179.027 187.137 175.507 189.87 171.833 189.995C168.159 190.119 164.724 188.072 163.466 187.034L158.939 188.592H154.19C152.368 188.592 149.623 185.06 148.478 183.293C147.303 184.073 144.127 185.164 140.828 183.293C137.529 181.423 137.953 178.335 138.577 177.556L136.704 178.618H131.304C129.274 178.618 125.683 172.852 125.527 170.982C125.402 169.486 127.973 165.891 129.274 164.281L125.527 162.301C125.007 162.961 123.685 164.655 122.561 166.151C121.437 167.647 118.137 168.125 116.628 168.177C115.275 167.502 112.569 165.216 112.569 161.476C112.569 157.736 113.77 153.684 114.371 152.126C112.693 150.503 111.141 149.005 110.013 147.918C108.382 151.285 106.718 154.689 106.323 155.398C105.699 156.52 101.171 154.515 98.9853 153.372C95.5505 159.762 88.1188 173.289 85.8706 176.281C83.0602 180.021 25.6385 142.824 2.99988 135.5C2.99988 135.5 -6.5 79.5049 21 47.5C30.68 53.8374 31.1944 53.5733 37.3146 55.8174C39.6565 56.6761 47.7753 66.5702 48.0875 67.1936C48.3998 67.817 56.8307 68.4403 62.2952 70.9337C66.6668 72.9285 74.8375 77.479 78.3764 79.5049L122.561 100.231C122.54 99.8442 125.579 100.699 127.245 103.816C128.233 104.491 130.648 105.655 132.397 104.907C134.583 103.972 148.166 102.413 154.19 99.8442C159.01 97.7891 167.066 98.9879 170.492 99.8442C173.415 98.9603 176.25 98.0899 178.39 97.4263C179.967 97.8636 191.193 100.387 200.404 103.816C208.367 105.842 214.616 105.475 215.08 105.842L213.584 103.816L218.892 101.634C217.955 101.27 218.892 100.231 218.892 100.231C226.178 96.4393 241.093 88.5435 242.467 87.2968C244.185 85.7384 257.612 77.9465 262.764 73.7388C267.916 69.5312 271.351 69.5312 273.537 68.752C275.723 67.9728 278.377 65.0119 285.871 61.4276C291.866 58.5601 297.112 58.2589 298.986 58.4666C303.878 54.3109 315.005 45.5944 320.375 43.9736C320.375 49.8955 321.781 102.413 320.375 134.828L298.986 144.178C297.477 145.477 292.741 148.479 285.871 150.1C279.001 151.721 273.329 155.45 271.351 157.113L251.35 164.158C251.393 165.541 251.046 165.883 250.118 164.593C246.62 159.731 243.56 152.905 242.467 150.1L237.003 152.126L231.786 147.918Z" fill="#F8F8FD"/>
<path d="M161.997 115.971C161.997 116.75 161.997 118.745 161.997 120.49M161.997 120.49C161.997 122.672 169.647 119.088 171.833 117.53C173.581 116.283 176.933 117.945 178.39 118.932M161.997 120.49L154.19 126.101C150.703 127.295 142.699 128.968 138.577 126.101C134.456 123.233 135.611 120.127 136.704 118.932M178.39 118.932C178.963 118.672 179.764 117.342 178.39 114.101M178.39 118.932C180.316 121.27 185.572 126.693 191.193 129.685C195.26 131.85 200.662 136.594 204.62 140.409M220.232 155.398C219.14 153.424 216.579 149.165 215.08 147.918C213.581 146.671 209.98 144.905 208.367 144.178C207.432 143.187 206.131 141.866 204.62 140.409M220.232 155.398C223.459 154.152 230.287 150.91 231.786 147.918M220.232 155.398C221.087 156.126 222.702 158.359 222.327 161.476C221.952 164.593 216.342 165.891 213.584 166.151L208.367 162.301L206.557 161.476M231.786 147.918C233.285 144.926 230.433 134.516 228.82 129.685M231.786 147.918C233.317 147.762 236.503 147.295 237.003 146.671M231.786 147.918L237.003 152.126M228.82 129.685L223.98 120.49C222.262 116.594 218.078 108.21 215.08 105.842M228.82 129.685C231.755 135.087 237.502 146.048 237.003 146.671M215.08 105.842C214.616 105.475 208.367 105.842 200.404 103.816M215.08 105.842L213.584 103.816L218.892 101.634M178.39 97.4263C179.967 97.8636 191.193 100.387 200.404 103.816M178.39 97.4263L200.404 103.816M178.39 97.4263C176.25 98.0899 173.415 98.9603 170.492 99.8442M143.73 114.101C147.477 110.673 155.252 103.816 156.376 103.816C157.15 103.816 164.035 101.797 170.492 99.8442M143.73 114.101L136.704 118.932M143.73 114.101C146.353 114.101 149.298 116.387 150.443 117.53C149.246 119.036 146.602 121.737 145.603 120.49C144.604 119.244 139.254 118.932 136.704 118.932M204.62 140.409C214.487 131.83 215.705 118.257 215.08 112.543M204.62 140.409H212.114M237.003 146.671C238.452 150.411 237.606 151.866 237.003 152.126M237.003 152.126L242.467 150.1M218.892 101.634C221.867 104.855 228.612 113.135 231.786 120.49C234.96 127.846 239.761 138.1 242.467 144.178C242.934 146.744 242.917 148.032 242.467 150.1M218.892 101.634C217.955 101.27 218.892 100.231 218.892 100.231M242.467 150.1C243.56 152.905 246.62 159.731 250.118 164.593M250.118 164.593C253.615 169.455 248.869 151.139 246.058 141.373C237.94 127.555 218.892 100.231 218.892 100.231M250.118 164.593L271.351 157.113C273.329 155.45 279.001 151.721 285.871 150.1C292.741 148.479 297.477 145.477 298.986 144.178L320.375 134.828C321.781 102.413 320.375 49.8955 320.375 43.9736C315.005 45.5944 303.878 54.3109 298.986 58.4666C297.112 58.2589 291.866 58.5601 285.871 61.4276C278.377 65.0119 275.723 67.9728 273.537 68.752C271.351 69.5312 267.916 69.5312 262.764 73.7388C257.612 77.9465 244.185 85.7384 242.467 87.2968C241.093 88.5435 226.178 96.4393 218.892 100.231M170.492 99.8442C167.066 98.9879 159.01 97.7891 154.19 99.8442C148.166 102.413 134.583 103.972 132.397 104.907C130.648 105.655 128.233 104.491 127.245 103.816M127.245 103.816C126.256 108.595 123.123 120.459 118.501 129.685C113.88 138.911 112.621 142.152 112.569 142.62C111.899 144.014 110.961 145.96 110.013 147.918M127.245 103.816C125.579 100.699 122.54 99.8442 122.561 100.231M98.9853 153.372C101.171 154.515 105.699 156.52 106.323 155.398C106.718 154.689 108.382 151.285 110.013 147.918M98.9853 153.372C103.929 143.918 113.849 124.823 113.974 124.075C114.13 123.14 122.873 105.997 122.561 100.231M98.9853 153.372C95.5505 159.762 88.1188 173.289 85.8706 176.281C83.0602 180.021 25.6385 142.824 2.99988 135.5C2.99988 135.5 -6.5 79.5049 21 47.5C30.68 53.8374 31.1944 53.5733 37.3146 55.8174C39.6565 56.6761 47.7753 66.5702 48.0875 67.1936C48.3998 67.817 56.8307 68.4403 62.2952 70.9337C66.6668 72.9285 74.8375 77.479 78.3764 79.5049L122.561 100.231M110.013 147.918C111.141 149.005 112.693 150.503 114.371 152.126M129.274 164.281L132.397 166.151C133.655 165.528 136.652 164.655 138.577 166.151C140.503 167.647 140.88 169.995 140.828 170.982M129.274 164.281C127.973 165.891 125.402 169.486 125.527 170.982C125.683 172.852 129.274 178.618 131.304 178.618C132.928 178.618 135.58 178.618 136.704 178.618M129.274 164.281L125.527 162.301M140.828 170.982V176.281M140.828 170.982C141.973 169.372 145.106 166.837 148.478 169.58C151.305 171.878 151.3 175.36 150.783 177.527M140.828 176.281L136.704 178.618M140.828 176.281C141.878 177.527 144.302 180.083 145.603 180.333C146.904 180.582 144.896 181.475 143.73 181.891C142.138 181.216 139.142 179.74 139.891 179.242M136.704 178.618C133.405 177.247 131.729 172.956 131.304 170.982L129.274 173.008C129.795 174.151 131.148 176.655 132.397 177.527M148.478 183.293L150.443 178.618C150.565 178.316 150.683 177.946 150.783 177.527M148.478 183.293C147.303 184.073 144.127 185.164 140.828 183.293C137.529 181.423 137.953 178.335 138.577 177.556M148.478 183.293C149.623 185.06 152.368 188.592 154.19 188.592C156.012 188.592 158.115 188.592 158.939 188.592M150.783 177.527C151.585 176.696 153.826 175.283 156.376 176.281C158.926 177.278 160.292 182.203 160.656 184.54M160.656 184.54L158.939 188.592M160.656 184.54L163.466 187.034M158.939 188.592L163.466 187.034M154.19 185.787C153.269 185.735 151.229 185.164 150.443 183.293M163.466 187.034C164.724 188.072 168.159 190.119 171.833 189.995C175.507 189.87 179.027 187.137 180.328 185.787V184.54M114.371 152.126C117.983 155.619 122.175 159.688 123.966 161.476L125.527 162.301M114.371 152.126C113.77 153.684 112.569 157.736 112.569 161.476C112.569 165.216 115.275 167.502 116.628 168.177C118.137 168.125 121.437 167.647 122.561 166.151C123.685 164.655 125.007 162.961 125.527 162.301M191.193 176.281C190.798 177.631 189.602 180.644 187.979 181.891C186.355 183.138 182.202 183.345 180.328 183.293V184.54M191.193 176.281C193.097 176.748 197.605 177.122 200.404 174.878C203.904 172.073 204.62 168.021 204.62 166.151C204.62 164.655 203.518 162.961 202.967 162.301M191.193 176.281L180.328 166.151M202.967 162.301C198.803 159.948 190.227 154.619 189.228 152.126M202.967 162.301L206.557 161.476M189.228 152.126C188.228 149.632 196.262 155.45 200.404 158.671L206.557 161.476M189.228 152.126C188.447 150.775 186.854 147.793 186.73 146.671M180.328 184.54L171.833 177.527C169.573 176.021 164.443 173.008 161.997 173.008" stroke="#27292C"/>
</svg>
