<svg width="320" height="225" viewBox="0 0 320 225" fill="none" xmlns="http://www.w3.org/2000/svg">
<rect x="1" width="224" height="224" rx="45" fill="#5EA1FA"/>
<path d="M243.808 109.813C243.02 106.699 240.845 102.137 240.845 102.137C238.04 103.436 231.649 105.774 228.521 104.735C225.393 103.696 224.373 102.806 224.255 102.492C223.939 101.941 223.331 100.154 223.425 97.414L221.648 95.7608C221.253 94.9736 220.842 93.2338 222.359 92.5725C221.569 91.7459 219.989 89.9511 219.989 89.3843C219.989 88.6757 220.937 88.2034 221.055 87.1407C221.15 86.2904 221.253 85.6056 221.292 85.3694C221.016 85.212 219.989 84.8971 218.093 84.8971C216.197 84.8971 216.197 82.1418 216.434 80.7641C217.935 78.7567 221.008 74.4348 221.292 73.2067C221.648 71.6716 221.766 69.5461 221.292 68.2472C220.913 67.2081 220.028 66.0036 219.633 65.5313C219.554 63.7994 219.776 59.1311 221.292 54.3133C222.257 51.2489 223.912 49.0093 225.355 47.5825C225.936 44.9453 228.142 39.2458 232.313 37.5454C238.356 32.1922 253.904 23.3753 267.745 30.9327C281.585 38.49 288.285 49.1176 289.904 53.4867C292.946 59.7845 296.659 75.6629 287.179 88.7938C287.416 90.2896 288.127 93.8714 289.075 96.2331C290.023 98.5948 287.258 101.547 285.757 102.728C284.165 103.239 280.292 103.956 277.53 102.728C278.586 104.818 279.533 107.08 279.476 108.278C279.871 108.593 280.708 109.34 280.898 109.813C281.088 110.285 280.977 110.954 280.898 111.23C283.312 112.374 288.187 116.1 289.756 119.621C293.019 121.654 297.261 124.593 298.792 126.699C301.517 128.47 307.253 133.241 308.39 138.153C309.528 143.065 309.733 144.687 309.694 144.884C309.457 146.379 308.983 149.678 308.983 150.906V154.094C309.97 155.511 311.969 159.621 312.064 164.722C311.945 166.139 311.471 169.776 310.523 172.988C309.575 176.2 311.55 177.16 312.656 177.239C313.881 178.42 315.903 182.293 314.197 188.339C313.267 191.634 312.834 193.137 312.665 193.703C312.814 194.553 313.05 196.073 313.206 197.549C314.682 197.628 317.823 198.234 318.581 200.029C319.34 201.824 318.897 204.477 318.581 205.579L317.515 206.76C318.028 207.39 318.818 209.098 317.87 210.893C317.175 212.208 315.844 212.674 314.809 212.782C314.645 213.687 314.505 215.97 315.263 217.86C316.022 219.749 316.211 221.796 316.211 222.583V224H300.332H241.319L230.417 221.993C229.39 221.717 226.909 220.883 225.203 219.749C223.496 218.615 219.989 218.647 218.448 218.804C217.105 219.04 213.945 219.371 212.049 218.804C209.679 218.096 207.309 217.151 205.176 216.797C203.47 216.513 202.411 215.892 202.095 215.616L201.147 214.081L199.607 213.491L198.066 211.365C197.158 210.971 194.985 209.688 193.563 207.704C192.141 205.721 190.048 205.146 189.179 205.107C188.389 204.241 186.477 202.32 185.15 201.564C183.491 200.619 185.268 201.092 181.832 199.32C181.822 199.315 181.812 199.31 181.802 199.305L178.632 197.667C178.198 197.549 177.305 197.148 177.21 196.486C177.115 195.825 177.408 195.188 177.566 195.069L163.701 193.889L157.539 193.416L157.658 194.007L164.886 224H38.6832H35.3651L1 72.7344V57.3835L38.6832 224H164.886L157.658 194.007L157.539 193.416L151.377 192.944C147.743 192.511 140.12 191.621 138.698 191.527C136.92 191.409 133.484 190.7 131.114 190.346C129.218 190.063 129.771 189.441 130.284 189.165L131.351 189.401L138.105 190.11L145.808 190.7L156.947 191.37L173.3 192.354L178.277 192.785C177.052 191.303 173.94 187.677 171.285 185.032C167.967 181.726 159.554 168.737 158.369 166.375C155.02 160.306 148.737 149.137 145.692 144.411C144.965 143.283 144.423 142.523 144.149 142.286C143.398 141.341 141.328 139.074 139.053 137.563C136.778 136.051 135.419 131.114 135.024 128.834C134.863 128.765 134.738 128.681 134.669 128.588C134.787 128.903 134.74 129.533 133.602 129.533C132.464 129.533 131.943 128.746 131.825 128.352L130.166 124.809C129.929 124.337 129.407 123.133 129.218 122.094C129.028 121.054 130.228 120.48 130.852 120.322C130.407 118.835 129.929 117.397 129.929 117.134C129.929 116.662 130.877 115.599 131.232 115.245C131.516 114.961 135.379 114.659 137.179 114.62C137.174 114.611 137.17 114.603 137.165 114.595C137.086 114.454 137.012 114.316 136.942 114.182C135.908 113.45 133.744 111.875 133.365 111.431C132.227 111.431 130.126 112.241 129.218 112.647C128.428 113.237 126.563 114.206 125.426 113.355C124.288 112.505 124.952 111.112 125.426 110.521L128.151 109.796L112.39 104.853C108.085 103.987 99.3791 102.208 98.9999 102.019C99.0255 101.945 99.0529 101.866 99.0821 101.783C98.7387 101.744 97.886 101.547 97.2224 101.075C95.1289 100.72 90.8945 99.4686 90.7049 97.2959C90.5153 95.1231 91.5739 94.6587 92.1269 94.698L99.5924 96.3512C100.001 96.4457 100.869 96.7842 101.251 96.9416C101.82 97.0361 109.546 100.209 113.338 101.783L130.877 107.299C130.798 107.234 130.719 107.167 130.64 107.097C129.786 106.341 130.679 105.286 131.232 104.853H133.602C134.008 104.975 134.923 104.97 135.972 104.907C137.37 104.823 139.008 104.634 140.001 104.499C141.423 104.31 142.727 105.05 143.201 105.444C143.991 106.31 145.902 108.349 147.23 109.577C148.557 110.805 150.153 112.975 150.785 113.907L164.057 118.551C165.242 119.378 164.886 120.677 163.583 120.677L151.259 117.134C151.575 117.488 152.207 120.44 152.207 123.038C152.207 126.911 153.471 131.501 154.103 133.311L157.184 137.09L165.123 147.363C169.389 154.921 179.857 164.289 184.557 168.028C184.652 167.367 186.019 166.965 186.69 166.847L191.58 168.028C192.737 164.634 194.754 163.085 195.748 162.714C194.968 161.135 194.929 160.379 195.459 158.581C196.052 156.574 199.725 155.157 203.636 152.087C206.764 149.631 211.024 147.915 212.763 147.363C213.238 146.61 213.677 145.901 214.012 145.356C214.315 142.986 214.846 141.72 215.604 139.924C216.363 138.129 221.291 132.721 223.66 130.241C224.455 128.686 225.295 127.284 225.914 126.345L234.301 119.496C237.472 116 241.354 112.15 243.808 109.813Z" fill="#F8F8FD"/>
<path d="M240.845 102.137C240.845 102.137 243.02 106.699 243.808 109.813M240.845 102.137C238.04 103.436 231.649 105.774 228.521 104.735C225.393 103.696 224.373 102.806 224.255 102.492C223.939 101.941 223.331 100.154 223.425 97.414L221.648 95.7608C221.253 94.9736 220.842 93.2338 222.359 92.5725C221.569 91.7459 219.989 89.9511 219.989 89.3843C219.989 88.6757 220.937 88.2034 221.055 87.1407C221.15 86.2904 221.253 85.6056 221.292 85.3694C221.016 85.212 219.989 84.8971 218.093 84.8971C216.197 84.8971 216.197 82.1418 216.434 80.7641C217.935 78.7567 221.008 74.4348 221.292 73.2067C221.648 71.6716 221.766 69.5461 221.292 68.2472C220.913 67.2081 220.028 66.0036 219.633 65.5313C219.554 63.7994 219.776 59.1311 221.292 54.3133C222.257 51.2489 223.912 49.0093 225.355 47.5825M240.845 102.137L242.86 101.193M243.808 109.813C244.851 113.942 244.756 120.677 244.756 120.677M243.808 109.813C241.354 112.15 237.472 116 234.301 119.496M244.756 120.677L249.258 118.814M244.756 120.677L241.674 122.448C239.383 126.108 234.612 133.926 233.853 135.909C234.043 134.209 231.957 130.556 230.891 128.942C229.659 128.565 229.192 127.053 229.113 126.345C229.583 124.983 231.704 122.359 234.301 119.496M271.181 98.5948C272.208 98.9097 274.31 99.6812 274.499 100.248C274.736 100.956 271.063 104.853 266.086 108.278C262.104 111.017 254.394 115.953 251.036 118.079L249.258 118.814M271.181 100.248L268.811 87.1407V84.8971C261.322 81.3073 243.333 61.4377 235.275 51.9516C234.233 54.5022 234.841 65.0589 235.275 70.0185C234.801 69.5461 233.814 65.6494 233.379 63.76C232.621 68.011 233.063 73.7184 233.379 76.0408C232.589 74.8206 230.63 70.6561 229.113 63.76C227.597 56.8639 227.375 48.9995 227.454 45.9293C226.937 46.2158 226.181 46.7661 225.355 47.5825M225.355 47.5825C225.936 44.9453 228.142 39.2458 232.313 37.5454C238.356 32.1922 253.904 23.3753 267.745 30.9327C281.585 38.49 288.285 49.1176 289.904 53.4867C292.946 59.7845 296.659 75.6629 287.179 88.7938C287.416 90.2896 288.127 93.8714 289.075 96.2331C290.023 98.5948 287.258 101.547 285.757 102.728C284.165 103.239 280.292 103.956 277.53 102.728M271.774 98.5948L275.566 99.1852C276.098 100.059 276.837 101.356 277.53 102.728M280.898 111.23C280.977 110.954 281.088 110.285 280.898 109.813C280.709 109.34 279.871 108.593 279.476 108.278C279.533 107.08 278.586 104.818 277.53 102.728M280.898 111.23C275.25 116.544 263.716 127.762 262.768 130.123C258.818 126.599 250.586 119.402 249.258 118.814M280.898 111.23C283.426 112.428 288.655 116.459 289.957 120.12M287.179 118.079C290.22 119.811 296.801 123.959 298.792 126.699C301.517 128.47 307.253 133.241 308.39 138.153C309.528 143.065 309.733 144.687 309.694 144.884C309.457 146.379 308.983 149.678 308.983 150.906C308.983 151.772 308.983 153.622 308.983 154.094C309.97 155.511 311.969 159.621 312.064 164.722C311.945 166.139 311.471 169.776 310.523 172.988C309.575 176.2 311.55 177.16 312.656 177.239C313.881 178.42 315.903 182.293 314.197 188.339C312.49 194.385 312.459 194.4 312.656 193.652C312.805 194.492 313.047 196.043 313.206 197.549M313.367 200.029C313.367 199.324 313.301 198.445 313.206 197.549M313.206 197.549C314.682 197.628 317.823 198.234 318.581 200.029C319.34 201.824 318.897 204.477 318.581 205.579L317.515 206.76M317.515 206.76H316.211M317.515 206.76C318.028 207.39 318.818 209.098 317.87 210.893C317.175 212.208 315.844 212.674 314.809 212.782M313.841 212.782C314.094 212.814 314.432 212.822 314.809 212.782M314.809 212.782C314.645 213.687 314.505 215.97 315.263 217.86C316.022 219.749 316.211 221.796 316.211 222.583V224H300.332M300.332 224C298.831 221.678 294.455 216.466 288.956 214.199C283.458 211.932 281.293 212.31 280.898 212.782M300.332 224H241.319L230.417 221.993C229.39 221.717 226.909 220.883 225.203 219.749C223.496 218.615 219.989 218.647 218.448 218.804C217.105 219.04 213.945 219.371 212.049 218.804C209.679 218.096 207.309 217.151 205.176 216.797C203.47 216.513 202.411 215.892 202.095 215.616L201.147 214.081L199.607 213.491L198.066 211.365C197.158 210.971 194.985 209.688 193.563 207.704C192.141 205.721 190.048 205.146 189.179 205.107C188.389 204.241 186.477 202.32 185.15 201.564C183.491 200.619 185.268 201.092 181.832 199.32M280.898 212.782C280.615 211.824 280.191 209.976 280.146 208.413M280.898 212.782C275.842 212.939 264.616 213.018 260.161 212.074C255.705 211.129 252.537 210.342 251.51 210.066L243.807 208.413L236.223 205.579C234.88 204.831 231.602 203.194 229.232 202.627C226.862 202.06 224.768 199.399 224.018 198.14L216.315 191.763C215.407 191.448 213.163 190.795 211.457 190.7C209.75 190.606 205.532 189.952 203.636 189.638L199.844 191.763C198.698 191.921 195.578 192.235 195.104 194.007M280.306 206.76C280.171 207.216 280.129 207.792 280.146 208.413M280.146 208.413C278.422 206.878 274.902 203.43 274.618 201.918C274.338 200.434 273.913 192.392 273.973 187.866M274.144 185.15C274.042 185.657 273.989 186.631 273.973 187.866M273.973 187.866C272.371 186.528 269.024 182.86 268.456 178.892C265.019 178.065 257.625 176.2 255.539 175.349M195.104 194.007L204.702 194.597C205.65 194.975 209.6 195.542 211.457 195.778L217.026 197.431L216.908 198.14C216.631 198.258 215.533 198.494 213.353 198.494C211.172 198.494 209.995 198.651 209.679 198.73C208.297 198.612 205.034 198.281 203.043 197.903C201.053 197.526 199.133 196.801 198.422 196.486L189.06 195.306L177.566 195.069M195.104 194.007L189.06 193.563M181.832 199.32C179.082 197.903 179.185 196.998 179.58 196.723C179.659 196.486 179.959 196.014 180.528 196.014C181.097 196.014 181.95 196.329 182.306 196.486M181.832 199.32L178.632 197.667C178.198 197.549 177.305 197.148 177.21 196.486C177.115 195.825 177.408 195.188 177.566 195.069M177.566 195.069L163.701 193.889L157.539 193.416M198.777 203.808C197.039 203.257 193.089 202.107 191.193 201.918C188.823 201.682 190.956 201.21 186.927 200.265M234.301 119.496L225.914 126.345C225.295 127.284 224.455 128.686 223.66 130.241M221.292 137.917C221.114 135.903 222.324 132.855 223.66 130.241M223.66 130.241C221.291 132.721 216.363 138.129 215.604 139.924C214.846 141.72 214.315 142.986 214.011 145.356C213.677 145.901 213.238 146.61 212.763 147.363M209.561 152.087C210.041 151.609 211.522 149.332 212.763 147.363M212.763 147.363C211.024 147.915 206.764 149.631 203.636 152.087C199.725 155.157 196.052 156.574 195.459 158.581C194.929 160.379 194.968 161.135 195.748 162.714C194.754 163.085 192.737 164.634 191.58 168.028M191.075 169.918C191.212 169.233 191.384 168.604 191.58 168.028M191.58 168.028L186.69 166.847C186.019 166.965 184.652 167.367 184.557 168.028M184.557 168.028C185.426 169.327 187.401 174.546 188.349 185.032C189.297 195.518 189.06 193.226 189.06 193.563M184.557 168.028C179.857 164.289 169.389 154.921 165.123 147.363L157.184 137.09L154.103 133.311C153.471 131.501 152.207 126.911 152.207 123.038C152.207 120.44 151.575 117.488 151.259 117.134M189.06 193.563L183.846 193.18L178.751 192.826L178.277 192.785M151.259 117.134L145.259 115.599M151.259 117.134L163.583 120.677C164.886 120.677 165.242 119.378 164.057 118.551L150.785 113.907M148.652 120.322C147.838 119.355 146.39 117.473 145.259 115.599M141.305 131.658C141.542 132.367 141.755 132.839 140.712 129.06C139.669 125.282 140.278 121.661 140.712 120.322C140.475 118.079 139.172 117.37 138.224 116.189C137.705 115.544 137.274 114.818 136.942 114.182M145.259 115.599C144.688 114.652 144.198 113.707 143.912 112.883C143.651 112.559 142.984 111.775 142.121 110.876M142.121 110.876C141.936 110.683 141.742 110.485 141.542 110.285C140.404 109.152 139.172 108.317 138.698 108.042C138.179 107.968 137.318 107.995 136.699 108.396M142.121 110.876L150.785 113.907M150.785 113.907C150.153 112.975 148.557 110.805 147.23 109.577C145.902 108.349 143.991 106.31 143.201 105.444C142.727 105.05 141.423 104.31 140.001 104.499C139.008 104.634 137.37 104.823 135.972 104.907M136.699 108.396C136.327 108.636 136.043 109.01 135.972 109.577C135.826 110.744 135.905 111.588 136.113 112.293M136.699 108.396C135.479 108.705 133.494 108.525 132.654 108.396C132.367 108.289 131.645 107.929 130.877 107.299M136.113 112.293C136.174 112.5 136.247 112.695 136.328 112.883C136.459 113.189 136.666 113.655 136.942 114.182M136.113 112.293L133.365 111.431M112.39 104.853C112.706 104.499 113.338 103.389 113.338 101.783M112.39 104.853C108.085 103.987 99.3791 102.208 98.9999 102.019C99.0255 101.945 99.0529 101.866 99.0821 101.783M112.39 104.853L128.151 109.796M130.877 107.299C130.798 107.234 130.719 107.167 130.64 107.097C129.786 106.341 130.679 105.286 131.232 104.853H133.602C134.008 104.975 134.923 104.97 135.972 104.907M130.877 107.299L113.338 101.783M113.338 101.783C109.546 100.209 101.82 97.0361 101.251 96.9416M101.251 96.9416C100.624 97.6566 99.5928 100.33 99.0821 101.783M101.251 96.9416C100.869 96.7842 100.001 96.4457 99.5924 96.3512M99.0821 101.783C98.7387 101.744 97.886 101.547 97.2224 101.075M97.2224 101.075C97.5779 99.8544 98.5496 97.2014 99.5924 96.3512M97.2224 101.075C95.1289 100.72 90.8945 99.4686 90.7049 97.2959C90.5153 95.1231 91.5739 94.6587 92.1269 94.698L99.5924 96.3512M91.8899 97.8863C92.6404 98.398 94.4495 99.5159 95.6819 99.8937M136.942 114.182C135.908 113.45 133.744 111.875 133.365 111.431M133.365 111.431L128.151 109.796M133.365 111.431C132.227 111.431 130.126 112.241 129.218 112.647C128.428 113.237 126.563 114.206 125.426 113.355C124.288 112.505 124.952 111.112 125.426 110.521L128.151 109.796M136.942 114.536C136.957 114.609 137.163 114.535 137.179 114.62M136.942 118.433C137.397 117.733 137.376 115.679 137.179 114.62M137.179 114.62C135.379 114.659 131.516 114.961 131.232 115.245C130.877 115.599 129.929 116.662 129.929 117.134C129.929 117.397 130.407 118.835 130.852 120.322M134.669 128.588C134.384 128.21 132.496 124.967 131.588 123.392C131.535 122.713 131.204 121.502 130.852 120.322M134.669 128.588C134.787 128.903 134.74 129.533 133.602 129.533C132.464 129.533 131.943 128.746 131.825 128.352L130.166 124.809C129.929 124.337 129.407 123.133 129.218 122.094C129.028 121.054 130.228 120.48 130.852 120.322M134.669 128.588C134.738 128.681 134.863 128.765 135.024 128.834M135.024 118.197C135.308 118.575 135.869 120.952 136.113 122.094C136.61 122.566 137.987 125.4 138.224 126.226C138.461 127.053 138.224 127.88 137.513 128.588C136.941 129.157 135.682 129.117 135.024 128.834M135.024 128.834C135.419 131.114 136.778 136.051 139.053 137.563C141.328 139.074 143.398 141.341 144.149 142.286C144.423 142.523 144.965 143.283 145.692 144.411M178.277 192.785L173.3 192.354L156.947 191.37M178.277 192.785C177.052 191.303 173.94 187.677 171.285 185.032C167.967 181.726 159.554 168.737 158.369 166.375C155.02 160.306 148.737 149.137 145.692 144.411M214.011 156.574C210.592 161.022 203.612 171.429 203.043 177.475C202.332 185.032 202.806 183.97 201.858 189.638M135.972 104.907L121.515 44.2762L1 33.5305V45.457M1 57.3835L38.6832 224M1 57.3835V72.7344L35.3651 224H38.6832M1 57.3835V51.4202M38.6832 224H164.886L157.658 194.007L157.539 193.416M157.539 193.416L151.377 192.944C147.743 192.511 140.12 191.621 138.698 191.527C136.92 191.409 133.484 190.7 131.114 190.346C129.218 190.063 129.771 189.441 130.284 189.165L131.351 189.401L138.105 190.11L145.808 190.7L156.947 191.37M156.947 191.37L154.288 180.277M145.692 144.411L152.21 171.608" stroke="#27292C"/>
</svg>
