<svg width="282" height="276" viewBox="0 0 282 276" fill="none" xmlns="http://www.w3.org/2000/svg">
<rect x="39" width="224" height="224" rx="45" fill="#5EA1FA"/>
<path fill-rule="evenodd" clip-rule="evenodd" d="M182.114 89.7464C193.723 93.0237 207.391 95.4817 212.774 96.301C218.314 98.9931 232.294 109.621 243.903 130.596C255.512 151.57 266.996 175.386 271.287 184.671C274.525 190.29 281 204.359 281 215.689C281 227.019 275.851 229.539 273.276 229.383C263.251 230.593 241.329 233.737 233.839 236.64C226.349 239.543 207.859 240.815 199.551 241.088C199.356 241.121 198.755 240.902 197.912 239.758C194.33 241.142 190.392 243.211 188.199 244.482H178.369L203.53 249.281L106.516 275.148L33.6095 254.197L78.0789 246.945C77.7712 246.691 77.4589 246.38 77.1427 246.004C75.1767 243.663 71.5646 238.24 70.0042 235.821C68.99 234.026 66.6807 230.249 65.5573 229.5C64.4338 228.751 63.3728 228.876 62.9827 229.032C63.6849 229.734 65.8381 232.239 68.834 236.64C69.7256 237.95 70.6179 239.143 71.4092 240.202C73.2766 242.7 74.5808 244.445 73.9831 245.184C72.6383 246.849 70.8 247.619 68.834 247.057C66.868 246.495 63.5679 242.219 62.1636 240.151C61.8283 239.928 60.7259 238.776 59.6179 237.576C59.1888 237.732 56.9677 237.951 54.4399 237.576C51.9122 237.202 48.6277 233.129 47.3014 231.139L49.7589 235.821C34.3116 235.165 12.545 225.286 4.58727 220.136C3.18298 219.59 0.514809 216.016 1.07653 206.091C1.63825 196.165 12.1549 186.505 17.343 182.916L41.4501 158.804C43.4161 153.186 47.4184 149.596 49.1738 148.504C50.305 146.67 53.8782 141.27 59.1209 134.341C64.3636 127.412 79.0931 116.472 85.8025 111.868C91.7942 110.37 101.094 104.908 104.995 102.365C104.008 101.451 103.069 100.619 102.169 99.8218C101.49 99.22 100.834 98.6383 100.197 98.0567C98.0433 96.0903 97.193 94.1161 97.0369 93.3748C96.8809 92.2824 96.2178 89.957 94.8134 89.3952C93.4091 88.8334 92.434 87.5225 92.1219 86.9372L89.7338 82.4895L88.7282 80.6167C86.0367 77.0273 80.1854 69.1695 78.313 66.4541C76.4406 63.7386 74.5117 59.3142 73.8661 56.388C73.0913 52.8766 74.2874 44.9643 75.0363 40.4697C75.9725 34.8514 80.3024 28.1798 83.2281 24.3172C85.5686 21.2272 90.6786 17.4115 92.9411 15.8899C95.8667 14.3683 103.169 10.9739 108.974 9.56934C114.778 8.16478 124.031 9.68638 127.932 10.6228C131.793 12.8857 140.711 19.0501 145.485 25.6047C149.666 31.3442 149.885 40.9892 149.64 45.447C149.845 44.7255 150.112 44.2173 150.283 43.9811C150.868 43.5909 152.46 43.0447 154.145 43.9811C156.252 45.1515 158.709 54.8664 159.528 59.8994C160.184 63.9258 156.525 71.7212 154.613 75.1155L159.528 84.1281C160.955 84.397 163.955 85.0388 168.188 86.0709C168.223 86.0792 168.259 86.0879 168.295 86.0971C172.029 87.0087 176.712 88.2212 182.114 89.7464ZM147.709 230.554C147.739 230.31 148.083 229.979 148.585 229.617L148.762 226.34C148.762 226.34 148.364 224.787 148.389 223.18C130.999 222.75 96.2178 221.541 96.2178 220.136C96.2178 218.732 98.7923 216.508 100.08 215.572C97.8327 213.793 98.0512 202.579 98.4413 197.195C92.356 190.079 91.0687 182.012 91.1857 178.869C88.9852 176.515 87.0617 174.098 85.4287 171.796C75.6062 181.043 54.1122 200.356 46.7163 203.633L45.312 204.686C46.0141 206.091 48.8227 209.228 54.4399 210.539C60.0571 211.85 63.2558 213.66 64.153 214.401C66.3374 213.777 71.5021 212.294 74.6852 211.358C77.8683 210.422 80.3804 210.031 81.2386 209.953C85.4515 212.482 94.3454 221.775 96.2178 225.052C96.6976 225.892 97.2297 226.786 97.7739 227.7C99.3535 230.352 101.035 233.176 101.835 235.353C102.495 237.148 103.305 239.797 103.487 241.729L136.708 235.353L148.878 237.225C149.049 237.017 149.211 236.821 149.36 236.64C147.094 235.219 147.567 231.632 147.694 230.667C147.7 230.624 147.705 230.586 147.709 230.554ZM235.477 200.522C233.396 202.088 230.945 203.699 228.222 205.037C224.764 206.736 217.188 207.46 210.317 207.926C216.063 194.225 217.112 178.365 216.918 172.147C222.154 180.762 230.951 194.025 235.477 200.522Z" fill="#F8F8FD"/>
<path d="M199.551 241.088C207.859 240.815 226.349 239.543 233.839 236.64C241.329 233.737 263.251 230.593 273.276 229.383C275.851 229.539 281 227.019 281 215.689C281 204.359 274.525 190.29 271.287 184.671C266.996 175.386 255.512 151.57 243.903 130.596C232.294 109.621 218.314 98.9931 212.774 96.301C207.391 95.4817 193.723 93.0237 182.114 89.7464C176.712 88.2212 172.029 87.0087 168.295 86.0971M199.551 241.088C200.797 241.014 202.454 240.276 203.53 238.328M199.551 241.088C199.356 241.121 198.755 240.902 197.912 239.758M241.914 194.971C240.737 196.08 238.494 198.253 235.477 200.522M235.477 200.522C233.396 202.088 230.945 203.699 228.222 205.037C224.764 206.736 217.188 207.46 210.317 207.926M235.477 200.522C230.951 194.025 222.154 180.762 216.918 172.147M213.145 165.476C213.804 166.888 215.161 169.255 216.918 172.147M225.179 120.881C221.902 128.489 215.092 146.725 214.062 158.804C213.032 170.883 208.64 181.082 206.572 184.671M216.918 172.147C217.112 178.365 216.063 194.225 210.317 207.926M210.317 207.926C203.932 208.36 198.156 208.57 196.859 209.134C194.706 210.07 189.643 211.631 187.38 212.294C188.677 212.269 190.469 212.528 192.412 213.265M192.412 213.265C196.548 214.834 201.364 218.568 203.53 226.34C205.217 232.395 204.743 236.131 203.53 238.328M192.412 213.265C189.565 213.41 182.769 212.903 178.369 209.719C177.404 209.339 175.466 208.845 173.806 209.134M151.688 237.225C152.234 237.225 154.192 236.757 156.72 233.48C158.046 232.27 161.003 229.804 162.22 229.617C163.437 229.43 166.004 227.354 167.135 226.34L175.093 220.605M151.688 237.225C150.698 237.225 149.939 237.003 149.36 236.64M151.688 237.225C151.637 237.533 151.601 237.892 151.589 238.279M178.369 230.554C176.575 231.685 172.424 234.299 170.178 235.704C167.931 237.108 166.199 238.006 165.614 238.279C165.223 238.084 163.741 238.302 160.933 240.737C160.491 241.12 160.06 241.448 159.645 241.729M159.645 241.729C157.425 243.23 155.655 243.359 154.964 243.195C152.137 243.038 151.528 240.289 151.589 238.279M159.645 241.729C159.879 242.841 161.026 245.044 163.741 244.95C166.456 244.857 170.256 244.599 171.816 244.482M171.816 244.482L182.465 238.279M171.816 244.482H178.369M203.53 238.328C202.089 238.343 200.065 238.927 197.912 239.758M197.912 239.758C194.33 241.142 190.392 243.211 188.199 244.482H178.369M162.688 217.861C166.108 217.228 170.158 211.174 172.284 209.719C172.729 209.415 173.252 209.231 173.806 209.134M162.688 217.861C162.53 217.89 162.374 217.907 162.22 217.913C161.284 218.42 159.084 219.926 157.773 221.892C156.462 223.859 153.638 226.457 152.39 227.51C151.362 227.985 149.63 228.865 148.585 229.617M162.688 217.861C163.697 216.54 164.911 214.961 166.221 213.265M173.806 209.134C176.185 206.169 181.154 199.934 181.997 198.717C182.84 197.5 182.582 196.649 182.348 196.376C181.997 196.103 181.014 195.72 179.891 196.376C178.983 196.906 171.744 206.116 166.221 213.265M166.221 213.265C166.221 213.265 163.01 212.195 161.518 213.265C156.018 217.21 151.22 218.732 149.464 220.136C148.657 220.782 148.408 221.996 148.389 223.18M148.585 229.617C148.083 229.979 147.739 230.31 147.709 230.554C147.705 230.586 147.7 230.624 147.694 230.667C147.567 231.632 147.094 235.219 149.36 236.64M148.585 229.617L148.762 226.34C148.762 226.34 148.364 224.787 148.389 223.18M89.7338 82.4895L88.7282 80.6167C86.0366 77.0273 80.1854 69.1695 78.313 66.4541C76.4406 63.7386 74.5117 59.3142 73.8661 56.388C73.0913 52.8766 74.2874 44.9643 75.0363 40.4697C75.9725 34.8514 80.3024 28.1798 83.228 24.3172C85.5685 21.2272 90.6786 17.4115 92.9411 15.8899C95.8667 14.3683 103.169 10.9739 108.974 9.56934C114.778 8.16478 124.031 9.68638 127.932 10.6228C131.793 12.8857 140.711 19.0501 145.485 25.6047C149.666 31.3442 149.885 40.9892 149.64 45.447M89.7338 82.4895L92.1219 86.9372C92.434 87.5225 93.4092 88.8334 94.8134 89.3952C96.2177 89.957 96.8809 92.2824 97.0369 93.3748C97.193 94.1161 98.0433 96.0903 100.197 98.0567C100.834 98.6383 101.49 99.22 102.169 99.8218C103.069 100.619 104.008 101.451 104.995 102.365M89.7338 82.4895L85.8025 68.6779M157.539 92.7896C157.539 93.726 154.262 106.952 153.326 110.23C152.476 113.205 149.6 116.084 143.911 120.881M104.995 102.365C106.412 103.678 107.926 105.161 109.559 106.952C112.461 110.136 124.031 118.969 129.453 122.988C131.364 124.704 136.568 126.991 142.092 122.402C142.728 121.874 143.334 121.368 143.911 120.881M104.995 102.365C101.094 104.908 91.7942 110.37 85.8025 111.868M85.8025 111.868C85.7635 117.369 85.2174 129.893 83.345 135.98M85.8025 111.868C79.0931 116.472 64.3636 127.412 59.1209 134.341C53.8782 141.27 50.305 146.67 49.1738 148.504C47.4184 149.596 43.4161 153.186 41.4501 158.804L17.343 182.916C12.1549 186.505 1.63825 196.165 1.07653 206.091C0.514809 216.016 3.18298 219.59 4.58727 220.136C12.545 225.287 34.3116 235.165 49.7589 235.821M49.7589 235.821C42.831 234.978 42.4254 229.773 43.4396 227.51C46.9971 218.802 58.7308 215.142 64.153 214.401M49.7589 235.821L47.3014 231.139C48.6277 233.129 51.9122 237.202 54.4399 237.576C56.9677 237.951 59.1888 237.732 59.6179 237.576C60.7259 238.776 61.8283 239.928 62.1636 240.151M79.6003 161.73C80.6114 164.106 82.5776 167.777 85.4287 171.796M102.888 188.417C98.3957 185.774 94.4801 182.392 91.1857 178.869M85.4287 171.796C75.6062 181.043 54.1122 200.356 46.7163 203.633L45.312 204.686C46.0141 206.091 48.8227 209.228 54.4399 210.539C60.0571 211.85 63.2558 213.66 64.153 214.401M85.4287 171.796C87.0617 174.098 88.9852 176.515 91.1857 178.869M64.153 214.401C66.3374 213.777 71.5021 212.294 74.6852 211.358C77.8683 210.422 80.3804 210.031 81.2386 209.953C85.4515 212.482 94.3454 221.775 96.2178 225.052C96.6976 225.892 97.2297 226.786 97.7739 227.7C99.3535 230.352 101.035 233.176 101.835 235.353C102.495 237.148 103.305 239.797 103.487 241.729M57.5996 235.353C58.8869 236.796 61.6018 239.777 62.1636 240.151M62.1636 240.151C63.5679 242.219 66.868 246.495 68.834 247.057C70.8 247.619 72.6383 246.849 73.9831 245.184C74.5808 244.445 73.2765 242.7 71.4092 240.202C70.6179 239.143 69.7256 237.95 68.834 236.64C65.8381 232.239 63.6849 229.734 62.9827 229.032C63.3728 228.876 64.4338 228.751 65.5573 229.5C66.6807 230.249 68.99 234.026 70.0042 235.821C71.5646 238.24 75.1767 243.663 77.1427 246.004C77.4589 246.38 77.7712 246.691 78.0789 246.945M78.0789 217.796C79.8733 219.083 83.9302 222.524 85.8026 225.989C86.3055 226.919 86.7598 227.817 87.1805 228.681M87.1805 228.681C88.7179 231.836 89.8075 234.526 91.1857 236.64C92.3821 238.475 93.4087 241.743 93.7587 243.78M87.1805 228.681C89.1124 229.529 94.4359 237.937 97.5502 243.195M91.1857 178.869C91.0687 182.012 92.356 190.079 98.4413 197.195C98.0512 202.579 97.8327 213.793 100.08 215.572C98.7923 216.508 96.2178 218.732 96.2178 220.136C96.2178 221.541 130.999 222.75 148.389 223.18M103.487 241.729C103.602 242.946 103.467 243.878 102.888 244.131C101.39 244.786 99.2994 244.794 98.4413 244.716C98.1721 244.251 97.873 243.74 97.5502 243.195M103.487 241.729L136.708 235.353L148.878 237.225M149.36 236.64C149.211 236.821 149.049 237.017 148.878 237.225M151.589 238.279L144.549 244.716C143.847 245.021 142.653 245.331 143.496 244.131C143.754 243.529 146.937 239.586 148.878 237.225M97.5502 243.195L93.7587 243.78M93.7587 243.78C93.8196 244.134 93.86 244.451 93.8773 244.716C93.7837 248.368 89.3913 247.798 87.2069 247.057L86.3281 245.338M78.0789 246.945C80.1627 248.663 82.0345 247.771 83.4621 247.057C84.2068 246.685 84.6089 246.144 84.8102 245.653M78.0789 246.945L33.6095 254.197L106.516 275.148L203.53 249.281L178.369 244.482M84.8102 245.653C84.9633 245.279 85.0002 244.935 84.9834 244.716C84.1252 243.195 81.8705 239.449 79.7173 236.64C77.564 233.831 75.4654 229.383 74.6852 227.51L70.7064 223.18C72.3447 224.194 75.8555 226.714 76.7917 228.681C77.7279 230.647 82.3308 238.24 84.5153 241.79L86.3281 245.338M84.8102 245.653L86.3281 245.338M143.911 120.881C154.916 117.978 161.404 112.57 163.273 110.23C164.911 108.786 168.96 104.096 172.05 96.8862C175.097 89.7752 170.881 86.7552 168.295 86.0971M149.64 45.447C149.845 44.7255 150.112 44.2173 150.283 43.9811C150.868 43.5909 152.46 43.0447 154.145 43.9811C156.252 45.1515 158.709 54.8664 159.528 59.8994C160.183 63.9258 156.525 71.7212 154.613 75.1155L159.528 84.1281C160.955 84.397 163.955 85.0388 168.188 86.0709C168.223 86.0792 168.259 86.0879 168.295 86.0971M149.64 45.447C149.536 47.3529 149.347 48.3106 149.347 47.6095C149.347 46.7677 149.473 46.0362 149.64 45.447Z" stroke="#27292C"/>
</svg>
