<svg width="273" height="442" viewBox="0 0 273 442" fill="none" xmlns="http://www.w3.org/2000/svg">
<rect y="115" width="224" height="224" rx="45" fill="#5EA1FA"/>
<path d="M127.847 219.075C126.123 227.702 123.715 237.047 122.727 240.642C126.949 253.671 135.123 279.676 134.045 279.46C132.967 279.245 123.895 286.38 119.494 289.974L115.452 291.861C115.182 300.038 114.266 317.686 112.757 322.862C114.194 324.21 115.937 329.332 114.643 333.645C113.386 334.544 111.248 336.88 112.757 339.037C114.643 341.733 118.955 341.733 119.494 341.733C119.925 341.733 119.673 371.026 119.494 385.673C122.727 388.908 124.614 397.984 125.153 402.117L119.494 405.352V412.901C120.033 413.889 120.787 417.807 119.494 425.571C118.2 433.334 114.464 434.736 112.757 434.467C108.984 434.377 101.439 433.712 101.439 431.771C101.439 429.83 106.469 418.382 108.984 412.901C107.691 408.803 107.188 399.152 107.098 394.839C105.841 390.256 102.948 379.743 101.439 374.351C99.5528 367.612 99.8223 355.481 96.5886 351.437C94.0017 348.202 93.355 343.62 93.355 341.733L90.4573 308.109H88.4652C88.0025 313.559 77.8792 330.998 72.8753 339.037V344.967C72.8753 351.869 67.8452 373.363 65.3302 383.247C65.3302 385.494 64.8451 391.82 62.9049 399.152C60.9647 406.485 62.0965 414.788 62.9049 418.022L67.2163 423.144C66.4079 424.582 63.6593 427.565 59.1322 427.997V434.467C57.8747 435.904 46.943 441.666 45.1197 440.936C43.7724 440.397 44.096 434.251 47.5451 427.997C47.6349 425.133 47.9761 418.943 48.6228 417.096C47.996 416.678 47.6614 416.238 47.5451 415.866L49.4313 399.152L51.8565 371.925V347.394L53.4733 336.341V319.627C54.0123 315.853 55.3597 307.173 56.4376 302.644C57.5155 298.115 61.1983 290.154 62.9049 286.739C63.2642 283.414 64.2523 276.172 65.3302 273.799C65.6895 270.924 66.7314 264.472 68.0249 261.668C68.6503 260.313 68.9649 257.936 69.1028 255.477L66.6775 261.668L55.0903 279.46L41.0778 298.6C40.7341 298.299 40.3732 298.028 39.9999 297.784C39.1914 300.12 37.0355 306.148 34.8798 308.305C32.7242 310.462 32.9039 313.337 33.2631 314.505L31.3767 315.314V317.471H28.6821V319.627H22.7538L22.7466 316.662C22.4851 316.956 22.2172 317.229 21.9454 317.471C20.0052 319.196 19.8794 317.65 20.0591 316.662L24.3706 308.109C23.5241 307.812 22.9766 307.292 22.7538 306.957L26.2569 305.609L28.6821 301.296L32.1853 295.751C34.3944 295.721 37.4804 296.136 39.9999 297.784C40.3732 298.028 40.7341 298.299 41.0778 298.6C35.904 291.484 31.7361 292.041 30.299 293.209C32.7242 289.435 38.0597 281.401 39.9999 279.46C42.4252 277.034 46.1977 266.521 47.5451 262.747C48.8924 258.973 53.4734 250.616 56.4376 245.763C58.809 241.882 62.4558 233.363 63.9828 229.589C66.0488 226.624 70.1806 220.369 70.1806 219.075V214.493C73.5041 213.953 80.6361 213.199 82.5763 214.493H86.5168L87.5574 205.597L83.9235 200.205L82.5763 193.735V188.344C84.3728 185.648 87.4268 180.257 90.6604 180.257H99.2833L102.786 183.899C104.182 185.186 105.355 186.796 105.919 188.344C106.862 190.932 107.098 197.33 107.098 200.205L105.919 202.362L105.212 204.249H107.098H110.871L114.374 201.283H119.494L126.769 193.735L141.321 178.909C145.273 174.146 153.609 164.513 155.333 164.082C155.473 164.047 155.641 164.048 155.833 164.082C158.451 161.027 163.902 154.701 164.765 153.838V145.212L169.615 138.472L172.579 139.281L175.544 140.09L177.699 143.055V146.829L174.196 151.142L172.849 155.456L170.693 159.499C169.076 162.795 165.627 169.584 164.765 170.374C165.159 170.727 165.522 171.061 165.843 171.361L151.022 188.344C149.495 192.118 145.417 200.583 141.321 204.249C137.225 207.915 130.632 215.661 127.847 219.075Z" fill="#F8F8FD"/>
<path d="M105.212 204.249H107.098H110.871L114.374 201.283H119.494L126.769 193.735L141.321 178.909C145.273 174.146 153.609 164.513 155.333 164.082C155.473 164.047 155.641 164.048 155.833 164.082M105.212 204.249L97.9361 206.945C95.6007 208.472 90.876 211.797 90.6604 212.875C90.618 213.087 90.5472 213.664 90.4573 214.493M105.212 204.249L105.919 202.362M119.494 289.974L112.757 269.217L107.098 268.138L105.919 265.442M119.494 289.974C123.895 286.38 132.967 279.245 134.045 279.46C135.123 279.676 126.949 253.671 122.727 240.642C123.715 237.047 126.123 227.702 127.847 219.075C130.632 215.661 137.225 207.915 141.321 204.249C145.417 200.583 149.495 192.118 151.022 188.344L165.843 171.361C165.522 171.061 165.159 170.727 164.765 170.374M119.494 289.974L115.452 291.861C115.182 300.038 114.266 317.686 112.757 322.862C114.194 324.21 115.937 329.332 114.643 333.645C113.386 334.544 111.248 336.88 112.757 339.037C114.643 341.733 118.955 341.733 119.494 341.733C119.925 341.733 119.673 371.026 119.494 385.673C122.727 388.908 124.614 397.984 125.153 402.117L119.494 405.352V412.901M90.6604 251.792C88.7229 247.864 86.9879 243.315 86.0794 240.642L88.4652 231.745M90.6604 251.792C91.9796 254.467 93.3926 256.854 94.7025 258.164C97.9361 261.399 103.056 263.286 105.212 263.825L105.919 265.442M90.6604 251.792C89.9892 256.471 88.7126 264.651 87.5574 270.295M62.9049 286.739C70.0908 284.313 84.786 278.76 86.0794 275.956C86.4941 275.057 87.0123 272.958 87.5574 270.295M62.9049 286.739C63.2642 283.414 64.2523 276.172 65.3302 273.799M62.9049 286.739C61.1983 290.154 57.5155 298.115 56.4376 302.644C55.3597 307.173 54.0123 315.853 53.4733 319.627V336.341L51.8565 347.394V371.925L49.4313 399.152L47.5451 415.866C47.6614 416.238 47.996 416.678 48.6228 417.096M65.3302 273.799C66.408 271.427 70.8094 265.442 72.8753 262.747M65.3302 273.799C65.6895 270.924 66.7314 264.472 68.0249 261.668C68.6503 260.313 68.9649 257.936 69.1028 255.477M65.3302 281.887L74.7616 266.521M63.9828 229.589C64.4319 232.734 65.3302 239.617 65.3302 241.989C65.3302 244.362 67.8452 247.291 69.1028 248.459C69.1955 250.13 69.25 252.851 69.1028 255.477M63.9828 229.589C66.0488 226.624 70.1806 220.369 70.1806 219.075M63.9828 229.589C62.4558 233.363 58.809 241.882 56.4376 245.763C53.4735 250.616 48.8924 258.973 47.5451 262.747C46.1977 266.521 42.4252 277.034 39.9999 279.46C38.0597 281.401 32.7242 289.435 30.299 293.209C31.7361 292.041 35.904 291.484 41.0778 298.6M70.1806 219.075C70.1806 217.458 71.2585 222.58 75.5701 226.084M70.1806 219.075V214.493C73.5041 213.953 80.6361 213.199 82.5763 214.493M75.5701 226.084C79.0193 228.888 85.604 231.027 88.4652 231.745M75.5701 226.084C74.4922 220.693 76.0192 218.446 76.9174 217.997C79.6121 217.368 84.5165 215.787 82.5763 214.493M88.4652 231.745L89.0436 229.589C89.4044 225.474 90.0899 217.879 90.4573 214.493M82.5763 214.493H86.5168M90.4573 214.493H86.5168M41.0778 298.6L55.0903 279.46L66.6775 261.668L69.1028 255.477M41.0778 298.6C38.414 296.269 34.7217 295.716 32.1853 295.751M32.1853 293.209L30.299 295.905C30.7899 295.823 31.4373 295.761 32.1853 295.751M32.1853 295.751L28.6821 301.296L26.2569 305.609L22.7538 306.957C22.9766 307.292 23.5241 307.812 24.3706 308.109M33.2631 302.644L32.1853 304.531L30.299 305.609C29.76 306.418 28.1971 308.089 26.2569 308.305C25.5199 308.387 24.8892 308.29 24.3706 308.109M24.3706 308.109L20.0591 316.662C19.8794 317.65 20.0052 319.196 21.9454 317.471C22.2172 317.229 22.4851 316.956 22.7466 316.662M26.2569 311.001C25.7162 312.237 24.3519 314.856 22.7466 316.662M39.9999 297.784C39.1914 300.12 37.0355 306.148 34.8798 308.305C32.7242 310.462 32.9039 313.337 33.2631 314.505L31.3767 315.314V317.471H28.6821V319.627H22.7538L22.7466 316.662M87.5574 270.295C92.3869 268.677 102.82 265.442 105.919 265.442M155.833 164.082C158.451 161.027 163.902 154.701 164.765 153.838M155.833 164.082C157.737 164.415 162.011 167.902 164.765 170.374M164.765 153.838C165.843 155.635 168.537 159.284 170.693 159.499M164.765 153.838V145.212L169.615 138.472M170.693 159.499C169.076 162.795 165.627 169.584 164.765 170.374M170.693 159.499L172.849 155.456L174.196 151.142L177.699 146.829V143.055L175.544 140.09L172.579 139.281M169.615 138.472C168.358 136.406 165.843 131.571 165.843 128.768M169.615 138.472L172.579 139.281M167.998 148.447L172.849 145.212L174.196 146.829L170.693 151.142V153.838M86.5168 214.493L87.5574 205.597M87.5574 205.597V198.588M87.5574 205.597L83.9235 200.205L82.5763 193.735V188.344C84.3728 185.648 87.4268 180.257 90.6604 180.257C93.8941 180.257 97.7564 180.257 99.2833 180.257L102.786 183.899M97.9361 181.335C99.4819 181.475 101.266 182.496 102.786 183.899M107.098 200.205C107.098 197.33 106.862 190.932 105.919 188.344C105.355 186.796 104.182 185.186 102.786 183.899M107.098 200.205C106.559 200.025 104.942 199.45 102.786 198.588C100.631 197.725 98.6547 198.228 97.9361 198.588L94.7025 200.205M107.098 200.205L105.919 202.362M105.919 202.362C102.899 202.541 96.6424 203.17 95.7802 204.249M172.579 139.281C184.616 119.332 209.766 76.9011 213 70M62.9049 418.022C62.0965 414.788 60.9647 406.485 62.9049 399.152C64.8451 391.82 65.3302 385.494 65.3302 383.247C67.8452 373.363 72.8753 351.869 72.8753 344.967V339.037C77.8792 330.998 88.0025 313.559 88.4652 308.109H90.4573L93.355 341.733C93.355 343.62 94.0017 348.202 96.5886 351.437C99.8223 355.481 99.5528 367.612 101.439 374.351C102.948 379.743 105.841 390.256 107.098 394.839C107.188 399.152 107.691 408.803 108.984 412.901M62.9049 418.022L67.2163 423.144C66.4079 424.582 63.6593 427.565 59.1322 427.997V434.467C57.8747 435.904 46.943 441.666 45.1197 440.936C43.7724 440.397 44.096 434.251 47.5451 427.997C47.6349 425.133 47.9761 418.943 48.6228 417.096M62.9049 418.022C54.599 419.301 50.4156 418.29 48.6228 417.096M108.984 412.901C106.469 418.382 101.439 429.83 101.439 431.771C101.439 433.712 108.984 434.377 112.757 434.467C114.464 434.736 118.2 433.334 119.494 425.571C120.787 417.807 120.033 413.889 119.494 412.901M108.984 412.901C113.511 414.195 117.877 413.44 119.494 412.901" stroke="#27292C"/>
<path d="M175.631 68.571C173.905 61.4611 178.148 56.8109 180.485 55.3746C176.8 52.7712 170.238 45.0868 173.474 35.176C176.71 25.2653 184.17 23.5058 187.495 23.8648C189.746 23.5022 194.168 23.7607 196.921 26.8273C196.656 22.0694 197.688 11.0455 203.943 5.01284C210.199 -1.01979 218.953 1.0629 222.549 2.85833C224.594 3.39696 229.023 5.87466 230.368 11.4764C231.56 16.4369 231.341 16.8358 231.002 16.3011C231.37 16.9812 231.715 17.6922 232.027 18.4236C232.568 15.659 235.961 9.69891 245.198 7.97531C254.436 6.25171 258.934 14.2227 260.029 18.4236C269.725 21.779 270.452 31.972 269.466 37.0612C269.216 38.8507 267.402 42.6271 264.882 46.4321C269.736 49.5925 276.962 59.0911 267.039 71.8028C267.489 77.5481 264.451 89.4698 248.704 91.1934C232.957 92.917 226.324 77.9072 224.975 70.1869C217.641 73.8496 210.879 70.6357 208.415 68.571C208.375 69.1799 208.319 69.7299 208.258 70.1869C208.078 71.0846 206.424 73.9573 201.247 78.2663C196.07 82.5753 187.585 81.4981 183.99 80.4208C181.923 79.4333 177.357 75.6809 175.631 68.571Z" fill="#F8F8FD"/>
<path d="M100.671 298.835L102.559 328.19L103.907 336M64 302.605L79.3695 293.718M180.485 55.3746C178.148 56.8109 173.905 61.4611 175.631 68.571C177.357 75.6809 181.923 79.4333 183.99 80.4208C187.585 81.4981 196.07 82.5753 201.247 78.2663C206.424 73.9573 208.078 71.0846 208.258 70.1869C208.319 69.7299 208.375 69.1799 208.415 68.571M180.485 55.3746C186.74 60.7609 198.73 58.5166 203.943 56.7212M180.485 55.3746C176.8 52.7712 170.238 45.0868 173.474 35.176C176.71 25.2653 184.17 23.5058 187.495 23.8648C189.746 23.5022 194.168 23.7607 196.921 26.8273M203.943 56.7212L206.64 59.4143C208.431 61.2032 208.611 65.5916 208.415 68.571M203.943 56.7212C207.395 54.5667 207.179 48.6417 206.64 45.9486M198.551 29.5204C197.921 31.8545 198.658 38.4078 206.64 45.9486M198.551 29.5204C199.09 24.1342 202.002 12.4998 209.336 9.05256C216.67 5.60533 223.537 8.33439 226.054 10.1298C227.458 11.0837 229.337 13.2992 230.867 16.0547M198.551 29.5204C198.136 28.4444 197.576 27.5564 196.921 26.8273M206.64 45.9486C208.617 48.1929 213.003 52.9508 214.729 54.028C216.455 55.1053 216.886 53.3996 216.886 52.4121C221.628 49.255 226.236 46.1833 229.503 40.5623M196.921 26.8273C196.656 22.0694 197.688 11.0455 203.943 5.01284C210.199 -1.01979 218.953 1.0629 222.549 2.85833C224.594 3.39696 229.023 5.87466 230.368 11.4764C231.714 17.0781 231.261 16.8627 230.867 16.0547M230.867 16.0547C231.285 16.8088 231.678 17.6034 232.027 18.4236M208.415 68.571C210.879 70.6357 217.641 73.8496 224.975 70.1869M224.975 70.1869C232.31 66.5242 232.835 65.9031 235.222 58.0678M224.975 70.1869C226.324 77.9072 232.957 92.917 248.704 91.1934C264.451 89.4698 267.489 77.5481 267.039 71.8028M235.222 58.0678C231.716 56.7212 229.503 52.4121 229.02 50.527C227.896 46.1386 229.432 41.9987 229.503 40.5623M235.222 58.0678C238.389 58.0678 242.541 58.0678 246.277 57.8884M229.503 40.5623C229.803 40.0459 230.092 39.5079 230.368 38.9464C232.054 35.5234 233.228 32.5881 233.651 29.5204M233.651 29.5204C233.995 27.026 233.843 24.444 233.065 21.441C232.799 20.4155 232.444 19.4013 232.027 18.4236M233.651 29.5204C236.242 24.6728 244.551 15.5161 257.063 17.6706C258.134 17.8551 259.121 18.1094 260.029 18.4236M260.029 18.4236C269.725 21.779 270.452 31.972 269.466 37.0612C269.216 38.8507 267.402 42.6271 264.882 46.4321M260.029 18.4236C258.934 14.2227 254.436 6.25171 245.198 7.97531C235.961 9.69891 232.568 15.659 232.027 18.4236M264.882 46.4321C261.967 50.8352 258.107 55.2765 254.636 56.7212C253.053 57.38 249.856 57.7165 246.277 57.8884M264.882 46.4321C269.736 49.5925 276.962 59.0911 267.039 71.8028M267.039 71.8028C263.264 67.1051 253.827 57.7455 246.277 57.8884" stroke="#27292C"/>
</svg>
