<svg width="296" height="17" viewBox="0 0 296 17" fill="none" xmlns="http://www.w3.org/2000/svg">
<path d="M12.5518 12.7493H4.26379L2.55113 16.7498H0.257385L7.32211 0.779297H9.5241L16.6194 16.7498H14.2645L12.5518 12.7493ZM11.7873 10.9054L8.42311 3.09205L5.05895 10.9054H11.7873Z" fill="white"/>
<path d="M40.1073 16.7185L40.0767 5.09226L34.4188 14.7808H33.379L27.7823 5.15477V16.7185H25.6414V0.779297H27.4764L33.9907 11.9993L40.4131 0.779297H42.2481L42.2787 16.7498H40.1073V16.7185Z" fill="white"/>
<path d="M64.4821 2.2482C65.6443 3.24831 66.2254 4.59221 66.2254 6.3424C66.2254 8.06133 65.6443 9.43648 64.4821 10.4366C63.32 11.4367 61.7296 11.9055 59.7111 11.9055H55.8577V16.7185H53.6251V0.779297H59.7111C61.7296 0.779297 63.32 1.2481 64.4821 2.2482ZM62.8918 8.99893C63.6258 8.37387 63.9928 7.49877 63.9928 6.3424C63.9928 5.18602 63.6258 4.31093 62.8918 3.68586C62.1578 3.06079 61.0568 2.74826 59.65 2.74826H55.8577V9.90528H59.65C61.0568 9.90528 62.1272 9.59275 62.8918 8.99893Z" fill="white"/>
<path d="M76.1955 0.779297H78.4281V14.7495H86.8691V16.7185H76.1955V0.779297Z" fill="white"/>
<path d="M96.1358 0.779297H98.3683V16.7185H96.1358V0.779297Z" fill="white"/>
<path d="M111.978 2.74826V8.31136H119.807V10.2803H111.978V16.7185H109.745V0.779297H120.755V2.74826H111.978Z" fill="white"/>
<path d="M130.603 0.779297H132.836V16.7185H130.603V0.779297Z" fill="white"/>
<path d="M155.559 14.7495V16.7185H144.213V0.779297H155.223V2.74826H146.445V7.65504H154.274V9.59274H146.445V14.7495H155.559Z" fill="white"/>
<path d="M165.865 0.779297H172.441C174.092 0.779297 175.56 1.12308 176.845 1.7794C178.129 2.43572 179.108 3.37333 179.811 4.59221C180.515 5.81109 180.882 7.18624 180.882 8.7489C180.882 10.3116 180.515 11.6867 179.811 12.9056C179.108 14.1245 178.099 15.0621 176.845 15.7184C175.56 16.3747 174.092 16.7185 172.441 16.7185H165.865V0.779297ZM172.319 14.7495C173.572 14.7495 174.704 14.4995 175.652 13.9995C176.6 13.4994 177.365 12.7806 177.885 11.9055C178.405 10.9991 178.68 9.96779 178.68 8.78016C178.68 7.59253 178.405 6.56117 177.885 5.65482C177.365 4.74847 176.631 4.0609 175.652 3.56085C174.704 3.06079 173.572 2.81077 172.319 2.81077H168.098V14.8121H172.319V14.7495Z" fill="white"/>
<path d="M201.862 1.99839C203.116 2.81097 203.758 4.02985 203.789 5.62378V5.90506H199.171V5.78004C199.171 5.31124 199.018 4.9362 198.681 4.65492C198.345 4.34239 197.856 4.18612 197.183 4.18612C196.54 4.18612 196.021 4.27988 195.684 4.4674C195.348 4.65492 195.164 4.90495 195.164 5.18623C195.164 5.59252 195.409 5.90506 195.868 6.09258C196.357 6.2801 197.122 6.49887 198.161 6.71764C199.385 6.96767 200.424 7.24895 201.22 7.53023C202.015 7.81151 202.718 8.28031 203.299 8.90538C203.88 9.53045 204.186 10.4055 204.217 11.4994C204.217 13.3434 203.605 14.7185 202.382 15.6249C201.159 16.5312 199.507 16.9687 197.458 16.9687C195.072 16.9687 193.207 16.5625 191.861 15.7499C190.516 14.9373 189.873 13.4684 189.873 11.4056H194.522C194.522 12.187 194.736 12.7183 195.134 12.9996C195.531 13.2808 196.173 13.4059 196.999 13.4059C197.611 13.4059 198.131 13.3434 198.559 13.1871C198.957 13.0621 199.171 12.7808 199.171 12.3432C199.171 11.9682 198.956 11.6869 198.498 11.4994C198.039 11.3119 197.305 11.0931 196.265 10.9056C195.011 10.6243 193.971 10.343 193.176 10.0618C192.351 9.78047 191.647 9.28042 191.035 8.59285C190.424 7.90527 190.118 6.96767 190.118 5.8113C190.118 4.09236 190.76 2.84223 192.075 2.02964C193.39 1.21705 195.011 0.810758 197.03 0.810758C198.987 0.779504 200.608 1.1858 201.862 1.99839Z" fill="#FFC20A"/>
<path d="M224.555 1.71687C225.289 2.15442 225.87 2.77948 226.298 3.56082C226.726 4.34215 226.91 5.21725 226.91 6.1861V6.46738C226.91 7.43623 226.695 8.31133 226.298 9.12392C225.87 9.90525 225.289 10.5303 224.555 10.9679C223.821 11.4054 222.964 11.6554 222.016 11.6554H218.346V16.7185H213.422V1.0293H222.047C222.964 1.0293 223.79 1.27932 224.555 1.71687ZM218.316 7.9988H220.334C220.854 7.9988 221.252 7.87378 221.496 7.5925C221.741 7.31122 221.894 6.93618 221.894 6.46738V6.27986C221.894 5.77981 221.772 5.40477 221.496 5.15474C221.221 4.90471 220.854 4.74845 220.334 4.74845H218.316V7.9988Z" fill="#FFC20A"/>
<path d="M244.587 16.7185L243.944 14.4995H238.562L237.92 16.7185H232.873L238.47 1.0293H244.189L249.786 16.7185H244.587ZM239.571 10.9991H242.905L241.284 5.40477H241.192L239.571 10.9991Z" fill="#FFC20A"/>
<path d="M270.644 2.49823C271.959 3.65461 272.631 5.31104 272.631 7.46752H267.922C267.922 6.56117 267.677 5.84234 267.218 5.31104C266.759 4.77973 266.087 4.49845 265.23 4.49845C264.221 4.49845 263.487 4.81098 263.028 5.4673C262.57 6.09237 262.325 6.99872 262.325 8.12384V9.59275C262.325 10.7179 262.57 11.593 263.028 12.2493C263.487 12.9056 264.221 13.2181 265.169 13.2181C266.117 13.2181 266.851 12.9681 267.341 12.4681C267.83 11.968 268.075 11.2492 268.075 10.3428H272.631C272.631 12.4993 271.989 14.1245 270.705 15.2809C269.42 16.406 267.585 16.9998 265.261 16.9998C262.631 16.9998 260.673 16.3122 259.328 14.9371C257.982 13.5619 257.309 11.5617 257.309 8.87392C257.309 6.18613 257.982 4.18592 259.328 2.81077C260.673 1.43562 262.661 0.748047 265.261 0.748047C267.524 0.7793 269.328 1.34186 270.644 2.49823Z" fill="#FFC20A"/>
<path d="M281.99 1.0293H295.263V4.7797H286.914V6.93618H294.04V10.5303H286.914V12.9368H295.416V16.6872H281.99V1.0293Z" fill="#FFC20A"/>
</svg>
