<svg width="211" height="160" viewBox="0 0 211 160" fill="none" xmlns="http://www.w3.org/2000/svg">
<path d="M65.8879 17.1843C65.8879 21.5707 64.3339 25.3637 61.226 28.5631C58.1181 31.711 53.5857 33.9816 47.6289 35.3749C50.8404 36.2522 53.2749 37.6971 54.9325 39.7097C56.59 41.6707 57.4188 43.9413 57.4188 46.5215C57.4188 50.5983 56.1239 54.1332 53.5339 57.1263C50.9958 60.1193 47.2663 62.4415 42.3454 64.0929C37.4245 65.6926 31.4936 66.4925 24.5526 66.4925C21.9626 66.4925 19.8907 66.4151 18.3367 66.2603C18.2849 67.7052 17.6633 68.7889 16.472 69.5114C15.2806 70.2338 13.7525 70.5951 11.8878 70.5951C10.023 70.5951 8.72808 70.1822 8.00289 69.3566C7.32951 68.5309 7.04462 67.3182 7.14821 65.7184C7.6144 58.4938 8.52088 50.9337 9.86764 43.0382C11.2144 35.0911 12.9238 27.4278 14.9957 20.0484C15.3583 18.7583 16.0835 17.8552 17.1713 17.3391C18.259 16.8231 19.6835 16.5651 21.4446 16.5651C24.6044 16.5651 26.1842 17.4424 26.1842 19.1969C26.1842 19.9194 26.0288 20.745 25.718 21.6739C24.3713 25.6991 23.0245 31.1692 21.6777 38.0842C20.331 44.9476 19.3727 51.5014 18.8029 57.7455C21.2893 57.9519 23.3094 58.0552 24.8634 58.0552C32.1152 58.0552 37.4245 57.0231 40.7914 54.9589C44.2102 52.8431 45.9195 50.1597 45.9195 46.9086C45.9195 44.638 44.9353 42.7286 42.967 41.1805C41.0504 39.6323 37.813 38.7808 33.2547 38.626C32.2188 38.5744 31.4936 38.3164 31.0792 37.852C30.6648 37.3875 30.4576 36.6393 30.4576 35.6072C30.4576 34.1106 30.7684 32.8979 31.39 31.969C32.0116 31.0402 33.1511 30.5499 34.8087 30.4983C38.4864 30.3951 41.8015 29.8532 44.754 28.8728C47.7584 27.8923 50.1152 26.5248 51.8246 24.7702C53.5339 22.964 54.3886 20.8741 54.3886 18.5002C54.3886 15.5072 52.9123 13.1592 49.9598 11.4562C47.0073 9.70166 42.4749 8.82438 36.3627 8.82438C30.8202 8.82438 25.459 9.54685 20.2792 10.9918C15.0993 12.3851 10.6964 14.1655 7.07052 16.3329C5.41296 17.3133 4.0144 17.8036 2.87483 17.8036C1.94245 17.8036 1.21727 17.494 0.699282 16.8747C0.233094 16.2038 0 15.3782 0 14.3977C0 13.1076 0.258993 11.9981 0.77698 11.0692C1.34677 10.1403 2.66763 9.08241 4.73958 7.8955C9.09066 5.41848 14.1928 3.48331 20.0461 2.08999C25.8993 0.696662 31.8821 0 37.9943 0C47.3699 0 54.3627 1.57394 58.9728 4.72182C63.5829 7.8697 65.8879 12.0239 65.8879 17.1843Z" fill="#FCF7F7"/>
<path d="M98.365 49.463C99.0384 49.463 99.5564 49.7726 99.919 50.3919C100.333 51.0111 100.541 51.8626 100.541 52.9463C100.541 55.0105 100.049 56.6102 99.0643 57.7455C97.1478 60.0677 94.4284 62.2093 90.906 64.1703C87.4355 66.1313 83.706 67.1118 79.7175 67.1118C74.2787 67.1118 70.0571 65.641 67.0528 62.6996C64.0484 59.7581 62.5463 55.7329 62.5463 50.6241C62.5463 47.0634 63.2974 43.7607 64.7995 40.716C66.3017 37.6197 68.3736 35.1685 71.0154 33.3624C73.7089 31.5562 76.7391 30.6531 80.106 30.6531C83.1103 30.6531 85.519 31.5562 87.3319 33.3624C89.1449 35.1169 90.0514 37.5165 90.0514 40.5612C90.0514 44.1219 88.7564 47.1924 86.1665 49.7726C83.6283 52.3012 79.3031 54.3138 73.1909 55.8104C74.4859 58.1842 76.9463 59.3711 80.5722 59.3711C82.9031 59.3711 85.5449 58.5712 88.4974 56.9715C91.5017 55.3201 94.0917 53.1785 96.2672 50.5467C96.8888 49.8242 97.5881 49.463 98.365 49.463ZM78.7851 38.239C76.8686 38.239 75.2369 39.3485 73.8902 41.5675C72.5952 43.7865 71.9477 46.4699 71.9477 49.6178V49.7726C75.0039 49.0502 77.4125 47.9665 79.1736 46.5215C80.9348 45.0766 81.8154 43.3995 81.8154 41.4901C81.8154 40.5096 81.5305 39.7355 80.9607 39.1679C80.4427 38.5486 79.7175 38.239 78.7851 38.239Z" fill="#FCF7F7"/>
<path d="M103.392 67.1118C100.18 67.1118 97.6162 65.9507 95.6996 63.6284C93.7831 61.3062 92.8248 58.2616 92.8248 54.4944C92.8248 50.3661 93.7831 46.4699 95.6996 42.806C97.6162 39.0905 100.154 36.1232 103.314 33.9042C106.526 31.6336 109.918 30.4983 113.492 30.4983C114.632 30.4983 115.383 30.7305 115.746 31.195C116.16 31.6078 116.497 32.3819 116.756 33.5172C117.844 33.3108 118.983 33.2076 120.175 33.2076C122.713 33.2076 123.982 34.1106 123.982 35.9168C123.982 37.0005 123.593 39.5807 122.816 43.6575C121.625 49.592 121.029 53.7204 121.029 56.0426C121.029 56.8166 121.21 57.4359 121.573 57.9003C121.987 58.3648 122.505 58.597 123.127 58.597C124.111 58.597 125.303 57.9777 126.701 56.7392C128.1 55.4491 129.99 53.3849 132.373 50.5467C132.995 49.8242 133.694 49.463 134.471 49.463C135.144 49.463 135.662 49.7726 136.025 50.3919C136.439 51.0111 136.646 51.8626 136.646 52.9463C136.646 55.0105 136.154 56.6102 135.17 57.7455C133.046 60.3774 130.793 62.5964 128.411 64.4025C126.028 66.2087 123.723 67.1118 121.495 67.1118C119.786 67.1118 118.206 66.5441 116.756 65.4088C115.357 64.2219 114.295 62.6222 113.57 60.6096C110.877 64.9444 107.484 67.1118 103.392 67.1118ZM106.189 59.2937C107.328 59.2937 108.416 58.6228 109.452 57.2811C110.488 55.9394 111.239 54.159 111.705 51.94L114.58 37.6971C112.405 37.7487 110.385 38.5744 108.52 40.1742C106.707 41.7223 105.257 43.7865 104.169 46.3667C103.081 48.9469 102.537 51.682 102.537 54.5718C102.537 56.1716 102.848 57.3585 103.469 58.1326C104.143 58.9066 105.049 59.2937 106.189 59.2937Z" fill="#FCF7F7"/>
<path d="M135.848 67.1118C133.88 67.1118 132.481 66.0797 131.653 64.0155C130.876 61.9513 130.487 58.6486 130.487 54.1074C130.487 47.3988 131.445 41.0256 133.362 34.9879C133.828 33.4914 134.579 32.4077 135.615 31.7368C136.703 31.0144 138.205 30.6531 140.122 30.6531C141.158 30.6531 141.883 30.7821 142.297 31.0402C142.712 31.2982 142.919 31.7884 142.919 32.5109C142.919 33.3366 142.53 35.1943 141.753 38.0842C141.235 40.1484 140.821 41.9545 140.51 43.5027C140.199 45.0508 139.94 46.9602 139.733 49.2308C141.443 44.7928 143.359 41.1805 145.483 38.3938C147.607 35.6072 149.678 33.6204 151.699 32.4335C153.771 31.2466 155.661 30.6531 157.371 30.6531C160.738 30.6531 162.421 32.3303 162.421 35.6846C162.421 37.6971 161.851 41.3353 160.712 46.5989C159.727 51.0885 159.235 54.0558 159.235 55.5007C159.235 57.5649 159.986 58.597 161.489 58.597C162.525 58.597 163.742 57.9777 165.14 56.7392C166.591 55.4491 168.507 53.3849 170.89 50.5467C171.512 49.8242 172.211 49.463 172.988 49.463C173.661 49.463 174.179 49.7726 174.542 50.3919C174.956 51.0111 175.163 51.8626 175.163 52.9463C175.163 55.0105 174.671 56.6102 173.687 57.7455C171.46 60.4806 169.051 62.7254 166.461 64.4799C163.923 66.2345 161.022 67.1118 157.759 67.1118C155.117 67.1118 153.123 66.3635 151.776 64.867C150.43 63.3188 149.756 61.0998 149.756 58.21C149.756 56.765 150.119 54.1848 150.844 50.4693C151.517 47.2182 151.854 44.9734 151.854 43.7349C151.854 42.9092 151.569 42.4964 150.999 42.4964C150.326 42.4964 149.368 43.3737 148.125 45.1282C146.933 46.8312 145.69 49.1018 144.395 51.94C143.152 54.7783 142.142 57.7713 141.365 60.9192C140.795 63.3446 140.122 64.996 139.345 65.8732C138.619 66.6989 137.454 67.1118 135.848 67.1118Z" fill="#FCF7F7"/>
<path d="M183.329 68.8147C180.635 68.8147 178.564 68.1954 177.113 66.9569C175.715 65.7184 175.015 64.3251 175.015 62.777C175.015 61.4353 175.507 60.2742 176.492 59.2937C177.476 58.3132 178.926 57.8229 180.843 57.8229C181.516 57.8229 182.293 57.9003 183.174 58.0552C184.106 58.1584 184.805 58.2358 185.271 58.2874C185.22 56.9457 184.909 55.6813 184.339 54.4944C183.821 53.3075 183.148 52.1722 182.319 51.0885C181.49 49.9532 180.713 48.9728 179.988 48.1471C178.382 51.1917 176.776 53.7204 175.171 55.7329C173.617 57.7455 171.907 59.6549 170.043 61.4611C169.11 62.3899 168.126 62.8544 167.09 62.8544C166.261 62.8544 165.588 62.5706 165.07 62.0029C164.552 61.3836 164.293 60.6354 164.293 59.7581C164.293 58.726 164.656 57.7713 165.381 56.8941L166.391 55.6555C169.24 52.1464 171.389 49.2566 172.84 46.986C173.772 45.4894 174.705 43.7091 175.637 41.6449C176.621 39.5807 177.89 36.7683 179.444 33.2076C180.428 30.9369 182.474 29.8016 185.582 29.8016C187.033 29.8016 188.043 29.9307 188.612 30.1887C189.182 30.4467 189.467 30.8595 189.467 31.4272C189.467 31.7368 189.364 32.2271 189.156 32.8979C188.949 33.5688 188.664 34.2396 188.302 34.9105C187.369 36.7683 186.903 38.3422 186.903 39.6323C186.903 40.4064 187.162 41.2579 187.68 42.1867C188.25 43.1156 189.105 44.2767 190.244 45.6701C191.902 47.8374 193.145 49.6952 193.974 51.2433C194.854 52.7399 195.295 54.3912 195.295 56.1974C195.295 58.3648 194.777 60.429 193.741 62.3899C192.756 64.2993 191.358 65.8474 189.545 67.0343C187.732 68.2213 185.66 68.8147 183.329 68.8147Z" fill="#FCF7F7"/>
<path d="M136.844 142.351C137.517 142.351 138.035 142.661 138.398 143.28C138.812 143.899 139.019 144.751 139.019 145.835C139.019 147.847 138.527 149.447 137.543 150.634C135.057 153.627 132.545 155.949 130.006 157.6C127.468 159.2 124.464 160 120.993 160C117.627 160 114.752 159.097 112.369 157.291C110.038 155.485 107.811 152.388 105.687 148.002C103.978 144.493 102.631 141.913 101.647 140.261C100.662 138.558 99.6783 137.346 98.6941 136.623C97.7618 135.901 96.5963 135.462 95.1977 135.307C94.9905 136.391 94.3949 139.797 93.4107 145.525C92.9963 148.105 92.7373 149.679 92.6337 150.247C92.1157 153.395 91.0798 155.82 89.5258 157.523C87.9718 159.174 85.615 160 82.4553 160C78.9848 160 75.9027 158.994 73.2092 156.981C70.5675 154.917 68.5214 152.079 67.0711 148.466C65.6207 144.802 64.8955 140.648 64.8955 136.004C64.8955 127.334 66.3977 119.852 69.402 113.556C72.4581 107.26 76.7056 102.461 82.1445 99.1582C87.6351 95.8039 93.9546 94.1267 101.103 94.1267C106.075 94.1267 110.245 94.875 113.612 96.3716C116.979 97.8681 119.465 99.9323 121.071 102.564C122.729 105.196 123.558 108.163 123.558 111.466C123.558 114.356 122.858 117.194 121.46 119.981C120.113 122.716 118.067 125.141 115.322 127.257C112.576 129.373 109.235 130.947 105.298 131.979C107.785 132.65 109.701 133.733 111.048 135.23C112.395 136.726 113.742 138.92 115.088 141.809C116.539 144.906 117.963 147.176 119.362 148.621C120.812 150.066 122.47 150.789 124.334 150.789C125.992 150.789 127.572 150.247 129.074 149.163C130.576 148.028 132.467 146.118 134.746 143.435C135.368 142.712 136.067 142.351 136.844 142.351ZM84.4754 135.23C82.7143 135.23 81.497 134.817 80.8236 133.991C80.202 133.166 79.8912 132.237 79.8912 131.205C79.8912 129.966 80.2797 128.986 81.0567 128.263C81.8855 127.541 82.8179 127.179 83.8538 127.179H85.7963C86.6251 122.122 87.402 117.762 88.1272 114.098C88.8006 110.743 90.9762 109.066 94.6539 109.066C97.6064 109.066 99.0826 110.382 99.0826 113.014C99.0826 113.582 99.0567 114.02 99.0049 114.33L96.674 127.179C99.4711 127.025 102.009 126.354 104.288 125.167C106.619 123.98 108.458 122.329 109.805 120.213C111.204 118.097 111.903 115.697 111.903 113.014C111.903 109.763 110.789 107.209 108.562 105.351C106.334 103.493 103.071 102.564 98.7719 102.564C93.6956 102.564 89.2409 103.828 85.4078 106.357C81.6265 108.834 78.674 112.55 76.5502 117.504C74.4265 122.406 73.3646 128.392 73.3646 135.462C73.3646 138.765 73.7013 141.603 74.3747 143.977C75.0481 146.351 75.8768 148.131 76.861 149.318C77.8452 150.505 78.7776 151.098 79.6581 151.098C80.3315 151.098 80.8754 150.763 81.2898 150.092C81.756 149.421 82.1186 148.337 82.3776 146.841L84.4754 135.23Z" fill="#FCF7F7"/>
<path d="M142.895 118.433C140.72 118.433 139.088 117.942 138 116.962C136.912 115.93 136.369 114.511 136.369 112.704C136.369 110.898 137.068 109.402 138.466 108.215C139.917 106.976 141.704 106.357 143.828 106.357C145.744 106.357 147.298 106.821 148.489 107.75C149.681 108.679 150.277 109.995 150.277 111.698C150.277 113.762 149.603 115.414 148.256 116.652C146.91 117.839 145.123 118.433 142.895 118.433ZM142.274 160C138.907 160 136.446 158.813 134.892 156.439C133.39 154.065 132.639 150.918 132.639 146.996C132.639 144.673 132.924 141.706 133.494 138.094C134.115 134.43 134.892 131.024 135.825 127.876C136.291 126.225 136.912 125.09 137.689 124.47C138.466 123.851 139.71 123.541 141.419 123.541C144.061 123.541 145.382 124.419 145.382 126.173C145.382 127.463 144.889 130.456 143.905 135.152C142.662 140.829 142.041 144.673 142.041 146.686C142.041 148.234 142.248 149.421 142.662 150.247C143.076 151.072 143.776 151.485 144.76 151.485C145.692 151.485 146.858 150.84 148.256 149.55C149.655 148.26 151.52 146.222 153.851 143.435C154.472 142.712 155.171 142.351 155.948 142.351C156.622 142.351 157.14 142.661 157.502 143.28C157.917 143.899 158.124 144.751 158.124 145.835C158.124 147.899 157.632 149.498 156.648 150.634C151.52 156.878 146.728 160 142.274 160Z" fill="#FCF7F7"/>
<path d="M166.678 160C161.602 160 157.639 158.581 154.79 155.743C151.993 152.853 150.595 149.06 150.595 144.364C150.595 140.184 151.423 136.52 153.081 133.372C154.738 130.224 156.888 127.799 159.53 126.096C162.172 124.393 164.943 123.541 167.844 123.541C170.692 123.541 172.894 124.393 174.448 126.096C176.054 127.747 176.857 129.889 176.857 132.521C176.857 134.688 176.364 136.52 175.38 138.016C174.448 139.513 173.205 140.261 171.651 140.261C170.667 140.261 169.864 140.029 169.242 139.565C168.672 139.1 168.387 138.455 168.387 137.629C168.387 137.268 168.439 136.855 168.543 136.391C168.646 135.926 168.724 135.591 168.776 135.385C169.035 134.611 169.164 133.888 169.164 133.217C169.164 132.546 168.983 132.03 168.621 131.669C168.31 131.308 167.844 131.127 167.222 131.127C166.031 131.127 164.917 131.669 163.881 132.753C162.845 133.785 162.016 135.204 161.395 137.01C160.773 138.816 160.462 140.803 160.462 142.97C160.462 148.957 163.078 151.95 168.31 151.95C170.433 151.95 172.713 151.253 175.147 149.86C177.633 148.415 180.068 146.273 182.451 143.435C183.072 142.712 183.772 142.351 184.549 142.351C185.222 142.351 185.74 142.661 186.103 143.28C186.517 143.899 186.724 144.751 186.724 145.835C186.724 147.796 186.232 149.395 185.248 150.634C182.813 153.627 179.887 155.949 176.468 157.6C173.101 159.2 169.838 160 166.678 160Z" fill="#FCF7F7"/>
<path d="M208.259 144.673C208.933 144.673 209.451 144.983 209.813 145.602C210.228 146.222 210.435 147.073 210.435 148.157C210.435 150.015 209.995 151.614 209.114 152.956C207.664 155.175 205.747 156.904 203.364 158.142C201.033 159.381 198.236 160 194.973 160C190 160 186.141 158.529 183.396 155.588C180.651 152.595 179.278 148.57 179.278 143.512C179.278 139.952 180.029 136.649 181.531 133.604C183.033 130.508 185.105 128.057 187.747 126.251C190.441 124.444 193.471 123.541 196.838 123.541C199.842 123.541 202.251 124.444 204.064 126.251C205.877 128.005 206.783 130.405 206.783 133.449C206.783 137.01 205.488 140.081 202.898 142.661C200.36 145.189 196.009 147.202 189.845 148.699C191.088 151.072 193.186 152.259 196.138 152.259C198.262 152.259 199.997 151.769 201.344 150.789C202.743 149.808 204.348 148.157 206.161 145.835C206.783 145.06 207.482 144.673 208.259 144.673ZM195.517 131.127C193.6 131.127 191.969 132.237 190.622 134.456C189.327 136.675 188.679 139.358 188.679 142.506V142.661C191.735 141.938 194.144 140.855 195.905 139.41C197.666 137.965 198.547 136.288 198.547 134.378C198.547 133.398 198.262 132.624 197.692 132.056C197.174 131.437 196.449 131.127 195.517 131.127Z" fill="#FCF7F7"/>
<path d="M40.5068 118.123C38.2967 121.494 35.6204 124.47 32.478 127.05L36.9844 132.005C37.7787 132.83 38.1758 133.69 38.1758 134.585C38.1758 135.445 37.8305 136.15 37.1398 136.701C36.4492 137.285 35.5341 137.578 34.3945 137.578C32.806 137.578 31.5974 137.096 30.7686 136.133L26.4175 131.024C22.3427 133.054 18.4405 134.069 14.711 134.069C11.9484 134.069 9.53116 133.639 7.45921 132.779C5.38726 131.919 3.7815 130.732 2.64193 129.218C1.5369 127.704 0.984377 126.018 0.984377 124.161C0.984377 121.649 1.76136 119.31 3.31532 117.142C4.90381 114.941 7.47648 112.773 11.0333 110.64C9.03044 106.993 8.02899 103.777 8.02899 100.99C8.02899 98.5131 8.54698 96.3286 9.58296 94.4364C10.6189 92.5442 12.052 91.0821 13.8822 90.05C15.747 89.0179 17.8707 88.5019 20.2535 88.5019C23.2923 88.5019 25.6405 89.3791 27.2981 91.1337C28.9902 92.8538 29.8362 95.2277 29.8362 98.2551C29.8362 100.767 29.0938 103.14 27.6089 105.377C26.1585 107.578 23.5686 109.832 19.8391 112.137C22.0492 115.13 24.9672 118.656 28.5931 122.716C30.8722 120.686 33.1341 118.123 35.3787 115.027C35.7585 114.476 36.2075 114.098 36.7255 113.891C37.2434 113.65 37.8823 113.53 38.642 113.53C40.6449 113.53 41.6463 114.098 41.6463 115.233C41.6463 115.955 41.2665 116.919 40.5068 118.123ZM19.8909 93.9203C18.2679 93.9203 16.9902 94.5396 16.0578 95.7781C15.1254 96.9822 14.6592 98.4959 14.6592 100.319C14.6592 102.487 15.3844 104.86 16.8348 107.441C19.5283 105.858 21.3585 104.327 22.3254 102.848C23.2923 101.369 23.7758 99.7516 23.7758 97.9971C23.7758 96.7242 23.4477 95.7265 22.7916 95.004C22.1355 94.2816 21.1686 93.9203 19.8909 93.9203ZM15.0218 128.392C17.7153 128.392 20.288 127.807 22.7398 126.638C19.0794 122.268 16.1959 118.536 14.0894 115.439C10.1873 117.985 8.23619 120.634 8.23619 123.387C8.23619 124.969 8.84051 126.208 10.0491 127.102C11.2578 127.962 12.9153 128.392 15.0218 128.392Z" fill="#FCF7F7"/>
</svg>
