<svg width="271" height="70" viewBox="0 0 271 70" fill="none" xmlns="http://www.w3.org/2000/svg">
<path d="M15.0193 8.06962L28.9116 0.753418C28.9116 0.753418 40.3237 10.5301 47.098 17.3556C53.5654 23.8719 62.856 34.8019 62.856 34.8019C62.856 34.8019 54.4457 48.5354 47.098 55.5926C40.7591 61.6808 28.9116 68.8504 28.9116 68.8504H0.674622V65.8372C0.674622 65.8372 5.14583 57.487 10.2872 55.5926C14.2514 54.1319 21.1013 55.5926 21.1013 55.5926C21.1013 55.5926 21.0907 45.6841 24.7061 41.1295C29.3511 35.2777 42.7296 34.8019 42.7296 34.8019L29.9331 11.7277L26.275 17.3556H17.8332L15.0193 8.06962Z" fill="#FAFCFE"/>
<path d="M30.2146 8.06962L44.1069 0.753418C44.1069 0.753418 55.519 10.5301 62.2933 17.3556C68.7608 23.8719 78.0513 34.8019 78.0513 34.8019C78.0513 34.8019 69.641 48.5354 62.2933 55.5926C55.9544 61.6808 44.1069 68.8504 44.1069 68.8504H15.8699V65.8372C15.8699 65.8372 20.3411 57.487 25.4825 55.5926C29.4467 54.1319 36.2967 55.5926 36.2967 55.5926C36.2967 55.5926 36.286 45.6841 39.9014 41.1295C44.5464 35.2777 57.925 34.8019 57.925 34.8019L45.1284 11.7277L41.4703 17.3556H33.0285L30.2146 8.06962Z" fill="#55A1FB"/>
<path d="M46.8238 8.06962L60.7161 0.753418C60.7161 0.753418 72.1282 10.5301 78.9025 17.3556C85.3699 23.8719 94.6605 34.8019 94.6605 34.8019C94.6605 34.8019 86.2502 48.5354 78.9025 55.5926C72.5636 61.6808 60.7161 68.8504 60.7161 68.8504H32.4791V65.8372C32.4791 65.8372 36.9503 57.487 42.0917 55.5926C46.0559 54.1319 52.9058 55.5926 52.9058 55.5926C52.9058 55.5926 52.8952 45.6841 56.5106 41.1295C61.1556 35.2777 74.5341 34.8019 74.5341 34.8019L61.7376 11.7277L58.0795 17.3556H49.6377L46.8238 8.06962Z" fill="#F8C40D"/>
<path d="M125.083 21.4285H116.995L116.946 16.185H124.094C124.984 16.185 125.701 16.0865 126.245 15.8896C126.789 15.6927 127.185 15.4054 127.433 15.028C127.68 14.6341 127.804 14.1417 127.804 13.5509C127.804 12.8616 127.68 12.3118 127.433 11.9015C127.202 11.4748 126.831 11.1712 126.32 10.9907C125.825 10.8102 125.182 10.7199 124.39 10.7199H120.334V32.9988H111.974V4.31934H123.549C125.561 4.31934 127.342 4.48345 128.892 4.81169C130.458 5.13992 131.786 5.63227 132.874 6.28874C133.962 6.94521 134.786 7.774 135.347 8.77512C135.908 9.77623 136.188 10.9415 136.188 12.2708C136.188 13.436 135.932 14.5602 135.421 15.6434C134.91 16.7266 134.011 17.6046 132.725 18.2775C131.456 18.934 129.658 19.2376 127.334 19.1884L125.083 21.4285ZM124.737 32.9988H115.19L117.737 26.6229H124.737C125.676 26.6229 126.418 26.4998 126.963 26.2536C127.507 25.991 127.886 25.6628 128.1 25.2689C128.331 24.875 128.447 24.4893 128.447 24.1119C128.447 23.5375 128.339 23.0533 128.125 22.6594C127.911 22.2655 127.556 21.9619 127.062 21.7486C126.567 21.5352 125.907 21.4285 125.083 21.4285H118.702L118.727 16.185H126.072L128.051 18.3514C130.293 18.1544 132.049 18.3924 133.319 19.0653C134.589 19.7217 135.479 20.5833 135.99 21.6501C136.518 22.7005 136.782 23.7426 136.782 24.7765C136.782 26.2208 136.526 27.4599 136.015 28.4938C135.52 29.5277 134.77 30.3811 133.764 31.054C132.775 31.7105 131.522 32.2028 130.005 32.5311C128.504 32.8429 126.748 32.9988 124.737 32.9988Z" fill="#FAFCFE"/>
<path d="M162.108 26.6229V32.9988H145.488V26.6229H162.108ZM148.678 4.31934V32.9988H140.318V4.31934H148.678ZM160.006 14.9787V21.3793H145.488V14.9787H160.006ZM162.232 4.31934V10.7199H145.488V4.31934H162.232Z" fill="#FAFCFE"/>
<path d="M180.608 4.31934V32.9988H172.199V4.31934H180.608ZM189.759 4.31934V10.7199H163.32V4.31934H189.759Z" fill="#FAFCFE"/>
<path d="M208.507 4.31934V32.9988H200.098V4.31934H208.507ZM217.658 4.31934V10.7199H191.219V4.31934H217.658Z" fill="#FAFCFE"/>
<path d="M242.193 26.6229V32.9988H225.573V26.6229H242.193ZM228.763 4.31934V32.9988H220.403V4.31934H228.763ZM240.091 14.9787V21.3793H225.573V14.9787H240.091ZM242.317 4.31934V10.7199H225.573V4.31934H242.317Z" fill="#FAFCFE"/>
<path d="M244.691 4.31934H257.453C259.234 4.31934 260.858 4.49986 262.326 4.86092C263.793 5.22198 265.054 5.76357 266.11 6.48568C267.165 7.19139 267.973 8.07762 268.533 9.14438C269.111 10.2111 269.399 11.4502 269.399 12.8616C269.399 14.6669 269.119 16.1358 268.558 17.2682C268.014 18.4006 267.264 19.3114 266.308 20.0007C265.351 20.69 264.255 21.289 263.018 21.7978L260.174 23.4964H249.712L249.662 17.0959H257.453C258.245 17.0959 258.904 16.981 259.432 16.7512C259.976 16.505 260.38 16.144 260.644 15.668C260.908 15.1757 261.039 14.5685 261.039 13.8463C261.039 13.157 260.891 12.5826 260.594 12.1231C260.297 11.6636 259.877 11.3189 259.333 11.0892C258.805 10.843 258.179 10.7199 257.453 10.7199H253.051V32.9988H244.691V4.31934ZM261.361 32.9988L254.708 20.3946L263.587 20.3208L270.364 32.6788V32.9988H261.361Z" fill="#FAFCFE"/>
<path d="M125.083 57.2805H116.995L116.946 52.0369H124.094C124.984 52.0369 125.701 51.9385 126.245 51.7415C126.789 51.5446 127.185 51.2574 127.433 50.8799C127.68 50.486 127.804 49.9937 127.804 49.4029C127.804 48.7136 127.68 48.1638 127.433 47.7535C127.202 47.3268 126.831 47.0232 126.32 46.8426C125.825 46.6621 125.182 46.5718 124.39 46.5718H120.334V68.8507H111.974V40.1713H123.549C125.561 40.1713 127.342 40.3354 128.892 40.6636C130.458 40.9919 131.786 41.4842 132.874 42.1407C133.962 42.7971 134.786 43.6259 135.347 44.6271C135.908 45.6282 136.188 46.7934 136.188 48.1228C136.188 49.288 135.932 50.4122 135.421 51.4954C134.91 52.5785 134.011 53.4566 132.725 54.1294C131.456 54.7859 129.658 55.0895 127.334 55.0403L125.083 57.2805ZM124.737 68.8507H115.19L117.737 62.4748H124.737C125.676 62.4748 126.418 62.3517 126.963 62.1055C127.507 61.8429 127.886 61.5147 128.1 61.1208C128.331 60.727 128.447 60.3413 128.447 59.9638C128.447 59.3894 128.339 58.9053 128.125 58.5114C127.911 58.1175 127.556 57.8139 127.062 57.6005C126.567 57.3872 125.907 57.2805 125.083 57.2805H118.702L118.727 52.0369H126.072L128.051 54.2033C130.293 54.0064 132.049 54.2443 133.319 54.9172C134.589 55.5737 135.479 56.4353 135.99 57.502C136.518 58.5524 136.782 59.5945 136.782 60.6285C136.782 62.0727 136.526 63.3118 136.015 64.3457C135.52 65.3797 134.77 66.2331 133.764 66.906C132.775 67.5624 131.522 68.0548 130.005 68.383C128.504 68.6948 126.748 68.8507 124.737 68.8507Z" fill="#FAFCFE"/>
<path d="M156.964 40.1713H165.323V58.5606C165.323 60.8418 164.82 62.7784 163.815 64.3703C162.825 65.9623 161.407 67.1768 159.561 68.0138C157.714 68.8343 155.496 69.2446 152.907 69.2446C150.401 69.2446 148.208 68.8343 146.328 68.0138C144.449 67.1768 142.989 65.9623 141.951 64.3703C140.912 62.7784 140.393 60.8418 140.393 58.5606V40.1713H148.777V58.5606C148.777 59.5781 148.925 60.4069 149.222 61.047C149.535 61.687 149.997 62.1548 150.607 62.4502C151.234 62.7292 152 62.8687 152.907 62.8687C153.831 62.8687 154.589 62.7292 155.183 62.4502C155.776 62.1548 156.222 61.687 156.518 61.047C156.815 60.4069 156.964 59.5781 156.964 58.5606V40.1713Z" fill="#FAFCFE"/>
<path d="M178.432 40.1713V68.8507H170.072V40.1713H178.432Z" fill="#FAFCFE"/>
<path d="M203.907 62.4748V68.8507H188.176V62.4748H203.907ZM191.367 40.1713V68.8507H183.007V40.1713H191.367Z" fill="#FAFCFE"/>
<path d="M217.238 68.8507H210.189L210.238 62.4748H217.238C218.722 62.4748 219.892 62.2122 220.75 61.687C221.607 61.1619 222.217 60.3495 222.58 59.2499C222.943 58.1503 223.124 56.7389 223.124 55.0157V53.9817C223.124 52.7509 223.025 51.6759 222.827 50.7568C222.629 49.8214 222.3 49.05 221.838 48.4428C221.376 47.8191 220.75 47.3514 219.958 47.0396C219.167 46.7278 218.169 46.5718 216.965 46.5718H210.065V40.1713H216.965C219.076 40.1713 221.013 40.5159 222.778 41.2052C224.558 41.8945 226.1 42.8628 227.403 44.1101C228.705 45.3574 229.711 46.8262 230.42 48.5166C231.146 50.1906 231.508 52.0287 231.508 54.031V55.0157C231.508 57.6744 230.882 60.0459 229.629 62.1302C228.392 64.2144 226.694 65.8556 224.534 67.0537C222.39 68.2517 219.958 68.8507 217.238 68.8507ZM215.012 40.1713V68.8507H206.652V40.1713H215.012Z" fill="#FAFCFE"/>
</svg>
