<svg width="271" height="82" viewBox="0 0 271 82" fill="none" xmlns="http://www.w3.org/2000/svg">
<rect x="0.986938" y="0.75" width="75.7235" height="80.9458" fill="#1E5579"/>
<path d="M18.7499 13.8077L18.7499 18.5207L18.7499 33.8072L18.7499 56.0244L18.7499 70.9744L18.7499 73.858L25.4304 73.858L25.4304 66.8216L25.4304 48.238L25.4304 18.5207C25.4304 18.5207 25.9443 16.2184 26.2148 15.46C27.7294 13.4285 30.7406 14.4397 31.8135 15.46L34.7887 15.46C35.4594 13.7915 35.3386 10.5213 35.1944 9.09472L31.8135 9.09472C29.1088 11.2183 26.7738 9.63644 25.9443 8.58008C23.7806 8.58008 20.2465 8.92317 18.7499 9.09472C14.7253 10.7632 10.8882 16.0739 9.47278 18.5207L10.3924 19.1979C12.7995 16.2997 11.9611 17.5456 13.3675 16.2184C14.774 14.8912 16.2615 14.3765 17.4246 13.8077C18.355 13.3527 18.4253 13.6181 18.7499 13.8077Z" fill="#8ECAE6"/>
<path d="M56.421 26.7036C56.421 36.7135 48.344 44.8281 38.3806 44.8281L38.3806 37.5783C44.3587 37.5783 49.2048 32.7095 49.2048 26.7036C49.2048 20.6977 44.3587 15.8289 38.3806 15.8289L38.3806 8.5791C48.344 8.57911 56.421 16.6937 56.421 26.7036Z" fill="#F5F5F5"/>
<path d="M63.0014 55.7347C63.0014 65.7446 54.9841 73.7774 45.0207 73.7774C45.0008 73.7774 44.9809 73.7774 44.961 73.7773L44.961 66.6095C50.939 66.6095 55.7852 61.7407 55.7852 55.7347C55.7852 49.7288 50.9391 44.8601 44.961 44.86L44.961 37.6102C54.9244 37.6103 63.0014 45.7249 63.0014 55.7347Z" fill="#F5F5F5"/>
<path d="M28.6934 66.7176L50.4976 66.5101L45.0207 73.7774L28.6934 73.7773L28.6934 66.7176Z" fill="#F5F5F5"/>
<path d="M28.6934 37.6484L48.5342 37.4408L46.4674 44.9158L28.6934 44.9158L28.6934 37.6484Z" fill="#F5F5F5"/>
<path d="M100.278 49.705V33.2548H107.376C109.209 33.2548 110.626 33.6229 111.629 34.3593C112.647 35.0956 113.157 36.1375 113.157 37.4848C113.157 38.3779 112.945 39.1299 112.522 39.7409C112.115 40.3519 111.551 40.8141 110.83 41.1274C110.125 41.4407 109.35 41.5974 108.504 41.5974L108.903 41.0334C109.953 41.0334 110.854 41.1979 111.606 41.5269C112.373 41.8402 112.969 42.3181 113.392 42.9604C113.815 43.5871 114.026 44.3705 114.026 45.3105C114.026 46.7048 113.509 47.7858 112.475 48.5535C111.457 49.3212 109.914 49.705 107.846 49.705H100.278ZM102.017 48.2715H107.822C109.263 48.2715 110.368 48.0287 111.136 47.543C111.903 47.0417 112.287 46.2505 112.287 45.1695C112.287 44.1041 111.903 43.3286 111.136 42.8429C110.368 42.3416 109.263 42.0909 107.822 42.0909H101.829V40.6574H107.258C108.574 40.6574 109.592 40.4067 110.313 39.9054C111.049 39.404 111.418 38.6599 111.418 37.6728C111.418 36.6702 111.049 35.926 110.313 35.4403C109.592 34.939 108.574 34.6883 107.258 34.6883H102.017V48.2715Z" fill="#3D4C50"/>
<path d="M125.187 49.846C123.949 49.846 122.797 49.6424 121.732 49.235C120.682 48.812 119.766 48.2245 118.983 47.4725C118.215 46.7048 117.612 45.8196 117.173 44.817C116.75 43.7986 116.539 42.6863 116.539 41.4799C116.539 40.2736 116.75 39.169 117.173 38.1664C117.612 37.148 118.215 36.2628 118.983 35.5108C119.766 34.7431 120.682 34.1556 121.732 33.7483C122.782 33.3253 123.933 33.1138 125.187 33.1138C126.424 33.1138 127.568 33.3253 128.618 33.7483C129.667 34.1556 130.576 34.7353 131.344 35.4873C132.127 36.2393 132.73 37.1245 133.153 38.1429C133.592 39.1612 133.811 40.2736 133.811 41.4799C133.811 42.6863 133.592 43.7986 133.153 44.817C132.73 45.8353 132.127 46.7205 131.344 47.4725C130.576 48.2245 129.667 48.812 128.618 49.235C127.568 49.6424 126.424 49.846 125.187 49.846ZM125.187 48.295C126.174 48.295 127.082 48.1305 127.913 47.8015C128.759 47.4568 129.487 46.979 130.098 46.368C130.725 45.7413 131.211 45.0206 131.555 44.206C131.9 43.3756 132.072 42.4669 132.072 41.4799C132.072 40.4929 131.9 39.592 131.555 38.7774C131.211 37.947 130.725 37.2263 130.098 36.6153C129.487 35.9887 128.759 35.5108 127.913 35.1818C127.082 34.8371 126.174 34.6648 125.187 34.6648C124.2 34.6648 123.283 34.8371 122.437 35.1818C121.591 35.5108 120.855 35.9887 120.228 36.6153C119.617 37.2263 119.131 37.947 118.771 38.7774C118.426 39.592 118.254 40.4929 118.254 41.4799C118.254 42.4513 118.426 43.3521 118.771 44.1825C119.131 45.0128 119.617 45.7413 120.228 46.368C120.855 46.979 121.591 47.4568 122.437 47.8015C123.283 48.1305 124.2 48.295 125.187 48.295Z" fill="#3D4C50"/>
<path d="M139.26 40.6104H147.955V42.0909H139.26V40.6104ZM139.448 48.201H149.342V49.705H137.709V33.2548H148.989V34.7588H139.448V48.201Z" fill="#3D4C50"/>
<path d="M157.965 49.846C156.743 49.846 155.568 49.6502 154.44 49.2585C153.328 48.8512 152.466 48.3342 151.855 47.7075L152.537 46.368C153.116 46.932 153.892 47.4098 154.863 47.8015C155.85 48.1775 156.884 48.3655 157.965 48.3655C158.999 48.3655 159.837 48.2402 160.48 47.9895C161.138 47.7232 161.616 47.3707 161.913 46.932C162.227 46.4933 162.383 46.0077 162.383 45.475C162.383 44.8326 162.195 44.3156 161.819 43.9239C161.459 43.5323 160.981 43.2268 160.386 43.0074C159.79 42.7724 159.132 42.5688 158.412 42.3964C157.691 42.2241 156.97 42.0439 156.25 41.8559C155.529 41.6522 154.863 41.3859 154.252 41.0569C153.657 40.7279 153.171 40.2971 152.795 39.7644C152.435 39.216 152.255 38.5032 152.255 37.6258C152.255 36.8112 152.466 36.067 152.889 35.3933C153.328 34.704 153.994 34.1556 154.887 33.7483C155.78 33.3253 156.923 33.1138 158.318 33.1138C159.242 33.1138 160.159 33.2469 161.067 33.5133C161.976 33.7639 162.759 34.1165 163.417 34.5708L162.83 35.9573C162.125 35.4873 161.373 35.1426 160.574 34.9233C159.79 34.704 159.031 34.5943 158.294 34.5943C157.307 34.5943 156.493 34.7275 155.85 34.9938C155.208 35.2601 154.73 35.6205 154.417 36.0748C154.119 36.5135 153.97 37.0148 153.97 37.5788C153.97 38.2212 154.15 38.7382 154.511 39.1299C154.887 39.5215 155.372 39.827 155.968 40.0464C156.579 40.2657 157.245 40.4616 157.965 40.6339C158.686 40.8062 159.399 40.9942 160.104 41.1979C160.824 41.4016 161.483 41.6679 162.078 41.9969C162.689 42.3103 163.175 42.7333 163.535 43.2659C163.911 43.7986 164.099 44.4958 164.099 45.3575C164.099 46.1565 163.88 46.9007 163.441 47.59C163.002 48.2637 162.329 48.812 161.42 49.235C160.527 49.6424 159.375 49.846 157.965 49.846Z" fill="#3D4C50"/>
<path d="M169.439 40.6104H178.134V42.0909H169.439V40.6104ZM169.627 48.201H179.521V49.705H167.888V33.2548H179.168V34.7588H169.627V48.201Z" fill="#3D4C50"/>
<path d="M183.608 49.705V33.2548H185.347V48.201H194.56V49.705H183.608Z" fill="#3D4C50"/>
<path d="M203.598 49.705V33.2548H210.695C212.528 33.2548 213.946 33.6229 214.948 34.3593C215.967 35.0956 216.476 36.1375 216.476 37.4848C216.476 38.3779 216.264 39.1299 215.841 39.7409C215.434 40.3519 214.87 40.8141 214.149 41.1274C213.444 41.4407 212.669 41.5974 211.823 41.5974L212.222 41.0334C213.272 41.0334 214.173 41.1979 214.925 41.5269C215.692 41.8402 216.288 42.3181 216.711 42.9604C217.134 43.5871 217.345 44.3705 217.345 45.3105C217.345 46.7048 216.828 47.7858 215.794 48.5535C214.776 49.3212 213.233 49.705 211.165 49.705H203.598ZM205.337 48.2715H211.141C212.582 48.2715 213.687 48.0287 214.455 47.543C215.222 47.0417 215.606 46.2505 215.606 45.1695C215.606 44.1041 215.222 43.3286 214.455 42.8429C213.687 42.3416 212.582 42.0909 211.141 42.0909H205.149V40.6574H210.577C211.893 40.6574 212.911 40.4067 213.632 39.9054C214.369 39.404 214.737 38.6599 214.737 37.6728C214.737 36.6702 214.369 35.926 213.632 35.4403C212.911 34.939 211.893 34.6883 210.577 34.6883H205.337V48.2715Z" fill="#3D4C50"/>
<path d="M227.942 49.846C225.842 49.846 224.189 49.2429 222.983 48.0365C221.777 46.8302 221.174 45.0441 221.174 42.6784V33.2548H222.913V42.6079C222.913 44.5506 223.351 45.9841 224.229 46.9085C225.106 47.8328 226.344 48.295 227.942 48.295C229.555 48.295 230.801 47.8328 231.678 46.9085C232.556 45.9841 232.994 44.5506 232.994 42.6079V33.2548H234.686V42.6784C234.686 45.0441 234.083 46.8302 232.877 48.0365C231.686 49.2429 230.041 49.846 227.942 49.846Z" fill="#3D4C50"/>
<path d="M239.927 49.705V33.2548H241.666V49.705H239.927Z" fill="#3D4C50"/>
<path d="M247.018 49.705V33.2548H248.757V48.201H257.969V49.705H247.018Z" fill="#3D4C50"/>
<path d="M262.515 49.705V34.7588H256.734V33.2548H270.035V34.7588H264.254V49.705H262.515Z" fill="#3D4C50"/>
</svg>
