<svg width="351" height="72" viewBox="0 0 351 72" fill="none" xmlns="http://www.w3.org/2000/svg">
<path d="M21.286 27.2461C20.9309 28.5645 11.1749 34.4873 6.34132 37.2839C4.68407 37.2839 2.00094 38.7821 0.866516 39.5312C0.866516 40.48 1.04409 42.7373 1.75433 44.1755C1.82928 44.3273 1.90424 44.4599 1.97867 44.5759C2.78571 45.8344 3.52993 45.1503 3.52993 45.9733C3.52993 46.6925 5.40419 50.9673 6.34132 53.0148C8.11692 54.8126 11.9049 58.1686 12.8519 57.2097C13.7989 56.2509 17.0936 56.8102 18.6226 57.2097C21.286 58.9576 27.5303 62.9028 31.1999 64.7006C33.8099 65.9793 38.5707 66.7528 42.1494 67.4522C42.8431 67.5878 43.925 69.9443 43.925 69.9443C43.925 69.9443 45.2616 68.1456 45.7007 68.2963L47.6242 70.2439C47.6242 70.2439 47.6457 68.2875 48.3641 67.3974C48.6121 67.0901 49.1039 66.7107 49.1039 66.7107C50.5836 67.0977 54.4307 68.4743 56.3543 69.9443H85.7998V20.0548C83.1364 18.7064 74.1713 13.2601 71.7429 11.5151C71.0751 8.81062 67.4155 5.92446 64.6517 4.17405C63.986 3.75245 63.3723 3.39674 62.8649 3.12532C61.5825 2.77575 58.485 2.10656 56.3543 2.22641C55.7004 2.26319 55.197 2.61133 54.8134 3.12532C53.9468 4.28621 53.6909 6.29318 53.6909 7.47005C53.3358 6.15165 52.6551 3.7246 52.6551 3.7246C52.6551 3.7246 49.7846 3.93434 48.3641 4.17405C46.4701 1.53725 43.0372 0.878049 41.5576 0.878049C40.1765 0.977928 36.8226 1.56721 34.4551 3.12532C32.0877 4.68343 31.2985 9.36775 31.1999 11.5151C29.7202 13.4628 23.9494 19.0061 23.0616 20.0548C22.1738 21.1035 21.7299 25.5981 21.286 27.2461Z" fill="white"/>
<path fill-rule="evenodd" clip-rule="evenodd" d="M45.1262 0.714591C43.7418 0.182906 42.4055 0 41.5592 0H41.527L41.4949 0.00231103C40.0489 0.106287 36.5214 0.710354 33.9706 2.37948C32.5108 3.33472 31.6425 5.15042 31.1229 6.8205C30.6356 8.38676 30.3998 10.0075 30.3233 11.1377C29.5401 12.098 27.9107 13.7725 26.2843 15.4099C25.8454 15.8517 25.406 16.2916 24.9872 16.7107C23.78 17.919 22.7451 18.9548 22.3934 19.368C22.0334 19.7908 21.7966 20.4373 21.6227 21.03C21.4368 21.6639 21.2778 22.4056 21.1376 23.1396C21.0288 23.709 20.9325 24.2626 20.8438 24.7735C20.7 25.6006 20.5757 26.3155 20.4494 26.8031C20.4436 26.8109 20.4363 26.8206 20.427 26.8323C20.3722 26.9012 20.2809 26.9998 20.1434 27.1292C19.8692 27.3872 19.4712 27.7121 18.9627 28.0933C17.9497 28.8529 16.5686 29.7842 15.0325 30.7711C12.0454 32.6902 8.52538 34.7858 6.12041 36.1729C5.14168 36.2369 4.02102 36.6493 3.07155 37.0827C2.0053 37.5695 1.01156 38.1509 0.411919 38.5446L-0.000152588 38.8152V39.3114C-0.000152588 39.8286 0.0476303 40.6722 0.188187 41.5775C0.326981 42.4716 0.566765 43.497 0.982956 44.335C1.07152 44.5133 1.16308 44.6751 1.25774 44.8219C1.51669 45.2233 1.79633 45.5083 2.09215 45.71C2.31631 45.8629 2.52633 45.9513 2.68929 46.0081C2.71279 46.1438 2.7471 46.2748 2.77757 46.3831C2.83881 46.6007 2.92352 46.8556 3.02212 47.1306C3.21992 47.6821 3.49 48.3598 3.78492 49.0679C4.37573 50.4867 5.08283 52.0676 5.55399 53.0911L5.62184 53.2386L5.73587 53.3534C6.64177 54.2654 8.06889 55.5815 9.40791 56.5576C10.0704 57.0406 10.7596 57.4763 11.38 57.7248C11.6886 57.8484 12.0357 57.9487 12.3858 57.9549C12.7505 57.9614 13.1793 57.8632 13.5197 57.5204C13.5545 57.4854 13.7088 57.3832 14.1092 57.3181C14.4838 57.2573 14.9587 57.2471 15.4898 57.2797C16.4834 57.3407 17.553 57.5429 18.2797 57.723C21.0058 59.4971 27.1516 63.3521 30.8174 65.1378C32.2232 65.8226 34.1534 66.3503 36.1224 66.7895C37.5462 67.1072 39.0406 67.3888 40.4246 67.6496C40.9286 67.7445 41.4179 67.8368 41.8839 67.9269C41.9171 67.9568 41.9653 68.0059 42.0271 68.08C42.1806 68.2641 42.3521 68.5219 42.5201 68.8053C42.6849 69.0833 42.8317 69.361 42.9381 69.5712C42.991 69.6757 43.0332 69.762 43.0618 69.8215C43.0687 69.8359 43.0748 69.8487 43.0801 69.8597C43.0857 69.8715 43.0903 69.8814 43.094 69.8891L43.1017 69.9056L43.1033 69.9091L43.7401 71.2881L44.6475 70.074L44.6498 70.071L44.6591 70.0585C44.6678 70.0472 44.6809 70.0299 44.6981 70.0075C44.7326 69.9627 44.7829 69.898 44.8449 69.8205C44.9699 69.6641 45.1376 69.4613 45.3147 69.2663C45.3954 69.1774 45.4732 69.0957 45.5457 69.0236L48.5022 72L48.5261 69.8319L48.5264 69.8196C48.5266 69.8091 48.5271 69.7918 48.5279 69.7687C48.5296 69.7223 48.5328 69.6525 48.5387 69.5651C48.5505 69.3892 48.573 69.1474 48.6151 68.8836C48.7072 68.3056 48.8653 67.8126 49.0601 67.5726C49.114 67.5062 49.2054 67.4155 49.3116 67.3197C50.041 67.5366 51.1043 67.9028 52.2111 68.3599C53.5795 68.9251 54.9326 69.5965 55.7975 70.2537L56.0395 70.4375H86.6665V19.3982L86.1648 19.1456C83.6317 17.8706 75.2096 12.7918 72.4971 10.9151C72.0174 9.43121 70.8535 8.01765 69.5789 6.81208C68.1795 5.4884 66.5229 4.3016 65.1114 3.41272C64.4292 2.98312 63.797 2.61856 63.269 2.33778L63.1795 2.29015L63.0817 2.26365C61.7852 1.91224 58.5732 1.21324 56.2922 1.34082C55.308 1.39587 54.5805 1.92894 54.0808 2.59451C53.8636 2.88378 53.6827 3.2056 53.5318 3.54163L53.5179 3.49228C53.5179 3.49228 53.5178 3.49182 52.6465 3.74235C52.5815 2.83003 52.5814 2.83003 52.5814 2.83003L52.5476 2.83252C52.5257 2.83414 52.4937 2.83654 52.4526 2.83966C52.3704 2.8459 52.2516 2.85506 52.1048 2.86679C51.8112 2.89025 51.4048 2.92403 50.9534 2.96534C50.2549 3.02926 49.4289 3.11296 48.7449 3.20629C47.7044 1.97248 46.3711 1.19271 45.1262 0.714591ZM46.6809 3.70473C46.1466 3.87317 45.5215 4.08209 44.8451 4.31671C43.257 4.86761 41.2949 5.59317 39.3422 6.37014C37.3919 7.14615 35.4375 7.97879 33.8703 8.74398C33.311 9.01707 32.7936 9.28513 32.3393 9.54219C32.4569 8.84932 32.624 8.09981 32.8515 7.36874C33.342 5.79196 34.0505 4.50715 34.956 3.91462C37.1179 2.49993 40.2578 1.93089 41.5908 1.82947C42.228 1.83419 43.3282 1.98127 44.482 2.42442C45.2502 2.71946 46.0156 3.13525 46.6809 3.70473ZM52.6465 3.74235L52.5814 2.83003L53.3161 2.77666L53.5179 3.49228L52.6465 3.74235ZM51.9776 4.7124C52.0314 4.90428 52.0931 5.12445 52.159 5.3601C52.3734 6.12646 52.6312 7.05342 52.8075 7.70428C52.8442 7.83979 52.8606 7.9304 52.8762 8.02634C52.8785 8.04068 52.881 8.05602 52.8835 8.07231C52.8987 8.16806 52.9191 8.29677 52.9548 8.45C53.0389 8.81038 53.2012 9.28817 53.587 10.2026L55.2539 9.48571C54.8773 8.59297 54.7656 8.23275 54.7184 8.03061C54.6987 7.94623 54.6891 7.88602 54.6743 7.79319C54.6712 7.77385 54.6679 7.7531 54.6642 7.73042C54.6469 7.62407 54.6255 7.5032 54.5881 7.34969C54.5959 6.83542 54.6566 6.16249 54.8021 5.49589C54.9615 4.76564 55.205 4.12544 55.5247 3.69958C55.7917 3.34398 56.07 3.18541 56.3924 3.16738C58.3197 3.05959 61.1985 3.65642 62.5143 4.00432C62.9829 4.25657 63.544 4.58169 64.1525 4.96492C65.5022 5.81484 67.0544 6.93095 68.3402 8.14713C69.6529 9.38867 70.5703 10.6259 70.8379 11.7037C71.6616 15.0205 72.2536 18.0712 70.8752 21.5601C70.0938 23.538 69.4634 24.6576 68.4731 25.6352C67.5786 26.5182 66.3563 27.3214 64.3545 28.4694C64.2787 28.2704 64.1941 28.0492 64.103 27.8131C63.7397 26.8716 63.2708 25.6835 62.8571 24.7228L61.1955 25.4521C61.5949 26.3796 62.0536 27.5411 62.4147 28.4771C62.5948 28.9438 62.7496 29.3519 62.8594 29.6432C62.9142 29.7888 62.9578 29.9051 62.9876 29.9849L62.9895 29.99L63.7293 38.8202L65.5347 38.666L64.8336 30.2973C67.0786 29.0242 68.601 28.0674 69.7398 26.9432C70.9959 25.7033 71.7403 24.3078 72.5581 22.2378C73.8125 19.0626 73.6392 16.2007 73.1075 13.5054C76.4768 15.6728 82.2928 19.1596 84.8547 20.5222V68.6081H56.6355C55.596 67.8759 54.1928 67.2019 52.8971 66.6667C52.0689 66.3247 51.2563 66.0278 50.5669 65.7994C50.69 65.6602 50.8177 65.5338 50.9449 65.4316C51.1281 65.2846 51.2614 65.2273 51.3388 65.2123C51.4127 65.198 51.5512 65.1994 51.7641 65.2552C51.9695 65.3092 52.1923 65.4 52.409 65.5074C52.6229 65.6134 52.8125 65.7262 52.9491 65.8132C53.0168 65.8563 53.07 65.8921 53.1049 65.9162C53.1224 65.9281 53.1351 65.9371 53.1428 65.9426L53.1498 65.9476L54.8722 67.2076L54.5786 65.0808L54.5778 65.0751L54.5751 65.0545C54.5726 65.0361 54.569 65.0083 54.5644 64.9724C54.5553 64.9006 54.5426 64.7966 54.5284 64.6704C54.4999 64.4167 54.4661 64.0782 54.4438 63.7314C54.4222 63.3965 54.4129 63.0771 54.4245 62.8263C54.6515 62.8168 54.9368 62.8263 55.238 62.8475C55.5634 62.8705 55.881 62.9052 56.1193 62.9346C56.2379 62.9492 56.3354 62.9623 56.4027 62.9717C56.4363 62.9764 56.4623 62.9801 56.4795 62.9826L56.4986 62.9854L56.5029 62.986L57.9339 63.2028L57.5028 61.8092L57.5016 61.8052L57.4965 61.7886C57.4919 61.7734 57.485 61.7501 57.4761 61.7197C57.4583 61.6588 57.433 61.57 57.4038 61.4614C57.345 61.2427 57.2722 60.951 57.213 60.6495C57.1525 60.341 57.1129 60.0552 57.1077 59.8382C57.1051 59.7294 57.1121 59.6682 57.1167 59.6448C57.1237 59.6091 57.1153 59.7005 57.0161 59.8119L55.6684 58.5892C55.4588 58.8248 55.3767 59.0993 55.3394 59.2891C55.2998 59.4912 55.292 59.6978 55.2964 59.8823C55.3052 60.252 55.3671 60.6554 55.4357 61.0051C55.4372 61.0128 55.4388 61.0205 55.4403 61.0282C55.4151 61.0263 55.3898 61.0244 55.3644 61.0227C55.0037 60.9972 54.6003 60.9819 54.247 61.0038C54.0718 61.0147 53.8797 61.0363 53.6987 61.0816C53.5479 61.1194 53.2614 61.2064 53.0329 61.4428C52.805 61.6786 52.7248 61.9722 52.6905 62.121C52.6483 62.3044 52.6279 62.5007 52.6176 62.6823C52.6011 62.9735 52.6068 63.2995 52.6222 63.6118C52.4924 63.5642 52.3577 63.5209 52.22 63.4848C51.8658 63.3918 51.4347 63.331 50.9976 63.4156C50.5254 63.5071 50.1251 63.7526 49.8172 63.9998C49.5032 64.2519 49.2327 64.5484 49.0178 64.8156C48.8007 65.0856 48.6253 65.3448 48.5044 65.5355C48.4651 65.5974 48.4312 65.6527 48.403 65.6998C48.3546 65.7392 48.2968 65.7873 48.2343 65.8411C48.0731 65.9798 47.8366 66.1939 47.6588 66.413C47.3145 66.8371 47.1052 67.381 46.9744 67.8786L46.1886 67.0875L45.9885 67.0192C45.615 66.8918 45.2872 67.0074 45.1344 67.0746C44.958 67.1522 44.8022 67.2606 44.6807 67.3558C44.4789 67.514 44.2762 67.7123 44.0967 67.9029C44.0894 67.8906 44.0821 67.8782 44.0748 67.8658C43.8859 67.5472 43.6571 67.1944 43.4131 66.9018C43.2912 66.7555 43.1488 66.604 42.9892 66.4761C42.8392 66.3558 42.6119 66.2054 42.3217 66.1491C41.8069 66.049 41.2725 65.9483 40.7265 65.8454C39.3528 65.5866 37.906 65.314 36.5133 65.0033C34.5583 64.5671 32.8065 64.0756 31.6047 63.4901C27.9957 61.7321 21.8009 57.8426 19.1372 56.1045L19.0136 56.0239L18.8712 55.9869C18.0681 55.7783 16.8044 55.5276 15.5996 55.4537C14.9986 55.4169 14.3777 55.4216 13.8213 55.512C13.3353 55.591 12.7812 55.7533 12.3547 56.1188C12.2916 56.1079 12.1912 56.0817 12.0481 56.0244C11.6374 55.8599 11.0922 55.5291 10.4685 55.0745C9.28794 54.2138 7.9984 53.0373 7.12889 52.1718C6.66563 51.1612 6.00697 49.684 5.45512 48.3589C5.16488 47.6619 4.90831 47.0169 4.72574 46.5078C4.63416 46.2524 4.56527 46.0424 4.52045 45.8831C4.48148 45.7447 4.47269 45.6892 4.47269 45.6892C4.47182 45.6013 4.46523 45.5083 4.44972 45.4127C4.52435 45.4132 4.59895 45.4133 4.67339 45.4128C5.3315 45.4083 6.03744 45.3603 6.6088 45.2066C7.54851 44.9537 8.17582 44.1743 8.55893 43.5226C8.95932 42.8416 9.21138 42.0991 9.32685 41.605L7.56343 41.1849C7.48179 41.5342 7.29035 42.0965 7.00087 42.5889C6.6941 43.1107 6.38515 43.3736 6.14223 43.4389C5.79646 43.532 5.2746 43.5793 4.66111 43.5835C4.06264 43.5876 3.43543 43.5508 2.90898 43.5028C2.79346 43.4923 2.68355 43.4813 2.58069 43.4702C2.29901 42.8837 2.10227 42.0936 1.97816 41.2942C1.89274 40.744 1.84649 40.2215 1.82565 39.8097C2.35782 39.4859 3.0707 39.0908 3.81798 38.7496C4.82248 38.2911 5.75489 37.9937 6.37551 37.9937H6.61549L6.82399 37.8738C9.24628 36.4803 12.9039 34.3069 16.0052 32.3145C17.5538 31.3195 18.9778 30.3607 20.043 29.562C20.5737 29.164 21.0331 28.7927 21.3787 28.4674C21.5511 28.3053 21.7103 28.1404 21.8396 27.9779C21.9553 27.8325 22.1083 27.6145 22.1802 27.3491C22.3334 26.7837 22.4902 25.8853 22.6539 24.9471C22.7394 24.457 22.8268 23.956 22.9166 23.486C23.0536 22.7689 23.1995 22.0968 23.36 21.5494C23.5326 20.9608 23.6839 20.6585 23.7673 20.5605C24.0681 20.2072 25.0046 19.2698 26.1745 18.0986C26.6119 17.6608 27.082 17.1902 27.5636 16.7053C29.2819 14.9755 31.1444 13.0658 31.9283 12.0399C32.0021 11.9435 32.251 11.7268 32.7722 11.4049C33.2616 11.1028 33.9032 10.7599 34.6591 10.3909C36.1686 9.65388 38.0763 8.84015 40.0065 8.0721C41.9344 7.30501 43.8713 6.58884 45.4338 6.04681C47.0342 5.49164 48.1553 5.15029 48.5079 5.09112C49.1805 4.97828 50.2217 4.86917 51.1169 4.78723C51.4345 4.75817 51.7296 4.73288 51.9776 4.7124Z" fill="#373333"/>
<path d="M102.667 48.9463V21.7187H114.611C117.481 21.7187 119.705 22.3495 121.282 23.6111C122.859 24.847 123.647 26.5721 123.647 28.7863C123.647 30.2539 123.272 31.5155 122.523 32.5711C121.773 33.6268 120.739 34.3992 119.42 34.8884C120.971 35.3261 122.174 36.0985 123.027 37.2056C123.906 38.287 124.345 39.6645 124.345 41.338C124.345 43.7583 123.518 45.6378 121.863 46.9767C120.235 48.2898 117.959 48.9463 115.038 48.9463H102.667ZM107.437 33.2663H113.758C117.145 33.2663 118.839 31.9661 118.839 29.3656C118.839 26.7652 117.145 25.4649 113.758 25.4649H107.437V33.2663ZM107.437 45.2001H114.417C117.83 45.2001 119.537 43.8355 119.537 41.1063C119.537 38.3771 117.83 37.0125 114.417 37.0125H107.437V45.2001Z" fill="white"/>
<path d="M140.729 49.3325C136.981 49.3325 134.111 48.367 132.12 46.436C130.155 44.4792 129.173 41.5955 129.173 37.7849V21.7187H134.137V37.7463C134.137 40.1923 134.693 42.0332 135.804 43.2691C136.942 44.4792 138.584 45.0842 140.729 45.0842C145.099 45.0842 147.283 42.6383 147.283 37.7463V21.7187H152.209V37.7849C152.209 41.5955 151.239 44.4792 149.3 46.436C147.361 48.367 144.504 49.3325 140.729 49.3325Z" fill="white"/>
<path d="M157.998 48.9463V21.7187H169.865C172.864 21.7187 175.178 22.4396 176.807 23.8815C178.435 25.2976 179.25 27.293 179.25 29.8677C179.25 31.9017 178.72 33.5881 177.66 34.927C176.6 36.2401 175.074 37.1284 173.084 37.5918C174.402 38.0038 175.488 38.995 176.341 40.5656L180.917 48.9463H175.449L170.718 40.2567C170.253 39.407 169.697 38.8277 169.05 38.5187C168.43 38.2098 167.628 38.0553 166.646 38.0553H162.962V48.9463H157.998ZM162.962 34.3863H169.012C172.631 34.3863 174.441 32.9187 174.441 29.9836C174.441 27.0741 172.631 25.6194 169.012 25.6194H162.962V34.3863Z" fill="white"/>
<path d="M184.584 48.9463V21.7187H189.548V44.7367H202.656V48.9463H184.584Z" fill="white"/>
<path d="M206.36 48.9463V21.7187H211.324V48.9463H206.36Z" fill="white"/>
<path d="M217.268 48.9463V21.7187H220.99L235.688 40.7201V21.7187H240.303V48.9463H236.619L221.882 29.8677V48.9463H217.268Z" fill="white"/>
<path d="M259.424 49.3325C256.399 49.3325 253.84 48.7661 251.746 47.6332C249.677 46.5003 248.1 44.8911 247.014 42.8056C245.928 40.7201 245.386 38.2484 245.386 35.3904C245.386 32.5068 245.941 30.0222 247.053 27.9367C248.165 25.8254 249.768 24.2033 251.862 23.0705C253.956 21.9118 256.464 21.3325 259.385 21.3325C261.299 21.3325 263.095 21.6157 264.776 22.1822C266.456 22.7229 267.853 23.4824 268.964 24.4608L267.297 28.3229C266.082 27.3702 264.841 26.6879 263.574 26.276C262.307 25.864 260.911 25.658 259.385 25.658C256.49 25.658 254.292 26.4948 252.793 28.1684C251.319 29.8419 250.582 32.2493 250.582 35.3904C250.582 38.5573 251.345 40.9647 252.87 42.6125C254.396 44.2603 256.658 45.0842 259.657 45.0842C260.51 45.0842 261.376 45.0199 262.255 44.8911C263.16 44.7367 264.052 44.5178 264.931 44.2346V37.9008H258.649V34.2318H269.081V47.3242C267.814 47.9422 266.314 48.4314 264.582 48.7918C262.85 49.1523 261.131 49.3325 259.424 49.3325Z" fill="white"/>
<path d="M280.933 48.9463V25.8511H271.548V21.7187H295.282V25.8511H285.897V48.9463H280.933Z" fill="white"/>
<path d="M309.016 49.3325C306.379 49.3325 304.065 48.7532 302.074 47.5946C300.109 46.436 298.584 44.8139 297.498 42.7284C296.412 40.6171 295.869 38.1454 295.869 35.3132C295.869 32.4553 296.412 29.9836 297.498 27.898C298.584 25.8125 300.109 24.2033 302.074 23.0705C304.039 21.9118 306.353 21.3325 309.016 21.3325C311.679 21.3325 313.993 21.9118 315.957 23.0705C317.922 24.2033 319.448 25.8125 320.534 27.898C321.619 29.9836 322.162 32.4424 322.162 35.2746C322.162 38.1325 321.619 40.6171 320.534 42.7284C319.448 44.8139 317.922 46.436 315.957 47.5946C313.993 48.7532 311.679 49.3325 309.016 49.3325ZM309.016 45.0842C311.523 45.0842 313.475 44.2217 314.872 42.4967C316.268 40.7716 316.966 38.3771 316.966 35.3132C316.966 32.2236 316.268 29.8291 314.872 28.1298C313.501 26.4304 311.549 25.5808 309.016 25.5808C306.508 25.5808 304.556 26.4304 303.16 28.1298C301.764 29.8291 301.066 32.2236 301.066 35.3132C301.066 38.3771 301.764 40.7716 303.16 42.4967C304.556 44.2217 306.508 45.0842 309.016 45.0842Z" fill="white"/>
<path d="M327.21 48.9463V21.7187H330.933L345.631 40.7201V21.7187H350.246V48.9463H346.562L331.825 29.8677V48.9463H327.21Z" fill="white"/>
<rect x="102.667" y="64.002" width="248" height="4" fill="white"/>
</svg>
