<svg id="Layer_1" data-name="Layer 1" xmlns="http://www.w3.org/2000/svg" viewBox="0 0 880 127.87"><path d="M579.91,61.38v-.52a2.3,2.3,0,0,0-.52-.28l-.13.32-.24,0c.08.22.16.32.24.32C579.59,61.45,579.8,61.49,579.91,61.38Z" transform="translate(-60 -44.38)" style="fill:#898a8d"/><path d="M397,135l-.42-.42h-.27a1.64,1.64,0,0,0-.37.26s.1.1.19.3.15.27.18.23Z" transform="translate(-60 -44.38)" style="fill:#c2c5c8"/><path d="M568.1,132.82a.24.24,0,0,1-.26.27c-.21,0-.5-.25-.85-.74a.42.42,0,0,1,.48-.48c.14,0,.21.2.21.58A.74.74,0,0,0,568.1,132.82Z" transform="translate(-60 -44.38)" style="fill:#f4f4f4"/><path d="M572.28,133.25c0,.24-.16.37-.48.37l-.37-.16h-.79c0-.25-.21-.37-.64-.37a.6.6,0,0,0-.58.47c-.1.32-.23.48-.37.48l-.1-.11a5.85,5.85,0,0,0-.22-1,.92.92,0,0,0,.61-.24,1.21,1.21,0,0,0,.4-.5,0,0,0,0,0,0-.05h.37v.31a1.34,1.34,0,0,1,.47.16.74.74,0,0,0,.58-.31h.06c.28.42.47.63.58.63C572.1,132.93,572.28,133,572.28,133.25Z" transform="translate(-60 -44.38)" style="fill:#f4f4f4"/><path d="M573.7,133a.65.65,0,0,1-.37.11c-.1,0-.21-.11-.32-.32a.71.71,0,0,1,.32-.16.45.45,0,0,1,.37.21Z" transform="translate(-60 -44.38)" style="fill:#f4f4f4"/><path d="M575.39,131.87a2.73,2.73,0,0,0-.42-.05h-.58l-.37.05a4.17,4.17,0,0,0,0-.53l.63-.31A7.11,7.11,0,0,1,575.39,131.87Z" transform="translate(-60 -44.38)" style="fill:#f4f4f4"/><path d="M575.71,132.35a.85.85,0,0,1-.32.26,3.31,3.31,0,0,0,.32.85c-.53.1-.85.16-1,.16a1.56,1.56,0,0,1-.79-.21,1.9,1.9,0,0,0,0-.48c.07,0,.3-.19.69-.48a1.26,1.26,0,0,1,.68-.31A.43.43,0,0,1,575.71,132.35Z" transform="translate(-60 -44.38)" style="fill:#f4f4f4"/><path d="M131.47,90.19l-1.83,2-.41,3a19.27,19.27,0,0,0-3.06,2.24c-.27,0-1.9-.34-4.88-1l-2.45,1.63a5,5,0,0,1-3.66-.61,68.79,68.79,0,0,0-7.53,3.67l-1,2.44-4.28,2.45a22.67,22.67,0,0,0-.81,5.5l-1,.62.61,2.64.61,1.84.41.41c0,.4-.75,1-2.24,1.83l1.63,3.06-.46.82,1.2,2.25-.13.2v.81l-.41,2.64a4.58,4.58,0,0,0,.31,1.32,5,5,0,0,1,.3,1.33l-2,3a19.59,19.59,0,0,0,1.83,4.27l-1,2.44.41,2.44-1,1-2.44-1.23-1.84,1.23,2.24.81V147a5.89,5.89,0,0,1,2,4.89c1.36,0,2.37.88,3,2.64l-2,2.45,3,2.44,3.67-.82c.67-.27.54-.67-.41-1.22l2.85-1.22,3.87.82.41.4,2.64.21.41-.21-.61-.4a6.3,6.3,0,0,1,3.66-2.45l.21.41,2.24-1.22c-.41-.27-.14-.48.81-.61a15.56,15.56,0,0,0,6.72,3.66l.61,2.65-.61,1h.41l.81-.61a8.18,8.18,0,0,1,2.45,3,99.21,99.21,0,0,0-10,4.28,11.35,11.35,0,0,0-4.27-.61l-1.84.61-2.44-2.24a6.51,6.51,0,0,1-2.34.2,13.49,13.49,0,0,0-4.79,1c-2.17.68-3.6,1.09-4.28,1.22l-2.44-.81c-.54.68-1.83,1.35-3.87,2a4.12,4.12,0,0,1-2.44-.51,7,7,0,0,0-2.44-.71c-1.63,1.09-2.85,1.49-3.67,1.22a6.47,6.47,0,0,0-4.07-1.42l-2,1.22a13.56,13.56,0,0,1-5.5.2q-2-2.85-7.13-.81l-4.48-1v-.81l-1.63-1.84v-1.63c-2.58-.27-4.27-.88-5.09-1.83h1.22l.61-2c1.22-.81,3.06-2,5.5-3.46q1.83,1.43,3.06,1l1.83,2.44v.82l2.44,1.22,2-2.44,2.24-.21,1.22,1.22a1.23,1.23,0,0,1,1.22.21c1-.41,1.43-1.43,1.43-3A19.9,19.9,0,0,1,82,152.5l1.84-.61c.94.27,1.35.74,1.22,1.42a16.79,16.79,0,0,1-.62,2.44l2.45,1,1.22-1.22-2.85-3.05,1-1.23,2.44-.4.81-2.45c-.13-.54-.68-.74-1.62-.61-1.23.28-1.91.41-2,.41l-.81-2.44.61-1.22-.41-1.63c.13-.68.64-.82,1.55-.41a13.28,13.28,0,0,0,1.94.87l1.36-1.31a7,7,0,0,0-3.63-3.45l1.22-1.22-.2-1.22a10.94,10.94,0,0,0,3.05-2.43l-1.62-3c1.08-1.22,1.62-2,1.62-2.44-1.08-.54-1.29-1-.61-1.23l-1.63-4.27-2.64-.61,1.42-1.83,3.06-.21-1.43-2.85-1,1q-3.25,0-3.66-4.28,4.27-2.24,3.66-2.24a1.39,1.39,0,0,1,1,.41l1.43-1v-.61l-2.45-1.22v-1.42a7.48,7.48,0,0,1-2.64-6.52l-1.63-2a22.62,22.62,0,0,1-4.48.61l-1.63-2.23-3.06,1.83c-.68-.27-2.37-.75-5.09-1.43a29.67,29.67,0,0,0-2.85-2.24,5.57,5.57,0,0,0-.3-2.64A9.26,9.26,0,0,1,65.5,91h.81c.68,0,1-1,1-3l1.43-1.22c-.41-1.76-.21-2.65.61-2.65.95.41,1.29.68,1,.82,1.35.54,2.16.74,2.44.61a8.73,8.73,0,0,1,.81-.72,1.38,1.38,0,0,1,.82-.3c.41,0,.47.34.2,1l-.61,1.63h.82q1.62-2.65,7.94-1l2.85-1.83c1.08-.68,1.15-1.36.2-2L87.69,81c.27.27.58.2.92-.21a1.89,1.89,0,0,0,.51-1.22c0-.4-.28-.54-.82-.4l1-2.24-.4-2.45a3.73,3.73,0,0,1,2.84-2.64L90.54,70V66h-1l-.6-1.44.6-2.28L88.3,60.39q.81-2.28,5.91-3.1v-.83l2.65-2.27a3.43,3.43,0,0,1,1.62-3.09h2q.81-1,5.5-3.06c.13.28.27.55.41.82a3.06,3.06,0,0,1-.62,1l.62.2h2.44a7.11,7.11,0,0,0,1.93-.41,7.58,7.58,0,0,1,1.94-.41l.4-2.24h.61q3.68,1,13.44,1a25.12,25.12,0,0,1,4.07.82,7,7,0,0,0,4.08,0,10.19,10.19,0,0,1,4.07,3h1.43l-.21-.81,2-1,3.05,1.83.41,1.22-2.24,1a5.15,5.15,0,0,0-3-1l-.21.61c1.09,1,1.83,1.43,2.24,1.43s.68-.27.82-.82A3.92,3.92,0,0,1,148,58l1.83,1.22q-.81,6.93.61,9.57l-1.83,2.45c-.13.81.27,2.85,1.22,6.1A9.11,9.11,0,0,1,148,81v.2a14.73,14.73,0,0,1-4.27,3.06,9.11,9.11,0,0,0-1.63.2,8.09,8.09,0,0,1-1.43.2q-4.08,0-8.75-3.25t-7.74-3.87v-.82a11.75,11.75,0,0,1,.61-2.85,13.74,13.74,0,0,0,.61-2.44l.81-.82a13.61,13.61,0,0,0-.2-4.07q2.64-.6,7.94-2l-3.46-1.83v-.4a3.75,3.75,0,0,0-2.44,0c-2.85-2.17-4.69-3.26-5.5-3.26a22.43,22.43,0,0,0-5.09.61c-1.22,1.36-2.38,2-3.46,2h-3.67l-1.83,2.23a4.14,4.14,0,0,1-2.65,0L104,66.57V68.4l-3,3.47,1.22,3.25-1,2.85A11.65,11.65,0,0,0,105,80.42a7.53,7.53,0,0,1,3.26,2.64l-.61,1.84q1,1.42,4.88-.82l1.43.61a3.83,3.83,0,0,1,1,.41,1.82,1.82,0,0,0,1.42.2,6.56,6.56,0,0,1,2.44-2.85l1.64,1.63-1.23,1.43,1.83.61a11.21,11.21,0,0,1,3.26-.82l2.85.82,3.26,1.42Z" transform="translate(-60 -44.38)" style="fill:#fff"/><path d="M89.12,162.2l-2.65-2.65h-.2a2.34,2.34,0,0,0-1.84,1v.2l1.43,3C87.49,162.74,88.57,162.2,89.12,162.2Z" transform="translate(-60 -44.38)" style="fill:#c2c5c8"/><path d="M100.11,140.61a4.51,4.51,0,0,0-1-3.26c-1.5.68-2.24,1.36-2.24,2,0,1.63.61,2.44,1.83,2.44v-.2A5.41,5.41,0,0,0,100.11,140.61Z" transform="translate(-60 -44.38)" style="fill:#c2c5c8"/><path d="M406.17,137.16c-.14-.25-.3-.37-.48-.37a.41.41,0,0,0-.21.05l-.1.95.37-.08.37-.08C406.05,137.63,406.06,137.47,406.17,137.16Z" transform="translate(-60 -44.38)" style="fill:#c2c5c8"/><path d="M161.81,169.32a34.71,34.71,0,0,1-3.67-.2l-.2-1a3.17,3.17,0,0,1-1.43-.41v-.2c.68-.68,1.22-1,1.63-1l.81.61Z" transform="translate(-60 -44.38)" style="fill:#c2c5c8"/><path d="M252.82,96.5A11.9,11.9,0,0,1,251,99.76c-.54.27-1,.07-1.22-.61L247.53,101l-.21,2.45-1.63,1,.62,2.45a23.37,23.37,0,0,0-6.93,4.48,20.71,20.71,0,0,1-5.49-2l-2.86.81c-1.76-.67-2.64-1.69-2.64-3h-1l-2.65-1.83h-.61L221.06,102l3.66-2.85-2.44-2-1-2.85-.81-.2L218,95.28c-1.63-1-2.78-1.29-3.46-1a18.1,18.1,0,0,1-3.87,3.06v2.44L208.84,102l-2.24.61-1.22,2.65.41,1.63a7,7,0,0,1-2.86,3l-1.22,2,.62,2.24a6.66,6.66,0,0,0-.62,2c-1,2.45-1.56,3.67-1.83,3.67l1.22,1.22q-1.62,6.31-3.26,7.94a12.87,12.87,0,0,1-.4,4.28L196,134a6.37,6.37,0,0,1,3.06,4.07l-1.23,1.22v.82a17.69,17.69,0,0,0,2,1.62l-.81,4.28A6.7,6.7,0,0,0,196,149c1.23.82,3.12,1.23,5.7,1.23l1.84-1.23h2.85c.67,0,2,.69,3.87,2l-1.84,2.85H209c1.09,0,2.11-.74,3.06-2.24h4.07v-.2l1.22-.61,1.83.2a1.58,1.58,0,0,0,1.43.61l.41-.81h1.83l-.41.81,1.63,1.22-.4.61a11.69,11.69,0,0,1,3.66,5.5c.27-.27.61-.23,1,.1s.47.65.2.92a4.81,4.81,0,0,1-2.44,1.83c-1.9-.13-5-.47-9.37-1l.61-1.23a19,19,0,0,0-4.88,1.12c-2.31.75-3.53,1.12-3.67,1.12a3.19,3.19,0,0,1-2.85-1.63h-4.28l.62,1.84-.82,1a1.94,1.94,0,0,1-1.32-.71,5.1,5.1,0,0,0-1.12-.91l-1.63.61a3,3,0,0,1,.61,2.23,3.27,3.27,0,0,1-3.06-2.23l-2.44-.82-.81.82.81,1.83c-.13.4-.61.61-1.42.61a11.4,11.4,0,0,0-2.65,1.12,8.59,8.59,0,0,1-3.26,1.12,6.09,6.09,0,0,1-3.66-1.63l-2.45,2.24-1.22-.41-2,1-.62.2.62-.2a12.8,12.8,0,0,0-4.08-.61,32.29,32.29,0,0,0-4.48.81v-.61l-1.22-.81-2.44.2c-.95-1.35-3.13-3-6.52-4.88l1-1.22a2.21,2.21,0,0,0,.81.4l2.24-1.22-.6-1.83-.41.61-2,.61-1.22-1.22a53.45,53.45,0,0,1,7.33-4.69l.61-.61v-3.66h1.42a2.77,2.77,0,0,1,1.84-1.22q2.24,1.42,5.9,4.07a3.7,3.7,0,0,1,3.06-1.63l.61-.61,1.83.61a22.49,22.49,0,0,0,5.09-.61,3.32,3.32,0,0,0,.41-2q-3.87-2.64-3.87-3.46a1.86,1.86,0,0,1,.2-.81l-2.24-1.63v-.21l1.84-1.62-1.23-1.84.61-1.42.62-1.22a25.8,25.8,0,0,1-1.43-4.28h3v-.61l-1.83-1.83.82-1.84L179.72,123a6.17,6.17,0,0,1,3.67-3.25l-.82-.41-3,1a5.19,5.19,0,0,1-2.24-2.86l3.67-1.22a2.56,2.56,0,0,1,1.83-1.42,3.56,3.56,0,0,0-3.26-1.63l-.41-.61,1.63-2v-1.63l1.22-2v-.41l.82-1.22a15.59,15.59,0,0,1-2.45-2.65,4.32,4.32,0,0,1,3.06-2.85l-5.5-3.67h-.2l-.61.41.2.21-.82,1.22L173,96.09l-.2.41A5.06,5.06,0,0,0,171,94.26l-2.24.61a63.65,63.65,0,0,0-5.5-3.66l-1.42.41a13.77,13.77,0,0,1-3.47-2.24l1.23-1.84-.21-2,1.23-1.22L159,81.84c.68-1.22,2.38-2,5.1-2.24a8.92,8.92,0,0,0,6.51-3.66l2.44.61c.95-.54,2.92-.82,5.91-.82.54,0,1.42.62,2.65,1.84,0-.27,1-.75,3.15-1.43s3.29-1,3.57-.81L191.33,77c.13-.27.74-.41,1.83-.41q1,0,3.06,2.85l1.62-.41,2,1.63-2,3.06,1.43,3h1l2.64-1.63.62-1.42,4.68-.41a4.79,4.79,0,0,0,.61-4.48l2-2.24a1.1,1.1,0,0,1,.81.51,1.1,1.1,0,0,0,.82.51,25,25,0,0,0,4.68-.82c2.3-.54,3.87-.88,4.68-1a6.94,6.94,0,0,0,2.24-3l1.83.81.61,1.23-.4.61,1.22.61a9,9,0,0,1,3.46-.21c1.36,1.36,2.44,2,3.26,2l4.89-.2-1.23-1,1.83-1.43A9.72,9.72,0,0,1,243.05,77l.61,4.48-1.63.61v.61l2.44,1.22a5.72,5.72,0,0,0,1.84,3.46,10.7,10.7,0,0,1,3.05-1.22c.27,0,.34.34.2,1s-.2,1.29-.2,1.42A23.38,23.38,0,0,0,252.82,96.5Z" transform="translate(-60 -44.38)" style="fill:#fff"/><path d="M169.44,80.52c.07.61.24.92.51.92q2.64,0,2.85-1l.61-2-4.27,1A2.33,2.33,0,0,1,169.44,80.52Z" transform="translate(-60 -44.38)" style="fill:#c2c5c8"/><path d="M178.3,104.57a2.19,2.19,0,0,1-1.63.61,1.36,1.36,0,0,1-1.22-.61v-1.22h1.42C177.55,103.35,178,103.76,178.3,104.57Z" transform="translate(-60 -44.38)" style="fill:#c2c5c8"/><path d="M185.83,146.72l-.81-2.44a4.69,4.69,0,0,0-1.83-.61c-.41,0-1,.4-1.84,1.22.54,1,1,1.42,1.43,1.42C185.08,146.31,186.1,146.45,185.83,146.72Z" transform="translate(-60 -44.38)" style="fill:#c2c5c8"/><path d="M188.89,138.78a3.34,3.34,0,0,0-1.43-.41q-3.26,0-3.26,2.85c0,.68,1.09,1.29,3.26,1.84v-1.63A2.82,2.82,0,0,0,188.89,138.78Z" transform="translate(-60 -44.38)" style="fill:#c2c5c8"/><path d="M190.31,83.88l-.41-2a4.08,4.08,0,0,1-2.24.21,5.75,5.75,0,0,1-.81.61c.41,1.08.75,1.63,1,1.63Z" transform="translate(-60 -44.38)" style="fill:#c2c5c8"/><path d="M202.53,144.89c0,1.36-.48,2-1.43,2s-1.22-.62-1.22-1.84c0-.13.21-.41.61-.81l1.43-1.22C202.19,142.92,202.39,143.53,202.53,144.89Z" transform="translate(-60 -44.38)" style="fill:#c2c5c8"/><path d="M221.87,155.48h-1.22l-1.63-.21c.14.82,0,1.22-.41,1.22a17.19,17.19,0,0,0-.4,3.06Q221.87,158.53,221.87,155.48Z" transform="translate(-60 -44.38)" style="fill:#c2c5c8"/><path d="M224.72,91.82h-2.24v.41a2.43,2.43,0,0,0-1.83,1.42,25.77,25.77,0,0,0,2.44,1l1-.61A4.26,4.26,0,0,1,224.72,91.82Z" transform="translate(-60 -44.38)" style="fill:#c2c5c8"/><path d="M232.87,107.42l-.41-2.64-2-.41a11.37,11.37,0,0,0-2.64,2.24l.81.61A38.33,38.33,0,0,0,232.87,107.42Z" transform="translate(-60 -44.38)" style="fill:#c2c5c8"/><path d="M233.89,73.9c0,.14-.45.41-1.33.82a5.93,5.93,0,0,1-1.73.61c-1,0-1.63-.88-2-2.65l1.83-.81a4.49,4.49,0,0,1,1.93.81C233.44,73.22,233.89,73.63,233.89,73.9Z" transform="translate(-60 -44.38)" style="fill:#c2c5c8"/><path d="M324.29,85.51l-.14.06C324,85.39,324,85.34,324.29,85.51Zm-41.74,81c-.65-.23.19.69,0,0Zm2-15.47a1.76,1.76,0,0,0,1.22.61,1.44,1.44,0,0,0,1.63-1.63,1.08,1.08,0,0,0-1.22-1.22C285.53,148.83,285,149.58,284.58,151.07Zm53.55-42.55v1l1.43.21,1.63,1.83a15.57,15.57,0,0,0-.41,1.83h.41a7.81,7.81,0,0,1-.61,3.06l.2.61-1.22,2.24,1,4.48a2.62,2.62,0,0,1-1.63,2.44l-3.06-.81a10.9,10.9,0,0,1-4.88,1.22l-2.45,1.83a2.86,2.86,0,0,0-1.42-.61l-1,.61v.61l-1.83.82q-2.44-.83-5.2-1.63a10.08,10.08,0,0,0-4.78-.41l-3.46,2-1.22-.82.4-1.22c-1.49-.68-2.51-.82-3-.41l-1.83-.81-.61.61a33.16,33.16,0,0,1-6.52,1.32,28.4,28.4,0,0,1-6.11.51c0-1.22-1.21-1-2-1.65l-5.09.43c-2.18,0-3.6.88-4.28,2.65l-3.05.61c.67.81.4,1,.4,1l2,.21-1,3.46,1.33,1.3c-.27.41,1,.94.5,1.35a21.57,21.57,0,0,0,1.12,2.85,8.47,8.47,0,0,1,.92,3,2.85,2.85,0,0,1-.19,1.05c.72,2.45,1.52,5.33,2.43,6.24-1.22,1.5-.39,2.76-.79,3.81l3,.47s2.31,3.15,2.85,1.8c.41.6.81.9,1.22.9a23.74,23.74,0,0,0,4.28-1.35c.13-.3-.07-.75-.61-1.35.4-.9.94-1.35,1.63-1.35a12.78,12.78,0,0,1,1.22,2,16.84,16.84,0,0,1,2.13.22,17.59,17.59,0,0,0,2.34.23v-1.36a7.62,7.62,0,0,1,2.25-.67H306q0,4.72,1.63,4.73c1,0,1.43-.68,1.43-2a8.11,8.11,0,0,0,1.93-1.35,6,6,0,0,1,1.53-1.12l1.22,1.35c1.49,0,2.37.22,2.65.67a10.46,10.46,0,0,1,.81,1.8c.82-1.2.5-2.5,2.67-2.5.41.9.79-2.07,1.61-1.32l.81-1.13c-.54-1.05,1.22,2.33,1.22,1.13l.61-1.58,1.52-2.16-.91-3a2.66,2.66,0,0,1,.18-1,11.23,11.23,0,0,1-1.4-3.58,3.33,3.33,0,0,1,.71-1.42c.48-.68.92-1,1.33-1s1.15.44,2.06.61c.25-1.19.52-2.14.91-2,.68-.9,2.55-7.49,4.15-3.82.14-1.05.49.72,1.71.72.67,0,1.76,4,2.57,4.45l-.41,2h-3.05a2.92,2.92,0,0,0-.82,2,2.38,2.38,0,0,0,1.22,2.26,61,61,0,0,0-3.05,7.2,15.13,15.13,0,0,1,1.83.67,9,9,0,0,1,.21,2,3,3,0,0,1-.61,2H329a11.15,11.15,0,0,0-.41,2.7q-.81.45-6.31,3.38a4.13,4.13,0,0,1-1.83,2,3.72,3.72,0,0,1-1.84,0,10.23,10.23,0,0,0-2.23-.45,2,2,0,0,0-1.84,1.13l1.22,2.25-1.42.45a5.65,5.65,0,0,0-2.85-.45l-1.22.45-1.22-.45-.82-1.58a23.46,23.46,0,0,1-3.26-1.12c-1.49-.6-.54,1.35-1.22,1.35a14.31,14.31,0,0,1-2.35-.66c.19.13.32.26.32.43,0,1.05-.62,1.58-1.84,1.58h-7.53a16.19,16.19,0,0,0-3.46-2l.4-.22a8.79,8.79,0,0,1-2.24-1.8H283a1.93,1.93,0,0,0-.4-.19v0l-2-2.48a1.57,1.57,0,0,0-2.44.68c-1,.45-2.65-2.93-2.65-2.93l-.61-2-1-1.35c-.27-.6-1.51-1.53-1.64-2.58-3.22.57-2.24-3.26-3.73-5.06.95-1.06.15-2.27-.69-3.33l-1.07.18q-2.85,0-2.85-3.87l-.81-1a10.37,10.37,0,0,0,1.42-2.44,28.88,28.88,0,0,0-3.05-7.33l1.22-1.22a15.57,15.57,0,0,1-2.44-2.65l.61-1.22,1-.61a28.74,28.74,0,0,1,.81-3.46,18.08,18.08,0,0,1-3.87-1.84,19.1,19.1,0,0,0,4.48-2l-2.65-2v-1.42h-1.22a2.22,2.22,0,0,1-.4-1.84A5.51,5.51,0,0,0,263,113.2l-1-1.83.61-1.84a5.25,5.25,0,0,0-2-1.83,3.73,3.73,0,0,1,3.67-1.63c.13-.13,0-.34-.41-.61l2.24-1.42-1.63-2.45v-1.22c0,.14.62.2,1.84.2V99.35l-.21-2.44,1.84-.2a2.55,2.55,0,0,0,0-1.43A4.93,4.93,0,0,1,269.72,93l-1.22-.41V91.41c1.9,0,2.57-.27,2-.81a19.31,19.31,0,0,1,4.28-3.06v-.61h1.63l-.41.61,1.22.21,1.63-.21-.61-1,.2-.21-1.42-1.83.81-.41,1.63.41a6.1,6.1,0,0,0,3.26-1l-.61-1.22,2.44-1.83h.61l1.23,1.22,1-.82-1-1.22,1.83-.4L290.49,81a4.69,4.69,0,0,1,1.83-.61,6.93,6.93,0,0,1,3.26,1.22l-.21.61c0,.27.48.81,1.43,1.63l.61-.61a58.19,58.19,0,0,1,11.4-1q1.83,0,5.09,2.24c1.09-.27,2.31-2,3.67-1.22a7.06,7.06,0,0,0,2.85,1.22l1.22-.2h1.43c.3,1.32.83,1.35,1.08,1.28.51.66,3.33,3.22,4.41,2.79,2.17.14,3.8.34,4.89,4.68l1,.41,2.44,1.42,2,2,.39,2.35c2.38.94,2.66,2.54,2.66,5,0,1.36-.81,2.38-2.44,3.05v.62Zm-37.26,55c0,.68.27,1,.82,1,.81,0,1.22-.54,1.22-1.63s-.28.48-.82.2C301.28,164.3,300.87,163.08,300.87,163.49ZM285.19,87.54c-.81-1.22-2.31-1.83-4.48-1.83a4,4,0,0,0-1.22.2c.41.28.88.62,1.43,1a.82.82,0,0,0-.21.61,8.81,8.81,0,0,0,2.45,1.23l2-.41Zm3.67-1.42.81.81c3.12,0,2,.41,2-.81,0-.13-.34-.51-1-1.12s-.95-1-.81-1.12l-1.84.81C288,85.51,289.67,84.63,288.86,86.12Zm42.68,18.21a9.4,9.4,0,0,1-2.3-2.3l1.63-1.11c-2-.38-1.7-.78-2.21-1.1a6.93,6.93,0,0,1-1.15-1c-.51.38-1.09-1.21-1.73-1-.51-.25-1.08-.57-1.72-1H321a63.73,63.73,0,0,0-6.32-2.3,7.6,7.6,0,0,0-2.69,2.3h-3.64a15.86,15.86,0,0,1-3.84-.77c-.89.77-2.3,1.92-4.21,3.45-1.16-1.4-2.11-2.1-2.88-2.1-1.15,0-1.73.7-1.73,2.1a2.9,2.9,0,0,0,.77,1.73l-3.07,2.3c-2.3,0-3.45.58-3.45,1.73l-.38,4q0,3.07,4,3.07a8.75,8.75,0,0,1,2.3-1.15,28.13,28.13,0,0,1,3.07.58c1.41.26,2.3.26,2.69,0,1.4,1.4,2.55,2.11,3.45,2.11a4.56,4.56,0,0,1-.77,1.15h2.49a2.8,2.8,0,0,1,1.54.76,1,1,0,0,0,1.15,1.15,3,3,0,0,0,.76-.19V116l-.19-.2a6.19,6.19,0,0,1,5.18-2.49,7.09,7.09,0,0,1,1.44.29,6.75,6.75,0,0,0,1.63.29l1.15-.39V113l-.58-.58a1.18,1.18,0,0,1,1.15-.19l.58,1.15a2,2,0,0,0-.77,1.73,15.38,15.38,0,0,1,3,.38,14.3,14.3,0,0,0,2.78.38,2.6,2.6,0,0,0,1.92-.76l-.19-.39.57-1.72a5.6,5.6,0,0,0-.95-2.88Q331,106.06,331.54,104.33Zm6.18,3a2,2,0,0,0-.81-1.22,1.08,1.08,0,0,0-1.22,1.22c0,.69.41,1,1.22,1Z" transform="translate(-60 -44.38)" style="fill:#fff"/><path d="M452,88.41a4.1,4.1,0,0,0-.21-1.63l-2.44-1.23h-1.63A2.16,2.16,0,0,0,445.23,88a2.52,2.52,0,0,0,2.85,2.85C450.66,90.85,452,90,452,88.41Z" transform="translate(-60 -44.38)" style="fill:#f4f4f4"/><path d="M558.64,83.68l.2-1.84-2-1.83a8.42,8.42,0,0,1-3.67,0,16.48,16.48,0,0,0-3.46-.61,5.2,5.2,0,0,0-1.83.2l-1.22-1.42-2.45-.41a4.13,4.13,0,0,0-3,1,28.8,28.8,0,0,1-4.89,0,17.94,17.94,0,0,0-5.09.61l-.61,1.83-2.85-1-1.43,1.84,1.84,2.24,2.65-1.23,3.66,1.23-.2,3-4.08.61-2,1.83q1,4.08,9.36,5.7l.62,1.23-.21.4c-1,0-1.49-.2-1.63-.61-1.36-.13-2-.27-2-.41a5.1,5.1,0,0,0-4.28,1.84l1.22,1.22a6.75,6.75,0,0,1-1.83,3.67l.2.61-1.22,1.62a8.17,8.17,0,0,1,1.63,2.45l-1,.81c-1.22-.27-1.83-.47-1.83-.61a38.61,38.61,0,0,0-3.87,2.85V113l2.45,2.44-2.24,1.42a9.8,9.8,0,0,1-1.84,3.47l1.23,1.42a9.73,9.73,0,0,0-3.06,3.46,4.13,4.13,0,0,0,3.06,4.28,18.75,18.75,0,0,0-5.71,3l-1.62-1-3.87-.2-.62-2.44V124.6a12.85,12.85,0,0,0-2.24-2.44,19.64,19.64,0,0,1,2.86-4.28,26.91,26.91,0,0,1-4.08-1.22,4.63,4.63,0,0,1,1.63-3.66c-.13-.41.14-1.16.82-2.24l-.61-3.87-.62.61-2.44-2a8,8,0,0,0,1-3.46c0-1-.45-.85-.68-.71,1.39-.92.34-1.9.48-3a2.07,2.07,0,0,0,1.62-.41l-2.85-3.67,1.84-.61.2-3.26q-1.21-1.22-5.5-1l-1-.82v-.4l1.62-2.45V83.88l-1.83-.2c-.41,0-4-1.43-6.72-.21-.4,1.9-1.22,1.77-2.44,3.67l-1.43,3a3.54,3.54,0,0,1-3.25,1.63s.5,8.56-3.67,14.66c-1.33,2-1.16,8.9.2,11.11L480,122.85s2.44,2.78,1.36,4.41l1.13,2.23c-.82,1.22-2.28,1.92-3.5,2.86.13.14-.75.11-1.7,1.87-1.36.41-.81-1.8-2-2.89l-1.35-1.86c-.56-.92.35-1.1.67-1.13-.18,0-.6,0-1.45-.07l-1.83.61a3.51,3.51,0,0,1-1.42-3.06,6,6,0,0,1,.4-2.24c.14-.13-.13-.94-.81-2.44l-1.81-.81c0-.25.16-1.6.38-4.08,0-1.49.91-2.83-.58-3.92,2.44-2.31,1.94-4.15,1.8-5.65V103.1l-1.39-.46a3.73,3.73,0,0,0-.92-2.7c1.19-2.88-2.78-9.68-.33-10a1.93,1.93,0,0,0,1.83-1.83c2.85,0,4.28-.62,4.28-1.84a10,10,0,0,1,3-.61V82.45c-.54-.4-2.24-.61-5.09-.61q-4.68,0-6.52,1.84l-.2-1.63c-2.72-.14-4.75-.21-6.11-.21-.81-1.49-1.63-2.24-2.44-2.24A2.76,2.76,0,0,0,453,80.82a11.61,11.61,0,0,1-1.22,1.63,5.57,5.57,0,0,1-.4,2.65,3.88,3.88,0,0,0-3.06-1.42c-.95,0-1.42.88-1.42,2.64,0,1.09.81,1.63,2.44,1.63a5.39,5.39,0,0,1,1.22,1.22,13,13,0,0,0,3.26.82v.4a5.37,5.37,0,0,0-.82,3.06c0,.41,1,1.36,2.86,2.85s2.85,2.58,2.85,3.26a4.75,4.75,0,0,1-.41,1.42,4.74,4.74,0,0,0-.41,1.63,44.87,44.87,0,0,0,.29,7l-.9.53.21,3.67,1.83,1a45.26,45.26,0,0,1,.61,6.31v4.07l2.85,1.43v.61l-2.24,1.83-.61,5.3,2.24,1.22a33.37,33.37,0,0,1-4.08,3.87l.41,1.22a7.86,7.86,0,0,1,5.09,2.44A35.44,35.44,0,0,0,464,148a28,28,0,0,0-.41,5.29,5.06,5.06,0,0,1,1.63,3.67l-1,2.44a9.69,9.69,0,0,0,4.69,3.05l-.41.82q2.24,2.85,4.89,2.85a2.72,2.72,0,0,0,1.83-.41,57.13,57.13,0,0,1,7.33,1.83c1.76-.13,2.94-2.8,2.94-2.8a17.75,17.75,0,0,1,2.35.16l-.4-1,2,.81a15.15,15.15,0,0,1,1.84-3.05c3.93.54-1.16-1.15,1-1,1.9-.54-.72-1,0-2.33l-.22-1.1.55-1.38c0-.58.5-.59.47-1.1-2.54,0,.26-.62.26-1.83v-.42a1,1,0,0,1-.36-.43c0,.08,0,.16-.05.24L491,147.81,487.78,146a5,5,0,0,0,.82-2.85,3.36,3.36,0,0,0-1.83-2.65l1-1.22a20,20,0,0,1-3.66-2.85,15.49,15.49,0,0,1,3.87-2l1-3.67a4.44,4.44,0,0,1,2.44-1l1.42.41.61-.61v-.41l-2.85-1.22a4.47,4.47,0,0,1-2.24-2.65,5.15,5.15,0,0,0,1.84-3.46c1.22-.41,1.83-2.44,1.83-6.11,1.22-.54,1.83-1.9,1.83-4.07v-.81c-.41-.41,3.12-.68,2.45-.82a4.74,4.74,0,0,1-1.43-3,6.08,6.08,0,0,1,.61-2,6.11,6.11,0,0,0,.61-2c0-1.23-.41-1.91-1.22-2l-.41-.41,1.22-.81h1.84l-2.45-1.22,2,.81,1-.2a20.79,20.79,0,0,0,1.42,3,6.08,6.08,0,0,0-.81,3c1.63,1.09,2.44,2,2.44,2.65l-3.05,3.06a11.46,11.46,0,0,1,3.26,3.46v.61l-1.23,1.83a2.6,2.6,0,0,0-1.22,1.22,13,13,0,0,1,1.83,3.06c1.5.81,2.24,1.62,2.24,2.44a7.68,7.68,0,0,1-.61,2.44l-1.63.21,1,.61-.4.61,1.83,1.83v.61l.14.16.06.05h0c.3.36.11.19,0,0l-1,1.17h-1.22v.2A1.83,1.83,0,0,0,500,130.1l-.41-.41a3.75,3.75,0,0,0-1.83,1.22v1.63a2.56,2.56,0,0,1,.81,1.84l-.2.81a26.72,26.72,0,0,0,4.28.41l.61.81c.27,2.44-.28,3.67-1.63,3.67l-.82-.21a9,9,0,0,1-.2,1.83,20.83,20.83,0,0,0,2.44,2.45,4.87,4.87,0,0,0-2.85,2c-2.17,1.23-.53,1.35-3,2.16,0,.53.65,2.93.57,3.5.16-.16,1.18,1.47,1.18,1.47.27.81,1.09,1.22,2.45,1.22a4.27,4.27,0,0,1-.82,2.45c-.41-.5-.79-.92-1.13-1.27l-.28-.27a7.51,7.51,0,0,1,.07,1.57l.76.2.17,1a61.74,61.74,0,0,0,7.13,4.48l-1.45,1.7,1.4,1.14c2.58,0,.18-.74,2.9,1.84.81.13,3.87.68,5.09,1.63s2.24-2.65,3.06-2.65h.61l2.44.21c-.14-.14.88-.55,3-1.23,4.08-4.34,6-4.13,5.7-7.53V157l1.84-1.23c0-.81.07-1.86.2-3.15s.2-2.21.2-2.75V146l1.43-1.22.81-7.33q.81-5.91,3.26-5.91a7,7,0,0,0,2-3.87l-1.22-3.05,2.44-1.63a9,9,0,0,1-1.43-3.25v-1.63l1.43-1.43-2-6.11-1-.61q0-1.22,2.23-4.28v-1.83a16.88,16.88,0,0,0,2.65-2.24l-1.42-2a2.59,2.59,0,0,0,.2-1.83l2.85-1.23-.41-1L545.81,93q7.53-1.22,11.2-3.26l-2.44-2.44h-1.84l-.2-1.22V84.49Z" transform="translate(-60 -44.38)" style="fill:#fff"/><path d="M487.78,153v-.2a.86.86,0,0,1,.61-.2,3.28,3.28,0,0,1,1.43.4q-.81,3.06-3.05,3.06a4.85,4.85,0,0,1-1.84-.61C486.83,154.25,487.78,153.44,487.78,153Z" transform="translate(-60 -44.38)" style="fill:#f4f4f4"/><path d="M505.66,153.44c-.68,0-1-.61-1.05-1.8l.16-.13c.24-1,.41-1.74.53-2.2h.53v1.24c.59.55.89,1,.89,1.38C506.72,152.94,506.37,153.44,505.66,153.44Z" transform="translate(-60 -44.38)" style="fill:#f4f4f4"/><path d="M531.76,118c-1.22,0-1.83-.54-1.83-1.63a1.08,1.08,0,0,1,1.22-1.22c1.36,0,2,.41,2,1.22C533.19,117.47,532.71,118,531.76,118Z" transform="translate(-60 -44.38)" style="fill:#f4f4f4"/><path d="M533,111.29a3.63,3.63,0,0,1-2.24-1v-.61a2.9,2.9,0,0,1,1.22-.2,16.46,16.46,0,0,0,2.44.81A5.41,5.41,0,0,1,533,111.29Z" transform="translate(-60 -44.38)" style="fill:#f4f4f4"/><path d="M537.46,104a2.48,2.48,0,0,1-1.83-.61c0-.81.54-1.22,1.63-1.22h.61a9.89,9.89,0,0,1,1.83.2.79.79,0,0,0,.21.61A2.93,2.93,0,0,1,537.46,104Z" transform="translate(-60 -44.38)" style="fill:#f4f4f4"/><path d="M548.46,96.55c-4.62,0-7.33.34-8.15,1-1.22,0-1.83-.54-1.83-1.63,0-.54.48-.82,1.43-.82a.82.82,0,0,1,.61.21h1.22c.41,0,.61-.82.61-2.45a2.58,2.58,0,0,1,1.73.92,2.74,2.74,0,0,0,1.94.92h2.44Z" transform="translate(-60 -44.38)" style="fill:#f4f4f4"/><path d="M569.43,154.05c-1.09,0-1.63.41-1.63,1.22,0,1.91.61,2.85,1.83,2.85a7.13,7.13,0,0,0,2.24-.4l.21-2C572.08,154.59,571.19,154.05,569.43,154.05Z" transform="translate(-60 -44.38)" style="fill:#f4f4f4"/><path d="M625.83,88.18l3.66,1.23q2.25,3.27,5.91,10a8.58,8.58,0,0,1,2,3.48,23.72,23.72,0,0,0-.82,3.26c0,.41.21,1.91.61,4.49q.21,1.43-1.22,4.49l1.83,1.84c.82-.41,1.23-.21,1.23.61a17.58,17.58,0,0,1-2.45,5.51,10.48,10.48,0,0,0,2.45,2.45L637.84,127v1.23a3.1,3.1,0,0,1-2.24,1.33,2.66,2.66,0,0,0-2,1.12,6.37,6.37,0,0,1,3,4.08,6.32,6.32,0,0,0-1.22,3.88l1.22,1.83c-1.35,1.36-3.73,2.73-7.13,4.08l-.81,2.45.81,3.06q-1.83,1.23-5.49,3.88l.61,1.84q-2.25,6.12-12.83,6.12l-2,.41c-.41,2.72-.62,4.15-.62,4.28l-1.83.82a6.65,6.65,0,0,0-4.27-1.42v.61l-2.85,3a.54.54,0,0,1,.61.61l-2,1.22-4.27-2.85a19.51,19.51,0,0,1-9.17-2c0-2.86-1.7-4.28-5.09-4.28q.62,0-5.9.61l-.61-.61a12.62,12.62,0,0,1-3.06-1l-1.63,1h-2.44q0-4.07-3.87-9a17.42,17.42,0,0,0,.21-6.92l1.83-2.85a20.27,20.27,0,0,0-2-3.06v-.81h1.22l1.43-1.22a36.9,36.9,0,0,0-3.87-5.91l2-1.22a8.54,8.54,0,0,0,.4-3.26l.21-1q-1.64-2.64-3.26-3.05a13.19,13.19,0,0,0-3.46-.2l-.21-.61,2-2.24a4.68,4.68,0,0,0,3-1.84l-2.44-2.64c.95-1.22,1.7-1.84,2.24-1.84l3-5.49-1-2.24a13.69,13.69,0,0,0,2.44-7.13V98.34a2.54,2.54,0,0,0,1.83-1.43L570,96.3a10,10,0,0,1,3.77-3.77,15.51,15.51,0,0,0,3.56-2.75l-1.63-.2L578,88.36V88a8.28,8.28,0,0,1,4.48-1.42l-2.65-.62L587.15,81q3-1.64,8.55-1.63h.2l2.85-2.17a6.26,6.26,0,0,1,3.87-1.09l1.83.82-.2.61,1.22,1a5.16,5.16,0,0,1,2.65-2.44l1.22.61c-.14.28,1.86,1.19,6,2.76s6.17,2.48,6.1,2.76.65,1.29,2.14,3.06A22,22,0,0,1,625.83,88.18Zm-2.44,39.88a5.75,5.75,0,0,1,1.83-2.44c-.41-3-.61-4.61-.61-4.89l-.61-1.22a8.12,8.12,0,0,1,1.22-1.63c0-1.35-.88-2.44-2.65-3.26L622,113l-.61-.21q0-6.11-4.68-7.74l-.82-2.44a9.44,9.44,0,0,1-2.85-1.42,21,21,0,0,0-2-4.89,2,2,0,0,1-1.84-1,77.39,77.39,0,0,1-11.6-2.44,87.17,87.17,0,0,1-10.38,1.83,24.09,24.09,0,0,1-2.86,2.24,4.43,4.43,0,0,1-1.42,1.83V100c-1,.41-1.5.89-1.63,1.43l-3.67,1.22v5.5c-.52,1-.63,2.51-.31,4.68l-.48.82a3.83,3.83,0,0,1-.63,2.85l.2,2a8,8,0,0,1-.81,2.45l-1,.61A24.34,24.34,0,0,0,573.3,127c0,.69.78,2.79,2.34,6.32s2.75,5.43,3.56,5.7l-.61,1.42a9.79,9.79,0,0,0,2.34,2.85c1.29,1.23,1.94,2.24,1.94,3.06q0,6.31,4.48,8.55l-.61,1.22a14.67,14.67,0,0,0,4.27-.41,38.22,38.22,0,0,0,4.08,2.24,2.12,2.12,0,0,1,.81-.4,11.41,11.41,0,0,1,4.28.61l.4,1L602,160q2.44-2,5.29-4.48c-.13-.13-.13-.34,0-.61s.48-.13.61,0a1.32,1.32,0,0,0,1.43,1.22,5.35,5.35,0,0,0,1.93-1.22,7.83,7.83,0,0,1,1.73-1.22q2-.61,5.91-1.83V149q0-1.62,6.72-2.64v-2.85A15.2,15.2,0,0,1,622,141.7v-.2a55,55,0,0,0,5.7-3.05c-.68-1.09-.95-1.84-.81-2.24-1.09-1.36-1.56-2.45-1.43-3.26q.21-2.64.21-2.85Z" transform="translate(-60 -44.38)" style="fill:#fff"/><path d="M655.55,169.32a34.53,34.53,0,0,1-3.66-.2l-.2-1a3.17,3.17,0,0,1-1.43-.41v-.2c.68-.68,1.22-1,1.63-1l.82.61Z" transform="translate(-60 -44.38)" style="fill:#f4f4f4"/><path d="M746.57,96.5a12.17,12.17,0,0,1-1.83,3.26c-.55.27-1,.07-1.22-.61L741.28,101l-.21,2.45-1.62,1,.6,2.45a23.58,23.58,0,0,0-6.92,4.48,20.9,20.9,0,0,1-5.5-2l-2.85.81c-1.76-.67-2.64-1.69-2.64-3h-1l-2.65-1.83h-.61L714.81,102l3.66-2.85-2.44-2-1-2.85-.81-.2-2.45,1.22c-1.63-1-2.78-1.29-3.46-1a18.1,18.1,0,0,1-3.87,3.06v2.44L702.59,102l-2.24.61-1.22,2.65.41,1.63a7,7,0,0,1-2.85,3l-1.23,2,.61,2.24a7.16,7.16,0,0,0-.61,2c-1,2.45-1.56,3.67-1.83,3.67l1.22,1.22q-1.64,6.31-3.25,7.94a12.92,12.92,0,0,1-.41,4.28l-1.43.61a6.4,6.4,0,0,1,3.06,4.07l-1.22,1.22v.82a16.55,16.55,0,0,0,2,1.62l-.81,4.28a6.7,6.7,0,0,0-3.06,3.05c1.22.82,3.13,1.23,5.7,1.23L697.3,149h2.85c.67,0,2,.69,3.87,2l-1.84,2.85h.62c1.08,0,2.1-.74,3.05-2.24h4.07v-.2l1.22-.61,1.84.2a1.57,1.57,0,0,0,1.42.61l.41-.81h1.83l-.41.81,1.63,1.22-.41.61a11.64,11.64,0,0,1,3.67,5.5c.27-.27.61-.23,1,.1s.47.65.2.92a4.81,4.81,0,0,1-2.44,1.83q-2.86-.2-9.37-1l.61-1.23a19,19,0,0,0-4.88,1.12c-2.32.75-3.54,1.12-3.67,1.12a3.19,3.19,0,0,1-2.85-1.63h-4.28l.61,1.84-.81,1a1.94,1.94,0,0,1-1.32-.71,5.1,5.1,0,0,0-1.12-.91l-1.63.61a3,3,0,0,1,.61,2.23,3.25,3.25,0,0,1-3-2.23l-2.45-.82-.81.82.81,1.83c-.14.4-.61.61-1.42.61a11.4,11.4,0,0,0-2.65,1.12,8.59,8.59,0,0,1-3.26,1.12,6.09,6.09,0,0,1-3.66-1.63l-2.45,2.24-1.22-.41-2,1-.61.2.61-.2a12.74,12.74,0,0,0-4.07-.61,32.29,32.29,0,0,0-4.48.81v-.61l-1.22-.81-2.44.2c-.95-1.35-3.13-3-6.52-4.88l1-1.22a2.19,2.19,0,0,0,.82.4L655,160l-.62-1.83-.4.61-2,.61-1.22-1.22a53.45,53.45,0,0,1,7.33-4.69l.61-.61v-3.66H660a2.74,2.74,0,0,1,1.83-1.22q2.24,1.42,5.9,4.07a3.68,3.68,0,0,1,3.06-1.63l.61-.61,1.83.61a22.43,22.43,0,0,0,5.09-.61,3.32,3.32,0,0,0,.41-2q-3.87-2.64-3.87-3.46a1.86,1.86,0,0,1,.2-.81l-2.24-1.63v-.21l1.84-1.62-1.23-1.84.61-1.42.62-1.22a25.8,25.8,0,0,1-1.43-4.28h3.06v-.61l-1.84-1.83.82-1.84L673.47,123a6.17,6.17,0,0,1,3.67-3.25l-.81-.41-3.06,1a5.19,5.19,0,0,1-2.24-2.86l3.67-1.22a2.56,2.56,0,0,1,1.83-1.42,3.56,3.56,0,0,0-3.26-1.63l-.41-.61,1.63-2v-1.63l1.22-2v-.41l.82-1.22a15.59,15.59,0,0,1-2.45-2.65,4.32,4.32,0,0,1,3.06-2.85l-5.5-3.67h-.2l-.61.41.2.21-.81,1.22-3.47-1.84-.2.41a5,5,0,0,0-1.83-2.24l-2.24.61a65.28,65.28,0,0,0-5.5-3.66l-1.43.41a13.5,13.5,0,0,1-3.45-2.24l1.22-1.84-.21-2,1.22-1.22-1.62-2.45c.67-1.22,2.37-2,5.09-2.24a8.92,8.92,0,0,0,6.51-3.66l2.44.61c1-.54,2.92-.82,5.91-.82.54,0,1.42.62,2.65,1.84,0-.27,1.05-.75,3.15-1.43s3.29-1,3.56-.81L685.08,77c.13-.27.74-.41,1.83-.41q1,0,3.06,2.85L691.6,79l2,1.63-2,3.06,1.42,3h1l2.65-1.63.61-1.42,4.68-.41a4.79,4.79,0,0,0,.61-4.48l2-2.24a1.1,1.1,0,0,1,.81.51,1.1,1.1,0,0,0,.82.51,25,25,0,0,0,4.68-.82q3.46-.81,4.68-1a6.94,6.94,0,0,0,2.24-3l1.83.81.62,1.23-.41.61,1.22.61a9,9,0,0,1,3.46-.21c1.36,1.36,2.44,2,3.26,2l4.88-.2-1.22-1,1.84-1.43A9.77,9.77,0,0,1,736.8,77l.61,4.48-1.63.61v.61l2.44,1.22a5.71,5.71,0,0,0,1.83,3.46,10.82,10.82,0,0,1,3.06-1.22c.27,0,.34.34.2,1s-.2,1.29-.2,1.42A23.58,23.58,0,0,0,746.57,96.5Z" transform="translate(-60 -44.38)" style="fill:#fff"/><path d="M663.19,80.52c.07.61.24.92.51.92,1.76,0,2.72-.34,2.85-1l.61-2-4.27,1A2.33,2.33,0,0,1,663.19,80.52Z" transform="translate(-60 -44.38)" style="fill:#f4f4f4"/><path d="M672.05,104.57a2.19,2.19,0,0,1-1.63.61,1.36,1.36,0,0,1-1.22-.61v-1.22h1.42A1.49,1.49,0,0,1,672.05,104.57Z" transform="translate(-60 -44.38)" style="fill:#f4f4f4"/><path d="M679.58,146.72l-.81-2.44a4.67,4.67,0,0,0-1.84-.61c-.4,0-1,.4-1.83,1.22.54,1,1,1.42,1.43,1.42C678.84,146.31,679.85,146.45,679.58,146.72Z" transform="translate(-60 -44.38)" style="fill:#f4f4f4"/><path d="M682.64,138.78a3.34,3.34,0,0,0-1.43-.41q-3.26,0-3.26,2.85c0,.68,1.09,1.29,3.26,1.84v-1.63A2.82,2.82,0,0,0,682.64,138.78Z" transform="translate(-60 -44.38)" style="fill:#f4f4f4"/><path d="M684.06,83.88l-.41-2a4.05,4.05,0,0,1-2.23.21,6.79,6.79,0,0,1-.82.61c.41,1.08.74,1.63,1,1.63Z" transform="translate(-60 -44.38)" style="fill:#f4f4f4"/><path d="M696.28,144.89c0,1.36-.48,2-1.43,2s-1.22-.62-1.22-1.84c0-.13.21-.41.61-.81l1.43-1.22C695.94,142.92,696.14,143.53,696.28,144.89Z" transform="translate(-60 -44.38)" style="fill:#f4f4f4"/><path d="M715.62,155.48H714.4l-1.63-.21c.13.82,0,1.22-.41,1.22a17.19,17.19,0,0,0-.4,3.06Q715.62,158.53,715.62,155.48Z" transform="translate(-60 -44.38)" style="fill:#f4f4f4"/><path d="M718.47,91.82h-2.24v.41a2.43,2.43,0,0,0-1.83,1.42,25.77,25.77,0,0,0,2.44,1l1-.61A4.36,4.36,0,0,1,718.47,91.82Z" transform="translate(-60 -44.38)" style="fill:#f4f4f4"/><path d="M726.62,107.42l-.41-2.64-2-.41a11.37,11.37,0,0,0-2.64,2.24l.81.61A38.33,38.33,0,0,0,726.62,107.42Z" transform="translate(-60 -44.38)" style="fill:#f4f4f4"/><path d="M727.63,73.9c0,.14-.44.41-1.32.82a5.93,5.93,0,0,1-1.73.61c-1,0-1.63-.88-2-2.65l1.84-.81a4.49,4.49,0,0,1,1.93.81C727.19,73.22,727.63,73.63,727.63,73.9Z" transform="translate(-60 -44.38)" style="fill:#f4f4f4"/><path d="M762,163.49l-.2-.81-1.63-1.22-.61.2-2-1.83a21.73,21.73,0,0,1,2-3.87,5.78,5.78,0,0,0,4.07-4.89,3.7,3.7,0,0,1,2.45.61,36.19,36.19,0,0,1,7.94-1,11.9,11.9,0,0,1,1.83.21,13.35,13.35,0,0,0,2,.2l-.21.82,3.06,1.22.61,1.63h.81c.27,0,.34-.21.21-.62a1.38,1.38,0,0,0-.41-1l1.42-2.65c1.9,1.36,3.67,1.83,5.3,1.43A6.4,6.4,0,0,0,787.5,147a4.37,4.37,0,0,1,1.22-3.67v-5.09l1.22-1.63L788.11,133c1.9-4.34,2.71-7.06,2.44-8.14l-2.44-1.23c1.22-.4,2.23-1.63,3-3.66q-1.42-1.83-4.68-5.3a9.36,9.36,0,0,1,3.46-4.27l-1.22-1.22-1.84.61-.4-.82.61-2.85-1.84-2.64,2.25-4.08-.41-2,2.24-.61-2.24-1.23-.61-1.22a3.86,3.86,0,0,1,3.66-1.83l2.45.2a26,26,0,0,0,2.24,6.11,13.45,13.45,0,0,1,4.27-3.26q2-5.9-.41-9l2.45-1.43,1.22-2.24a10.94,10.94,0,0,0-2-3.26l.21-.61-2-.41a5.19,5.19,0,0,0-3.66,4.28l1.22,2.24a7.73,7.73,0,0,0-1,3.67,37.65,37.65,0,0,1-5.09.2h-4.28a4.75,4.75,0,0,1-.41-2.65q1.23-1.21,3.67-3.46-2-1.83-6.72-5.5l-.61-2-1.22-.61-.81,1.22-2.45.81a28.93,28.93,0,0,1-4.89-.81l-.4-1-2.44-.61-2.45.61a6.91,6.91,0,0,0,1.83,4.28c-.13.27-1.83.4-5.09.4l-2.24-2.24L759.6,79l.41.21-.41.61-1.42-.21-2.45-3.66q-2.65-1.64-4.68-.61l-3-1.84.6-1.22q0-1.83.41-8.14A77.37,77.37,0,0,0,749,56l1.43-1.42,2.24-.41,1.22,1.22,4.28-1.22,1.42,1q1,.4,5.29-1,3.87,1.64,15.48,2.45v.61h1.83l1.22-.82h1.83q1,.61,11.41,2.65l.81-4.48h.82a2.11,2.11,0,0,0,2.24-1.22l-1.43-1.22h-.61l-.61-2.24-1-.82-2.44,3.06c.81-.14,1.22.27,1.22,1.22l-.81.61H793c-.54-1.09-.27-1.7.82-1.83l-1.22-1.23-.21-1.22,4.28-1.83.61.2a32.37,32.37,0,0,1,3.05-3l2.65-.61c.27,2,.81,3.19,1.63,3.46h3.66L807,49.67l.82,1.83L807.25,54,807,55.17a4.19,4.19,0,0,1,2,3,6.94,6.94,0,0,0-.82,4.89l-1.63,1.22,2.45,2-2,2.44v1.63l1.22.82.82,2.44c-.14.41-1.56,1.63-4.28,3.66L806,79c-.55.27-.82,1.09-.82,2.45l-.41,3.66a5.1,5.1,0,0,1,2.85,3.67L807,91.21l-1.63.81L807,93.25a14.89,14.89,0,0,1-1.83,6.51q.62,2,2,5.7l-2,1v.2l2,1.23v2.44l1,1.63a5.41,5.41,0,0,0-1.63,3.87l-.81-.21c-.41,0-.61.28-.61.82,0,.27.2.4.61.4a2.12,2.12,0,0,0,.81-.4l.62,2.24a22.57,22.57,0,0,1-2,6.11l.2,2.64a20.41,20.41,0,0,1-2,2.85l.61,1.22c1.49.28,2.58,1.36,3.26,3.26a6.7,6.7,0,0,1-1.43,3.67l1.22,3.66a11.4,11.4,0,0,1-1.83,3.46,33.22,33.22,0,0,0,3.87,5.09l1-1.42,1.22-.41q.81,0,.81,1.83,0-.81,5.91,1.23a3,3,0,0,0,1.42-3.06h1.63l.61,2.24.61.2-1.83,1.63,1.22,1.84,1.22-1c-.13-.27,0-.75.31-1.43a3.94,3.94,0,0,0,.51-1.63c0,.28.41.41,1.22.41a3.48,3.48,0,0,0,.92-.3,3.16,3.16,0,0,1,.91-.31l3.46,1.83a10.09,10.09,0,0,1,5.7-1.63l2.24,2.45,2,.61,2.45,5.49-1.43,3.67c-.82.81-1.63.61-2.44-.61l-2.45,1.83c.27.41.07.85-.61,1.33s-.88.85-.61,1.12l-1,1.22v.61l-1.42,1.22-2.85-1.22-6.93,1-1.83-1a5,5,0,0,0-1.22-.82,23.08,23.08,0,0,1-4.68,2,10.54,10.54,0,0,1-4.69-1.22.66.66,0,0,0,.41-.61l-1.42-.21-4.08.21c.68.13,1.63.34,2.85.61l-4.07,2.44c-1.09-.27-1.56-.68-1.42-1.22a13.24,13.24,0,0,0-6.72-2l-2.85,1.84a29.36,29.36,0,0,1-6.32-.41l-1.63.61-2.64-1.22v-.21a10.22,10.22,0,0,0-3.46-2.85,5.12,5.12,0,0,1-3.67,1.63l-3.05-1-2,1.62-1-1.83-1.64-1.43c-.68-.54-1.22-.67-1.62-.4Z" transform="translate(-60 -44.38)" style="fill:#fff"/><path d="M765.1,68.61a2.24,2.24,0,0,0-1.43-2.24v-.2a6.81,6.81,0,0,1,.21-2.25l-1.43-.61-2.44,1a.54.54,0,0,1-.61.61c-.95,0-1.3-.33-1-1h-.82v.41c-1.22,1.63-1.83,2.24-1.83,1.84q0,1.83,2,1.83a6.88,6.88,0,0,0,1.63-.41,6.18,6.18,0,0,0,1,2.34c.67,1.16,1.22,1.73,1.62,1.73Q765.1,71.66,765.1,68.61Z" transform="translate(-60 -44.38)" style="fill:#f4f4f4"/><path d="M570.64,138.05c0-.31-.2-.47-.58-.47a.53.53,0,0,0-.53.32.42.42,0,0,1,.21.31,1.16,1.16,0,0,0,.47.16C570.5,138.37,570.64,138.27,570.64,138.05Z" transform="translate(-60 -44.38)" style="fill:#f4f4f4"/><path d="M572.59,138.16l-.37-.48a.32.32,0,1,0,0,.64A.49.49,0,0,0,572.59,138.16Z" transform="translate(-60 -44.38)" style="fill:#f4f4f4"/><path d="M780.37,71.05a3,3,0,0,0-.61-1.83,3.73,3.73,0,0,1-1.22,2.65l.4.61h.82C780.16,72.48,780.37,72,780.37,71.05Z" transform="translate(-60 -44.38)" style="fill:#f4f4f4"/><path d="M573.54,137.9c0-.22-.07-.32-.21-.32-.39,0-.58.14-.58.42.11,0,.26.3.48.79.07,0,.1,0,.1.06s.21-.16.21-.48Z" transform="translate(-60 -44.38)" style="fill:#f4f4f4"/><path d="M782,110.89a.87.87,0,0,1,.2-.62,26.29,26.29,0,0,0,4.28,1.23v.81c0,.68-.28,1-.82,1a6,6,0,0,1-2-1.12C782.54,111.46,782,111,782,110.89Z" transform="translate(-60 -44.38)" style="fill:#f4f4f4"/><path d="M786.27,134.3l-.4,1h-1a8.67,8.67,0,0,1-1-1.83c0-.14.24-.21.71-.21s.71-.07.71-.2A3,3,0,0,1,786.27,134.3Z" transform="translate(-60 -44.38)" style="fill:#f4f4f4"/><path d="M788.11,139h-1.84l-.2-1.22,1.22-1.22a1.87,1.87,0,0,1,1,1Z" transform="translate(-60 -44.38)" style="fill:#f4f4f4"/><path d="M788.92,78v-.81a2.2,2.2,0,0,0-1.22-.41l-1.22.61V78a1.62,1.62,0,0,0,1,.61A1.94,1.94,0,0,0,788.92,78Z" transform="translate(-60 -44.38)" style="fill:#f4f4f4"/><path d="M800.94,102.94c-.69-.4-1.64-.94-2.86-1.62a5.85,5.85,0,0,0,.61-.82,2.46,2.46,0,0,0-1.42-.61,4.63,4.63,0,0,1-2.24,1.22,3.33,3.33,0,0,1,1,2.75,4.65,4.65,0,0,0,.81,3,3.29,3.29,0,0,0,1,.21,1.72,1.72,0,0,0,1.93-1.84C799.88,104,800.25,103.22,800.94,102.94Z" transform="translate(-60 -44.38)" style="fill:#f4f4f4"/><path d="M800.94,72.48v-.21c.13-1.22-.82-1.83-2.86-1.83-.4,0-.81.48-1.22,1.43l2.24,1.22A2.53,2.53,0,0,0,800.94,72.48Z" transform="translate(-60 -44.38)" style="fill:#f4f4f4"/><polygon points="744.6 43.98 743.78 41.54 742.36 41.54 742.56 43.78 744.6 43.98" style="fill:#f4f4f4"/><path d="M810.3,156.9v-.2c-.68-.27-1-.68-1-1.22a1.77,1.77,0,0,1,.31-.92,1.84,1.84,0,0,0,.3-.92.59.59,0,0,0-.2-.4,3.56,3.56,0,0,1-1.83,1l1,.82a4.28,4.28,0,0,0-1.62,1.83,3.42,3.42,0,0,0,1.62.61A2.49,2.49,0,0,0,810.3,156.9Z" transform="translate(-60 -44.38)" style="fill:#f4f4f4"/><path d="M813.15,154.46l-.41-.61h-1.22v1a.82.82,0,0,0,.61.21h.21C812.88,155.07,813.15,154.86,813.15,154.46Z" transform="translate(-60 -44.38)" style="fill:#f4f4f4"/><path d="M821.9,165.45l-.2-.2h-.2a4.7,4.7,0,0,0-1.43.2,1.4,1.4,0,0,1,.41,1h.82Z" transform="translate(-60 -44.38)" style="fill:#f4f4f4"/><path d="M863.65,152.1l2.23-.62,2.65,1-2,2.64,5.5,1.63,1.43-.4a.87.87,0,0,1,.51.3.56.56,0,0,0,.71.1l1,1.22a4.21,4.21,0,0,1,2.44-.4c.41,1.76.74,2.64,1,2.64-.68,0-.14-.27,1.63-.81l3.66,1.63,1.22-1.63c1.63-.13,3.29-.34,5-.61a4.06,4.06,0,0,0,3.36-3.26l4.89-.61,2-1.83-.2-1.84c1.22-.54,2.1-1.89,2.65-4.07a13.3,13.3,0,0,0,2.85-.81l1.83-.61.82-2.24-1.23-1.22v-1.43c-1.63-1.35-2.51-2.58-2.64-3.67l1.42-1,3.06.61.61-.21v-5.89l1.84-.79v-.41a37.87,37.87,0,0,1-4.89-3.06v-2l2.45-1.22a8.09,8.09,0,0,1-2.45-5.5l1.84-1.83a22.93,22.93,0,0,0-7.33-5.92v-.61l1.62-2.44c-.54-1.23-2-2.85-4.37-4.89s-3.56-3.74-3.56-5.1L893,95.69l-1.83.81v.61c-1.09.82-2.78.82-5.09,0l-1,1A32.4,32.4,0,0,0,873.83,102a12.07,12.07,0,0,1-4.89,7.74l-.41-.41-1.22.41,1.83,1.42.41,1-1,1.43a5.57,5.57,0,0,1,2.24,3.66,17,17,0,0,1-3.56,2,12.39,12.39,0,0,0-3,1.63c0,.81.54,1,1.63.61,1,2.17,1.36,3.32,1.23,3.46l-2.86,1.22-.81,1.22c1.22.82,3.12,1.9,5.7,3.26l1,2.85-1,1.43-1.22-.61-2.44,1.83.4.61-1,1.83a11.63,11.63,0,0,1,3,0l1.22,2.24-.61,1.43,2.24,2.44-1.63,2.85-.61-.41c-.41,0-.78.34-1.12,1a2.66,2.66,0,0,1-.92,1.22l-1.83-1.22-2.24,2.65H861c-.14,0-.41-.21-.82-.61a.74.74,0,0,0-1,0,72,72,0,0,1-6.71-3.26l.61-2.44a3.94,3.94,0,0,1,1.22.3,3.75,3.75,0,0,0,1.22.31l.61-.61a28.83,28.83,0,0,1-4.68-5.3l2.64-2,.82-.61-.41-1L850,134.38v-.21l1.43-1.63,2.44-.2q0-2.24-2.44-4.69l-.21-1.83,1.84-.81.61-4.07q-.82-2.44-4.89-5.09c.27-.95.07-1.56-.61-1.84l1.43-2.24a7.88,7.88,0,0,1-.62-2.64,3.07,3.07,0,0,1,1.23-2.14,6.19,6.19,0,0,0,1.62-2.14l3.06-1.83a5.31,5.31,0,0,0-1.22-2.45c1.08-1.76,2.17-2.78,3.25-3v-1l2.45-1.22a3.88,3.88,0,0,0-1.83-3q3.66-2,4.68-2l.2.2V92l2.45.82.4-.21a31.21,31.21,0,0,0-1.62-3.86,8.37,8.37,0,0,1-1.23-3.87h1.23l2.84-2,2.65,1.83Q877.9,81,884.82,81l.81,1.22,4.89-3.46,1.22,1v.61l3.67,1.22v1.22l1.83,1.22a4.91,4.91,0,0,1,2.24-1c1.36.41,2.78.89,4.28,1.43a7.94,7.94,0,0,1,3.66,2.65l-1.63,2a5,5,0,0,0,2.85,3.46A1.84,1.84,0,0,0,908,91l1.43-3.25-.61-.61,1.63-3.06c0-2.3-1.84-3.46-5.5-3.46a7.9,7.9,0,0,0-3.06-3.87L905,74.92l1.22-2.44a54.48,54.48,0,0,1-2.44-7.33l-1-1.23a8.64,8.64,0,0,1-2,.61,7.59,7.59,0,0,1-4.89-1.83,11.48,11.48,0,0,1-5.49,3.06c-1.5-1.09-2.72-1.5-3.67-1.23L886,62.91a82,82,0,0,0-9-6.72V54.76l.41-1a13.79,13.79,0,0,0,3-2.64h3.26l1.22-.41A5.94,5.94,0,0,1,886.86,47l1.83.62a3.1,3.1,0,0,0,1.83-1.84,11.47,11.47,0,0,1,5.29,3.67,8,8,0,0,0,4.49-1.35l-.82-1.54,1.22-.78,2.44,1.36-2.24,1.16-.2,1.17,1.43.39c2.57-.41,4.34-1.36,5.29-2.86q-.21.42,2,1l1.22,1.43a14,14,0,0,1,4.58,1.12,29.64,29.64,0,0,0,4,1.32A11.62,11.62,0,0,0,921.47,56a.52.52,0,0,0,.71-.2.53.53,0,0,1,.72-.2,17.6,17.6,0,0,0,1,4.07,14.13,14.13,0,0,0-1.63,5.7,11.67,11.67,0,0,0,1.63,4.07l-3,1.22,1.42,2-2.44,1.83v1.22A9.86,9.86,0,0,0,924.12,78a28.19,28.19,0,0,1-.82,5.5l-.61.61v.61l1.22,1.22.21-.4v1l-1.43,1.83q-.81,2.44,0,7.33a17.94,17.94,0,0,0-3.46,3.66,8.64,8.64,0,0,1,.61,2q0-.81-.81,4.27c-.68-.13-1,.41-1,1.63l1.14.82,1.71,2.85a7.71,7.71,0,0,0-2.85,3.26l1.63,3.46,1.42.61,1.22,1.83a4.49,4.49,0,0,0-1.42,3.26,20.54,20.54,0,0,0,1.42,4.89,10,10,0,0,1-3.66,3.46l1.22,7.94-3.05,1.22.61,3.26,1,.61a4.35,4.35,0,0,0,1.42,3.66l-.2,2.24,1.83,1.43v.61l1.22,1.63-2.85,1.22-.61,1.83c.68,1.36,2.1,2,4.28,2l1-.21a3.4,3.4,0,0,1,3.26-2.23l2.45,1.62q-.21,1.23.81,1.23a4.74,4.74,0,0,0,1.63-.41,23.67,23.67,0,0,1,3.46,4.07l2-.41,1.83,1.84-1.83,2.24-2.45-1.63-1.22,1.22v1.63l-1.83.61-6.11-1.83-1.22,2-3.06,1-8.14-1.83.41-.41c0-.27-.28-.27-.82,0a2.64,2.64,0,0,0-1.22.61c-1-3-2.58-4.89-4.89-5.7q-1.22,1.22-6,2.55t-5.81,2.34l-.4,1.83a20.51,20.51,0,0,1-4.89.61,7.94,7.94,0,0,0-4.89,2l-3.86-3.67a4.44,4.44,0,0,1-3.06,3,42.76,42.76,0,0,0-4.68.65l-1.43-1.85.61-1.24-3.46-3.49a2.43,2.43,0,0,0-.81-2.06,26.35,26.35,0,0,1-8.35-3.49l-.2-.83,2-3.08-.2-1.85Z" transform="translate(-60 -44.38)" style="fill:#fff"/><path d="M861,155.27c0,.82-.61,1.22-1.84,1.22-1.49,0-2.24-.67-2.24-2a2,2,0,0,1,2.24-2.24C860.39,152.22,861,153.24,861,155.27Z" transform="translate(-60 -44.38)" style="fill:#f4f4f4"/><path d="M867.31,105.59l-2.65,1.63c.27.54.54,1.09.82,1.63l3-1C868.12,106.07,867.72,105.32,867.31,105.59Z" transform="translate(-60 -44.38)" style="fill:#f4f4f4"/><path d="M378.25,167.89c-.65-.23.18.69,0,0Z" transform="translate(-60 -44.38)" style="fill:#c2c5c8"/><path d="M380.28,152.42a1.76,1.76,0,0,0,1.22.61,1.44,1.44,0,0,0,1.63-1.63,1.08,1.08,0,0,0-1.22-1.22C381.23,150.18,380.69,150.93,380.28,152.42Z" transform="translate(-60 -44.38)" style="fill:#c2c5c8"/><path d="M433.83,108.52v1l1.43.21,1.62,1.83a16.75,16.75,0,0,0-.4,1.83h.4a7.64,7.64,0,0,1-.61,3.06l.21.61-1.22,2.24,1,4.48a2.6,2.6,0,0,1-1.63,2.44l-3.05-.81a10.91,10.91,0,0,1-4.89,1.22l-2.44,1.83a2.86,2.86,0,0,0-1.42-.61l-1,.61v.61l-1.84.82q-2.44-.83-5.19-1.63a10.09,10.09,0,0,0-4.78-.41l-3.46,2-1.23-.82.41-1.22c-1.49-.68-2.51-.82-3.05-.41l-1.84-.81-.61.61a32.82,32.82,0,0,1-6.51,1.32,28.44,28.44,0,0,1-6.11.51c0-1.22-1.22-1-2-1.65l-5.1.43c-2.17,0-3.6.88-4.27,2.65l-3.06.61c.68.81.41,1,.41,1l2,.21-1,3.46,1.33,1.3c-.28.41,1,.94.5,1.35a21.57,21.57,0,0,0,1.12,2.85,8.47,8.47,0,0,1,.92,3,2.66,2.66,0,0,1-.2,1.05c.73,2.45,1.53,5.33,2.44,6.24-1.23,1.5-.39,2.76-.8,3.81l3,.47s2.3,3.15,2.85,1.8c.41.6.81.9,1.22.9a23.74,23.74,0,0,0,4.28-1.35c.13-.3-.08-.75-.62-1.35.41-.9.95-1.35,1.63-1.35a12.92,12.92,0,0,1,1.23,2,17,17,0,0,1,2.13.22,17.59,17.59,0,0,0,2.34.23v-1.36a7.67,7.67,0,0,1,2.24-.67h1.43q0,4.72,1.63,4.73c.95,0,1.42-.68,1.42-2a8.11,8.11,0,0,0,1.94-1.35,6.22,6.22,0,0,1,1.52-1.12l1.23,1.35c1.49,0,2.37.22,2.64.67a11.21,11.21,0,0,1,.82,1.8c.81-1.2.5-2.5,2.67-2.5.41.9.79-2.07,1.6-1.32l.82-1.13c-.55-1.05,1.22,2.33,1.22,1.13l.61-1.58,1.52-2.16-.91-3a2.89,2.89,0,0,1,.17-1,11.39,11.39,0,0,1-1.39-3.58,3.21,3.21,0,0,1,.71-1.42c.48-.68.92-1,1.33-1s1.15.44,2.05.61c.26-1.19.53-2.14.92-2,.68-.9,2.55-7.49,4.15-3.82.14-1.05.48.72,1.7.72.68,0,1.76,4,2.58,4.45l-.41,2h-3.05a2.92,2.92,0,0,0-.82,2,2.38,2.38,0,0,0,1.22,2.26,61,61,0,0,0-3.05,7.2,15.13,15.13,0,0,1,1.83.67,9.07,9.07,0,0,1,.2,2,3,3,0,0,1-.6,2h-3.26a10.68,10.68,0,0,0-.41,2.7q-.83.45-6.31,3.38a4.22,4.22,0,0,1-1.83,2,3.72,3.72,0,0,1-1.84,0,10.17,10.17,0,0,0-2.24-.45,2,2,0,0,0-1.83,1.13l1.22,2.25-1.42.45a5.65,5.65,0,0,0-2.85-.45l-1.23.45-1.22-.45-.81-1.58a23.46,23.46,0,0,1-3.26-1.12c-1.49-.6-.54,1.35-1.22,1.35a14.31,14.31,0,0,1-2.35-.66c.19.13.31.26.31.43,0,1.05-.61,1.58-1.83,1.58H388a16.44,16.44,0,0,0-3.46-2l.4-.22a8.79,8.79,0,0,1-2.24-1.8h-4.07a1.93,1.93,0,0,0-.4-.19.06.06,0,0,0,0,0l-2-2.48a1.58,1.58,0,0,0-2.45.68c-.95.45-2.64-2.93-2.64-2.93l-.61-2-1-1.35c-.28-.6-1.51-1.53-1.64-2.58-3.23.57-2.24-3.26-3.74-5.06,1-1.06.16-2.27-.69-3.33l-1.06.18q-2.85,0-2.85-3.87l-.81-1a10.37,10.37,0,0,0,1.42-2.44,28.88,28.88,0,0,0-3.05-7.33l1.22-1.22a15.57,15.57,0,0,1-2.44-2.65l.61-1.22,1-.61a28.74,28.74,0,0,1,.81-3.46,18.08,18.08,0,0,1-3.87-1.84,19.28,19.28,0,0,0,4.48-2l-2.65-2v-1.42H355a2.22,2.22,0,0,1-.4-1.84,5.51,5.51,0,0,0,4.07-1.42l-1-1.83.61-1.84a5.25,5.25,0,0,0-2-1.83,3.73,3.73,0,0,1,3.67-1.63c.13-.13,0-.34-.41-.61l2.24-1.42-1.63-2.45v-1.22c0,.14.61.2,1.84.2V99.35l-.21-2.44,1.83-.2a2.38,2.38,0,0,0,0-1.43A5.06,5.06,0,0,1,365.41,93l-1.22-.41V91.41q2.85,0,2-.81a19.31,19.31,0,0,1,4.28-3.06v-.61h1.63l-.41.61,1.22.21,1.63-.21-.61-1,.2-.21-1.42-1.83.81-.41,1.63.41a6.1,6.1,0,0,0,3.26-1l-.61-1.22,2.44-1.83h.61l1.22,1.22,1-.82-1-1.22,1.83-.4L386.19,81a4.63,4.63,0,0,1,1.83-.61,6.93,6.93,0,0,1,3.26,1.22l-.21.61c0,.27.48.81,1.43,1.63l.61-.61a58.19,58.19,0,0,1,11.4-1q1.83,0,5.09,2.24c1.08-.27,2.31-2,3.66-1.22a7.14,7.14,0,0,0,2.86,1.22l1.22-.2h1.42c.31,1.32.84,1.35,1.09,1.28.51.66,3.33,3.22,4.41,2.79,2.17.14,3.8.34,4.89,4.68l1,.41,2.44,1.42,2,2,.4,2.35c2.37.94,2.66,2.54,2.66,5,0,1.36-.82,2.38-2.44,3.05v.62Zm-37.26,55q0,1,.81,1c.82,0,1.23-.54,1.23-1.63s-.28.48-.82.2C397,164.3,396.57,163.08,396.57,163.49ZM380.89,87.54c-.81-1.22-2.31-1.83-4.48-1.83a4,4,0,0,0-1.22.2c.41.28.88.62,1.42,1a.86.86,0,0,0-.2.61,9,9,0,0,0,2.44,1.23l2-.41Zm3.67-1.42.81.81c3.12,0,2,.41,2-.81,0-.13-.35-.51-1-1.12s-.95-1-.82-1.12l-1.83.81C383.74,85.51,385.37,84.63,384.56,86.12Zm42.67,18.21a9.4,9.4,0,0,1-2.29-2.3l1.63-1.11c-2.05-.38-1.7-.78-2.21-1.1a6.93,6.93,0,0,1-1.15-1c-.51.38-1.09-1.21-1.73-1-.51-.25-1.08-.57-1.72-1h-3.07a63.15,63.15,0,0,0-6.33-2.3,7.66,7.66,0,0,0-2.68,2.3H404a15.86,15.86,0,0,1-3.84-.77q-1.33,1.15-4.22,3.45c-1.15-1.4-2.11-2.1-2.87-2.1-1.15,0-1.73.7-1.73,2.1a2.9,2.9,0,0,0,.77,1.73l-3.07,2.3c-2.3,0-3.45.58-3.45,1.73l-.38,4q0,3.07,4,3.07a8.6,8.6,0,0,1,2.3-1.15,28.13,28.13,0,0,1,3.07.58c1.41.26,2.3.26,2.68,0,1.41,1.4,2.56,2.11,3.46,2.11a4.84,4.84,0,0,1-.77,1.15h2.49a2.83,2.83,0,0,1,1.54.76,1,1,0,0,0,1.14,1.15,3,3,0,0,0,.77-.19V116l-.19-.2a6.19,6.19,0,0,1,5.18-2.49,6.91,6.91,0,0,1,1.43.29,6.89,6.89,0,0,0,1.64.29l1.15-.39V113l-.58-.58a1.18,1.18,0,0,1,1.15-.19l.58,1.15a2,2,0,0,0-.77,1.73,15.38,15.38,0,0,1,3,.38,14.3,14.3,0,0,0,2.78.38,2.6,2.6,0,0,0,1.92-.76l-.19-.39.57-1.72a5.53,5.53,0,0,0-1-2.88Q426.67,106.06,427.23,104.33Zm6.19,3a2,2,0,0,0-.81-1.22,1.08,1.08,0,0,0-1.22,1.22c0,.69.4,1,1.22,1Z" transform="translate(-60 -44.38)" style="fill:#fff"/></svg>