<svg width="297" height="64" viewBox="0 0 297 64" fill="none" xmlns="http://www.w3.org/2000/svg">
<path d="M2.16808 35.2603C1.74753 35.2603 1.40786 35.2118 1.14906 35.1149C0.890263 35.0504 0.760864 34.9212 0.760864 34.7274C0.760864 34.5013 0.890263 34.3237 1.14906 34.1945C1.40786 34.0653 1.81223 33.9523 2.36218 33.8554C3.17092 33.6939 3.83409 33.3064 4.35169 32.6928C4.86928 32.0791 5.20895 31.2071 5.3707 30.0768C5.7589 27.1702 6.09857 24.4089 6.38972 21.7929C6.68087 19.1447 6.90732 16.7709 7.06906 14.6717C7.26316 12.5402 7.36021 10.7962 7.36021 9.43977C7.36021 9.18141 7.36021 8.90689 7.36021 8.61623C7.36021 8.32557 7.34404 8.0672 7.31169 7.84113C7.27934 7.58276 7.23081 7.3244 7.16611 7.06603C7.10141 6.77537 6.90732 6.50085 6.58382 6.24249C6.00152 5.75805 5.4354 5.43509 4.88546 5.27361C4.33551 5.07984 3.68852 4.91836 2.94447 4.78918C2.62097 4.72458 2.36218 4.61155 2.16808 4.45007C1.97398 4.25629 1.87693 4.04637 1.87693 3.8203C1.87693 3.56194 2.0225 3.4166 2.31365 3.38431C2.63715 3.31972 3.04152 3.28742 3.52677 3.28742C3.85027 3.28742 4.33551 3.30357 4.98251 3.33586C5.66185 3.36816 6.38972 3.4166 7.16611 3.4812C7.94251 3.54579 8.6542 3.59423 9.3012 3.62653C9.98054 3.65882 10.482 3.67497 10.8055 3.67497C11.0319 3.67497 11.226 3.73956 11.3878 3.86875C11.5495 3.99793 11.6627 4.1917 11.7274 4.45007C11.8892 5.03139 12.0509 5.64502 12.2127 6.29093C12.3744 6.93685 12.5685 7.56662 12.795 8.18024L20.4619 27.6062C20.5589 27.8322 20.7368 27.9776 20.9956 28.0422C21.2544 28.0745 21.4485 27.9776 21.5779 27.7515L31.1373 7.88958C31.299 7.34055 31.4608 6.72692 31.6225 6.04871C31.7843 5.3705 31.9137 4.77303 32.0107 4.25629C32.1078 3.83645 32.2695 3.62653 32.496 3.62653H34.2429C35.2133 3.62653 36.2324 3.56194 37.2999 3.43275C38.3998 3.30357 39.2247 3.23898 39.7747 3.23898C39.9364 3.23898 40.1467 3.27127 40.4055 3.33586C40.6643 3.36816 40.7937 3.49734 40.7937 3.72341C40.7937 3.94948 40.6966 4.12711 40.5025 4.25629C40.3408 4.38548 40.0173 4.54696 39.532 4.74073C39.1115 4.90221 38.6424 5.07984 38.1248 5.27361C37.6072 5.46739 37.122 5.66116 36.6691 5.85494C36.3456 5.98412 36.0706 6.21019 35.8442 6.53315C35.6177 6.82381 35.5045 7.14677 35.5045 7.50202C35.5045 9.76273 35.5368 11.8943 35.6015 13.8966C35.6986 15.8666 35.7956 17.7721 35.8927 19.613C35.9897 21.4215 36.103 23.2139 36.2324 24.9902C36.3618 26.7665 36.475 28.575 36.572 30.4159C36.6367 31.4171 36.9602 32.1922 37.5425 32.7412C38.1248 33.2579 39.0144 33.6293 40.2114 33.8554C40.7613 33.9523 41.1657 34.0653 41.4245 34.1945C41.6833 34.3237 41.8127 34.5013 41.8127 34.7274C41.8127 34.9212 41.6833 35.0504 41.4245 35.1149C41.1657 35.2118 40.826 35.2603 40.4055 35.2603C39.532 35.2603 38.8042 35.228 38.2219 35.1634C37.6719 35.1311 37.1382 35.0988 36.6206 35.0665C36.103 35.0342 35.4721 35.0181 34.7281 35.0181C34.0811 35.0181 33.5312 35.0342 33.0783 35.0665C32.6577 35.0988 32.1886 35.1311 31.671 35.1634C31.1858 35.228 30.5065 35.2603 29.633 35.2603C29.2125 35.2603 28.8728 35.2118 28.614 35.1149C28.3552 35.0504 28.2258 34.9212 28.2258 34.7274C28.2258 34.5013 28.3552 34.3237 28.614 34.1945C28.8728 34.033 29.2772 33.92 29.8271 33.8554C30.7653 33.7262 31.4122 33.4033 31.7681 32.8865C32.1239 32.3375 32.3019 31.4978 32.3019 30.3675C32.3019 28.0422 32.2695 25.9429 32.2048 24.0698C32.1725 22.1966 32.1078 20.3558 32.0107 18.5472C31.9137 16.7063 31.8166 14.704 31.7196 12.5402C31.6872 12.1849 31.5902 12.0234 31.4284 12.0557C31.2667 12.0557 31.1049 12.2172 30.9432 12.5402L19.7825 35.2603C19.7178 35.4218 19.5722 35.5025 19.3458 35.5025C19.1193 35.5348 18.9738 35.4379 18.9091 35.2118C17.6474 31.4332 16.2887 27.7192 14.833 24.0698C13.4096 20.3881 11.7921 16.4318 9.98054 12.2011C9.91584 12.0396 9.80262 11.9588 9.64087 11.9588C9.47912 11.9588 9.38207 12.0396 9.34972 12.2011C9.05857 14.4618 8.7836 16.5449 8.5248 18.4503C8.29836 20.3235 8.12043 22.1805 7.99103 24.0213C7.86163 25.8622 7.79693 27.8807 7.79693 30.0768C7.79693 30.9488 8.07191 31.7562 8.62185 32.499C9.1718 33.2095 9.94819 33.6616 10.951 33.8554C11.501 33.9523 11.9054 34.0653 12.1641 34.1945C12.4229 34.3237 12.5523 34.5013 12.5523 34.7274C12.5523 34.9212 12.4229 35.0504 12.1641 35.1149C11.9054 35.2118 11.5657 35.2603 11.1451 35.2603C10.2717 35.2603 9.60852 35.228 9.15562 35.1634C8.73508 35.1311 8.34688 35.0988 7.99103 35.0665C7.66753 35.0342 7.19846 35.0181 6.58382 35.0181C6.00152 35.0181 5.54863 35.0342 5.22513 35.0665C4.90163 35.0988 4.52961 35.1311 4.10906 35.1634C3.68852 35.228 3.04152 35.2603 2.16808 35.2603Z" fill="#F8F9FF"/>
<path d="M45.7125 35.1634C45.4213 35.1634 45.1787 35.1149 44.9846 35.0181C44.8229 34.9535 44.742 34.8243 44.742 34.6305C44.742 34.3721 44.8552 34.1945 45.0817 34.0976C45.3405 34.0007 45.5993 33.92 45.8581 33.8554C46.5374 33.6939 47.055 33.5002 47.4108 33.2741C47.7667 33.0157 47.9446 32.5959 47.9446 32.0145V21.5023C47.9446 20.6303 47.7829 19.8552 47.4594 19.177C47.1682 18.4987 46.6021 18.095 45.761 17.9659C45.5993 17.9336 45.4699 17.869 45.3728 17.7721C45.3081 17.6752 45.2758 17.5299 45.2758 17.3361C45.2758 16.9808 45.4213 16.7871 45.7125 16.7548C47.0065 16.4641 48.074 16.0766 48.9151 15.5921C49.7562 15.0754 50.387 14.6555 50.8076 14.3326C51.0987 14.1065 51.3252 13.9935 51.4869 13.9935C51.681 13.9935 51.7781 14.0742 51.7781 14.2357C51.7781 14.4941 51.7295 15.0108 51.6325 15.7859C51.5678 16.5287 51.5031 17.3684 51.4384 18.305C51.3737 19.2093 51.3413 20.0328 51.3413 20.7756V32.0145C51.3413 32.5636 51.5193 32.9673 51.8751 33.2256C52.2633 33.484 52.7809 33.6939 53.4279 33.8554C53.6867 33.92 53.9293 34.0007 54.1558 34.0976C54.4146 34.1945 54.544 34.3721 54.544 34.6305C54.544 34.9858 54.2205 35.1634 53.5735 35.1634C52.9588 35.1634 52.4574 35.1311 52.0692 35.0665C51.7134 35.0342 51.3575 35.0019 51.0017 34.9696C50.6782 34.9373 50.2253 34.9212 49.643 34.9212C49.093 34.9212 48.6401 34.9373 48.2843 34.9696C47.9284 35.0019 47.5726 35.0342 47.2167 35.0665C46.8609 35.1311 46.3595 35.1634 45.7125 35.1634ZM49.5944 10.0211C48.9151 10.0211 48.3328 9.79503 47.8476 9.34289C47.3947 8.85845 47.1682 8.27712 47.1682 7.59891C47.1682 6.8884 47.3947 6.30708 47.8476 5.85494C48.3328 5.3705 48.9151 5.12828 49.5944 5.12828C50.3061 5.12828 50.8884 5.3705 51.3413 5.85494C51.8266 6.30708 52.0692 6.8884 52.0692 7.59891C52.0692 8.27712 51.8266 8.85845 51.3413 9.34289C50.8884 9.79503 50.3061 10.0211 49.5944 10.0211Z" fill="#F8F9FF"/>
<path d="M72.7949 35.9385C72.7302 35.9385 72.617 35.8739 72.4552 35.7447C72.3258 35.6155 72.2611 35.5186 72.2611 35.454C72.2611 35.1311 72.2935 34.6789 72.3582 34.0976C72.4552 33.484 72.5038 32.9673 72.5038 32.5474V32.2568C72.0185 32.9996 71.2421 33.7585 70.1746 34.5336C69.107 35.3087 67.7645 35.6963 66.147 35.6963C64.3031 35.6963 62.7018 35.2118 61.3431 34.243C60.0168 33.2741 58.9816 32.0307 58.2375 30.5128C57.5258 28.9949 57.17 27.4285 57.17 25.8137C57.17 23.9406 57.6067 22.1805 58.4801 20.5334C59.3536 18.8863 60.5991 17.546 62.2165 16.5126C63.8664 15.4791 65.8235 14.9624 68.088 14.9624C68.735 14.9624 69.382 15.0269 70.029 15.1561C70.7083 15.253 71.2259 15.3661 71.5818 15.4952C71.8729 15.5921 72.0832 15.6406 72.2126 15.6406C72.4391 15.6406 72.5523 15.253 72.5523 14.4779V7.59891C72.5523 6.27478 72.342 5.38665 71.9215 4.93451C71.5009 4.48236 70.9024 4.1917 70.1261 4.06252C69.8349 3.99793 69.6893 3.78801 69.6893 3.43275C69.6893 3.14209 69.8187 2.94832 70.0775 2.85143C71.5009 2.49617 72.617 2.15707 73.4257 1.83411C74.2345 1.51115 74.8653 1.25278 75.3182 1.05901C75.4476 0.994419 75.5608 0.962123 75.6579 0.962123C75.7873 0.929826 75.8843 0.913678 75.949 0.913678C76.1431 0.913678 76.2563 1.01057 76.2887 1.20434C76.2887 1.39812 76.2563 1.73722 76.1916 2.22166C76.1593 2.6738 76.1107 3.35201 76.0461 4.25629C75.9814 5.16058 75.949 6.33937 75.949 7.79269V29.6892C75.949 30.7873 76.0299 31.5947 76.1916 32.1114C76.3534 32.5959 76.6122 32.8381 76.968 32.8381C77.1298 32.8381 77.4047 32.8219 77.7929 32.7896C78.2135 32.7573 78.634 32.7251 79.0546 32.6928C79.6369 32.6605 79.928 32.8058 79.928 33.1287C79.928 33.3548 79.8471 33.5647 79.6854 33.7585C79.556 33.92 79.4104 34.0007 79.2487 34.0007C78.3429 34.1299 77.4533 34.3237 76.5798 34.5821C75.7064 34.8081 74.7035 35.1634 73.5713 35.6478C73.3125 35.777 73.1346 35.8577 73.0375 35.89C72.9728 35.9223 72.892 35.9385 72.7949 35.9385ZM67.8939 33.1772C68.735 33.1772 69.5599 32.9673 70.3687 32.5474C71.1774 32.0953 71.8891 31.514 72.5038 30.8035L72.5523 22.0836C72.5523 21.2116 72.2935 20.3558 71.7759 19.5161C71.2906 18.6764 70.5951 17.9982 69.6893 17.4814C68.8159 16.9324 67.7807 16.6579 66.5838 16.6579C65.8397 16.6579 64.9986 16.884 64.0605 17.3361C63.1223 17.7882 62.3136 18.5956 61.6342 19.7583C60.9549 20.8886 60.6152 22.5357 60.6152 24.6995C60.6152 26.5404 60.8902 28.026 61.4401 29.1564C61.9901 30.2544 62.6533 31.0941 63.4297 31.6754C64.2384 32.2568 65.0471 32.6605 65.8559 32.8865C66.697 33.0803 67.3763 33.1772 67.8939 33.1772Z" fill="#F8F9FF"/>
<path d="M97.3415 35.9385C97.2768 35.9385 97.1636 35.8739 97.0019 35.7447C96.8725 35.6155 96.8078 35.5186 96.8078 35.454C96.8078 35.1311 96.8401 34.6789 96.9048 34.0976C97.0019 33.484 97.0504 32.9673 97.0504 32.5474V32.2568C96.5651 32.9996 95.7887 33.7585 94.7212 34.5336C93.6537 35.3087 92.3111 35.6963 90.6937 35.6963C88.8497 35.6963 87.2484 35.2118 85.8897 34.243C84.5634 33.2741 83.5282 32.0307 82.7841 30.5128C82.0724 28.9949 81.7166 27.4285 81.7166 25.8137C81.7166 23.9406 82.1533 22.1805 83.0268 20.5334C83.9002 18.8863 85.1457 17.546 86.7632 16.5126C88.413 15.4791 90.3702 14.9624 92.6346 14.9624C93.2816 14.9624 93.9286 15.0269 94.5756 15.1561C95.255 15.253 95.7726 15.3661 96.1284 15.4952C96.4196 15.5921 96.6298 15.6406 96.7592 15.6406C96.9857 15.6406 97.0989 15.253 97.0989 14.4779V7.59891C97.0989 6.27478 96.8886 5.38665 96.4681 4.93451C96.0475 4.48236 95.4491 4.1917 94.6727 4.06252C94.3815 3.99793 94.236 3.78801 94.236 3.43275C94.236 3.14209 94.3654 2.94832 94.6242 2.85143C96.0475 2.49617 97.1636 2.15707 97.9724 1.83411C98.7811 1.51115 99.4119 1.25278 99.8648 1.05901C99.9942 0.994419 100.107 0.962123 100.204 0.962123C100.334 0.929826 100.431 0.913678 100.496 0.913678C100.69 0.913678 100.803 1.01057 100.835 1.20434C100.835 1.39812 100.803 1.73722 100.738 2.22166C100.706 2.6738 100.657 3.35201 100.593 4.25629C100.528 5.16058 100.496 6.33937 100.496 7.79269V29.6892C100.496 30.7873 100.577 31.5947 100.738 32.1114C100.9 32.5959 101.159 32.8381 101.515 32.8381C101.676 32.8381 101.951 32.8219 102.34 32.7896C102.76 32.7573 103.181 32.7251 103.601 32.6928C104.184 32.6605 104.475 32.8058 104.475 33.1287C104.475 33.3548 104.394 33.5647 104.232 33.7585C104.103 33.92 103.957 34.0007 103.795 34.0007C102.89 34.1299 102 34.3237 101.126 34.5821C100.253 34.8081 99.2502 35.1634 98.1179 35.6478C97.8591 35.777 97.6812 35.8577 97.5842 35.89C97.5195 35.9223 97.4386 35.9385 97.3415 35.9385ZM92.4405 33.1772C93.2816 33.1772 94.1066 32.9673 94.9153 32.5474C95.724 32.0953 96.4357 31.514 97.0504 30.8035L97.0989 22.0836C97.0989 21.2116 96.8401 20.3558 96.3225 19.5161C95.8373 18.6764 95.1418 17.9982 94.236 17.4814C93.3625 16.9324 92.3273 16.6579 91.1304 16.6579C90.3863 16.6579 89.5452 16.884 88.6071 17.3361C87.669 17.7882 86.8602 18.5956 86.1809 19.7583C85.5015 20.8886 85.1618 22.5357 85.1618 24.6995C85.1618 26.5404 85.4368 28.026 85.9868 29.1564C86.5367 30.2544 87.1999 31.0941 87.9763 31.6754C88.785 32.2568 89.5938 32.6605 90.4025 32.8865C91.2436 33.0803 91.923 33.1772 92.4405 33.1772Z" fill="#F8F9FF"/>
<path d="M106.457 35.1634C106.296 35.1634 106.085 35.1311 105.827 35.0665C105.6 35.0342 105.487 34.9212 105.487 34.7274C105.487 34.469 105.6 34.2914 105.827 34.1945C106.085 34.0653 106.344 33.9523 106.603 33.8554C107.088 33.6939 107.557 33.5163 108.01 33.3225C108.463 33.0965 108.689 32.6605 108.689 32.0145V7.59891C108.689 6.66233 108.512 5.88723 108.156 5.27361C107.832 4.6277 107.266 4.224 106.457 4.06252C106.199 3.99793 106.069 3.78801 106.069 3.43275C106.069 3.10979 106.182 2.91602 106.409 2.85143C107.25 2.65765 107.978 2.46388 108.592 2.2701C109.207 2.04403 109.773 1.81796 110.291 1.59189C110.841 1.36582 111.374 1.1559 111.892 0.962123C112.021 0.89753 112.119 0.865234 112.183 0.865234C112.248 0.865234 112.296 0.913678 112.329 1.01057C112.394 1.07516 112.426 1.13975 112.426 1.20434C112.426 1.495 112.361 2.12477 112.232 3.09365C112.135 4.03022 112.086 5.59657 112.086 7.79269V32.0145C112.086 32.6605 112.313 33.0965 112.766 33.3225C113.218 33.5163 113.688 33.6939 114.173 33.8554C114.432 33.9523 114.674 34.0653 114.901 34.1945C115.159 34.2914 115.289 34.469 115.289 34.7274C115.289 34.9212 115.159 35.0342 114.901 35.0665C114.674 35.1311 114.48 35.1634 114.318 35.1634C113.704 35.1634 113.202 35.1311 112.814 35.0665C112.458 35.0342 112.102 35.0019 111.747 34.9696C111.423 34.9373 110.97 34.9212 110.388 34.9212C109.838 34.9212 109.385 34.9373 109.029 34.9696C108.673 35.0019 108.317 35.0342 107.962 35.0665C107.606 35.1311 107.104 35.1634 106.457 35.1634Z" fill="#F8F9FF"/>
<path d="M126.558 35.7447C124.779 35.7447 123.226 35.3087 121.9 34.4367C120.573 33.5647 119.538 32.3375 118.794 30.755C118.05 29.1402 117.678 27.2832 117.678 25.184C117.678 23.3108 118.098 21.6153 118.94 20.0974C119.813 18.5472 120.961 17.3038 122.385 16.3672C123.808 15.4306 125.361 14.9624 127.043 14.9624C128.337 14.9624 129.486 15.2207 130.488 15.7375C131.491 16.2542 132.268 16.9808 132.818 17.9174C133.4 18.8217 133.691 19.8713 133.691 21.0663C133.691 22.0674 133.206 22.568 132.235 22.568H121.997C121.544 22.568 121.22 22.6972 121.026 22.9556C120.864 23.1816 120.783 23.6499 120.783 24.3604C120.783 25.9106 121.123 27.3317 121.802 28.6235C122.482 29.883 123.388 30.9003 124.52 31.6754C125.652 32.4182 126.898 32.7896 128.256 32.7896C129.227 32.7896 130.1 32.612 130.877 32.2568C131.685 31.8692 132.397 31.3202 133.012 30.6097C133.141 30.4482 133.238 30.3513 133.303 30.319C133.368 30.2544 133.448 30.2221 133.545 30.2221C133.804 30.2221 133.934 30.3836 133.934 30.7066C133.934 31.3202 133.642 31.9984 133.06 32.7412C132.575 33.3548 131.993 33.8877 131.313 34.3398C130.634 34.792 129.89 35.1311 129.081 35.3572C128.272 35.6155 127.431 35.7447 126.558 35.7447ZM122.094 21.0663H126.509C127.286 21.0663 127.949 21.0501 128.499 21.0178C129.049 20.9855 129.583 20.9209 130.1 20.824C130.262 20.7917 130.359 20.6949 130.391 20.5334C130.456 20.3396 130.488 20.0812 130.488 19.7583C130.488 18.8217 130.068 18.0305 129.227 17.3845C128.418 16.7063 127.448 16.3672 126.315 16.3672C125.571 16.3672 124.827 16.5933 124.083 17.0454C123.339 17.4653 122.724 17.9982 122.239 18.6441C121.754 19.29 121.511 19.9359 121.511 20.5818C121.511 20.9048 121.705 21.0663 122.094 21.0663Z" fill="#F8F9FF"/>
<path d="M163.866 35.6963C161.634 35.6963 159.499 35.3087 157.461 34.5336C155.455 33.7262 153.659 32.612 152.074 31.191C150.521 29.77 149.292 28.1068 148.386 26.2013C147.481 24.2635 147.028 22.1805 147.028 19.9521C147.028 17.5622 147.497 15.3338 148.435 13.2668C149.373 11.1999 150.667 9.39133 152.317 7.84113C153.967 6.29093 155.859 5.07984 157.994 4.20785C160.162 3.33586 162.459 2.89987 164.885 2.89987C165.435 2.89987 166.179 2.96446 167.117 3.09365C168.087 3.19053 169.074 3.31972 170.077 3.4812C171.112 3.64267 172.034 3.8203 172.843 4.01408C173.684 4.17555 174.266 4.33703 174.59 4.49851C174.751 4.5631 174.848 4.64385 174.881 4.74073C174.946 4.80532 174.994 4.91836 175.026 5.07984C175.156 6.01642 175.269 6.953 175.366 7.88958C175.463 8.79386 175.512 9.56896 175.512 10.2149C175.512 10.4409 175.431 10.667 175.269 10.8931C175.14 11.0869 174.978 11.1837 174.784 11.1837C174.46 11.1837 174.218 11.0384 174.056 10.7478C173.894 10.4571 173.765 10.1664 173.668 9.87576C173.474 9.35903 173.263 8.92304 173.037 8.56779C172.843 8.18024 172.552 7.76039 172.163 7.30825C171.969 7.04988 171.549 6.72692 170.902 6.33938C170.287 5.91953 169.446 5.54813 168.379 5.22517C167.311 4.90221 166.001 4.74073 164.448 4.74073C162.572 4.74073 160.857 5.14443 159.304 5.95183C157.752 6.72692 156.409 7.80883 155.277 9.19755C154.177 10.554 153.32 12.1042 152.705 13.8482C152.123 15.5921 151.832 17.4168 151.832 19.3223C151.832 21.6153 152.187 23.6661 152.899 25.4746C153.611 27.2832 154.565 28.8173 155.762 30.0768C156.959 31.3363 158.318 32.2891 159.838 32.935C161.359 33.5809 162.928 33.9039 164.545 33.9039C166.421 33.9039 167.796 33.6778 168.67 33.2256C169.575 32.7735 170.174 32.4021 170.465 32.1114C170.821 31.7562 171.144 31.2556 171.436 30.6097C171.759 29.9638 171.921 29.221 171.921 28.3813C171.921 28.0906 171.921 27.7838 171.921 27.4608C171.953 27.1379 171.969 26.8149 171.969 26.492C172.002 26.169 172.018 25.8622 172.018 25.5715C172.018 25.2163 172.002 24.9256 171.969 24.6995C171.937 24.4412 171.872 24.2474 171.775 24.1182C171.516 23.763 171.064 23.4723 170.417 23.2462C169.77 23.0202 169.123 22.8587 168.476 22.7618C167.829 22.6649 167.343 22.6165 167.02 22.6165C166.89 22.6165 166.696 22.5357 166.438 22.3742C166.179 22.2128 166.049 22.019 166.049 21.7929C166.049 21.5346 166.179 21.3408 166.438 21.2116C166.696 21.0501 166.89 20.9694 167.02 20.9694C167.829 20.9694 168.524 20.9855 169.106 21.0178C169.689 21.0501 170.287 21.0824 170.902 21.1147C171.516 21.147 172.261 21.1632 173.134 21.1632C173.975 21.1632 174.687 21.1309 175.269 21.0663C175.851 21.0017 176.579 20.9694 177.453 20.9694C177.582 20.9694 177.776 21.0178 178.035 21.1147C178.326 21.2116 178.472 21.4215 178.472 21.7445C178.472 21.9705 178.326 22.1643 178.035 22.3258C177.776 22.4873 177.582 22.5842 177.453 22.6165C176.741 22.8102 176.24 23.1009 175.948 23.4884C175.69 23.8437 175.512 24.3443 175.415 24.9902C175.318 25.7007 175.253 26.3305 175.221 26.8795C175.188 27.4285 175.172 28.0099 175.172 28.6235V29.9315C175.172 30.0929 175.204 30.2221 175.269 30.319C175.334 30.4159 175.398 30.5451 175.463 30.7066C175.56 30.868 175.69 31.0134 175.851 31.1426C176.013 31.2717 176.094 31.4009 176.094 31.5301C176.094 31.6593 176.062 31.8369 175.997 32.063C175.965 32.2568 175.77 32.3859 175.415 32.4505C175.188 32.4828 174.735 32.6766 174.056 33.0319C173.409 33.3548 172.584 33.7262 171.581 34.1461C170.578 34.5659 169.43 34.9212 168.136 35.2118C166.842 35.5348 165.419 35.6963 163.866 35.6963Z" fill="#F8F9FF"/>
<path d="M182.573 35.1634C182.249 35.1634 182.007 35.1149 181.845 35.0181C181.683 34.9535 181.602 34.8243 181.602 34.6305C181.602 34.3721 181.699 34.2107 181.893 34.1461C182.088 34.0492 182.362 33.9523 182.718 33.8554C183.333 33.6939 183.786 33.4679 184.077 33.1772C184.401 32.8542 184.562 32.4667 184.562 32.0145V21.5991C184.562 20.7272 184.433 19.9682 184.174 19.3223C183.915 18.6764 183.382 18.2727 182.573 18.1112C182.443 18.0789 182.33 17.9982 182.233 17.869C182.136 17.7398 182.088 17.6106 182.088 17.4814C182.088 17.1585 182.233 16.9647 182.524 16.9001C183.365 16.6417 184.239 16.2703 185.145 15.7859C186.083 15.2692 186.811 14.8493 187.328 14.5264C187.522 14.3972 187.668 14.3164 187.765 14.2841C187.894 14.2196 187.991 14.1873 188.056 14.1873C188.218 14.1873 188.299 14.3003 188.299 14.5264C188.299 14.6233 188.282 14.8655 188.25 15.253C188.25 15.6406 188.234 16.0927 188.202 16.6094C188.202 17.1262 188.185 17.6429 188.153 18.1596C188.153 18.2242 188.185 18.2565 188.25 18.2565C188.768 17.6106 189.334 17.0454 189.948 16.561C190.595 16.0766 191.242 15.689 191.889 15.3983C192.569 15.1077 193.216 14.9624 193.83 14.9624C194.51 14.9624 195.06 15.1077 195.48 15.3983C195.933 15.689 196.16 16.0604 196.16 16.5126C196.16 16.8355 196.063 17.1908 195.868 17.5783C195.707 17.9659 195.48 18.305 195.189 18.5956C194.898 18.8863 194.591 19.0316 194.267 19.0316C194.073 19.0316 193.863 18.9993 193.636 18.9347C193.41 18.8379 193.167 18.7248 192.908 18.5956C192.65 18.4987 192.391 18.4019 192.132 18.305C191.873 18.2081 191.615 18.1596 191.356 18.1596C190.579 18.1596 189.819 18.4342 189.075 18.9832C188.363 19.5322 188.008 20.6141 188.008 22.2289V32.0145C188.008 32.4344 188.234 32.7896 188.687 33.0803C189.14 33.3387 189.771 33.597 190.579 33.8554C190.935 33.9523 191.21 34.0492 191.404 34.1461C191.598 34.243 191.695 34.4044 191.695 34.6305C191.695 34.9858 191.372 35.1634 190.725 35.1634C189.754 35.1634 189.01 35.1149 188.493 35.0181C188.008 34.9535 187.344 34.9212 186.503 34.9212C185.953 34.9212 185.5 34.9373 185.145 34.9696C184.821 35.0019 184.465 35.0342 184.077 35.0665C183.721 35.1311 183.22 35.1634 182.573 35.1634Z" fill="#F8F9FF"/>
<path d="M207.756 35.6963C205.945 35.6963 204.311 35.2764 202.855 34.4367C201.4 33.597 200.235 32.4505 199.362 30.9972C198.52 29.5116 198.1 27.8322 198.1 25.9591C198.1 24.6027 198.359 23.2785 198.876 21.9867C199.426 20.6949 200.186 19.5161 201.157 18.4503C202.127 17.3845 203.26 16.5449 204.554 15.9312C205.848 15.2853 207.239 14.9624 208.727 14.9624C210.603 14.9624 212.285 15.4145 213.773 16.3188C215.294 17.2231 216.491 18.418 217.364 19.9036C218.27 21.3569 218.723 22.9556 218.723 24.6995C218.723 26.5727 218.302 28.349 217.461 30.0284C216.652 31.7077 215.439 33.0803 213.822 34.1461C212.204 35.1795 210.183 35.6963 207.756 35.6963ZM208.775 34.243C209.875 34.243 210.862 34.033 211.735 33.6132C212.609 33.1933 213.288 32.5151 213.773 31.5785C214.162 30.8357 214.42 29.9315 214.55 28.8657C214.679 27.7999 214.744 26.7988 214.744 25.8622C214.744 24.312 214.453 22.8264 213.87 21.4054C213.32 19.9521 212.528 18.7733 211.493 17.869C210.49 16.9324 209.293 16.4641 207.902 16.4641C207.028 16.4641 206.236 16.6094 205.524 16.9001C204.845 17.1585 204.214 17.6591 203.632 18.4019C202.985 19.2093 202.564 20.1943 202.37 21.3569C202.176 22.5196 202.079 23.6822 202.079 24.8449C202.079 26.4274 202.37 27.9453 202.952 29.3986C203.535 30.8196 204.327 31.9822 205.33 32.8865C206.333 33.7908 207.481 34.243 208.775 34.243Z" fill="#F8F9FF"/>
<path d="M238.187 35.9385C237.96 35.9385 237.847 35.8093 237.847 35.5509C237.847 35.228 237.88 34.7597 237.944 34.1461C238.041 33.5001 238.09 32.9673 238.09 32.5474C238.09 32.4828 238.09 32.4344 238.09 32.4021C238.09 32.3375 238.09 32.2891 238.09 32.2568C236.828 33.484 235.55 34.3721 234.256 34.9212C232.995 35.4379 231.604 35.6963 230.083 35.6963C229.048 35.6963 228.11 35.4702 227.269 35.0181C226.428 34.5982 225.765 33.9684 225.279 33.1287C224.794 32.2568 224.551 31.191 224.551 29.9315V20.0974C224.551 19.3869 224.39 18.8217 224.066 18.4019C223.743 17.982 223.209 17.6268 222.465 17.3361C222.303 17.2715 222.158 17.1908 222.028 17.0939C221.899 16.997 221.834 16.8194 221.834 16.561C221.834 16.2703 221.899 16.0766 222.028 15.9797C222.19 15.8828 222.368 15.8182 222.562 15.7859C223.662 15.7213 224.503 15.6406 225.085 15.5437C225.7 15.4145 226.46 15.2369 227.366 15.0108C227.463 14.9785 227.528 14.9624 227.56 14.9624C227.625 14.9624 227.689 14.9624 227.754 14.9624C228.11 14.9624 228.272 15.1884 228.239 15.6406C228.142 16.3834 228.061 17.0131 227.997 17.5299C227.964 18.0143 227.948 18.6279 227.948 19.3707V28.8173C227.948 29.5924 228.142 30.319 228.531 30.9972C228.919 31.6431 229.42 32.176 230.035 32.5959C230.682 33.0157 231.345 33.2256 232.024 33.2256C232.865 33.2256 233.593 33.1772 234.208 33.0803C234.855 32.9834 235.486 32.7089 236.1 32.2568C236.456 31.9984 236.909 31.5786 237.459 30.9972C238.009 30.4159 238.284 29.6247 238.284 28.6235V19.7583C238.284 19.0801 238.074 18.5795 237.653 18.2565C237.265 17.9013 236.812 17.6591 236.294 17.5299C235.777 17.4007 235.356 17.3361 235.033 17.3361C234.742 17.3361 234.499 17.2877 234.305 17.1908C234.111 17.0616 234.014 16.8355 234.014 16.5126C234.014 16.2219 234.111 16.0281 234.305 15.9312C234.531 15.8343 234.774 15.7859 235.033 15.7859C236.036 15.7536 236.861 15.7213 237.508 15.689C238.187 15.6244 238.785 15.5437 239.303 15.4468C239.853 15.3176 240.419 15.1723 241.001 15.0108C241.066 14.9785 241.147 14.9624 241.244 14.9624C241.341 14.9301 241.422 14.9139 241.487 14.9139C241.907 14.9139 242.117 15.0915 242.117 15.4468C242.117 15.4791 242.101 15.5437 242.069 15.6406C242.069 15.7052 242.053 15.7859 242.02 15.8828C241.988 15.9797 241.939 16.2542 241.875 16.7063C241.842 17.1585 241.794 17.6268 241.729 18.1112C241.697 18.5956 241.681 18.967 241.681 19.2254V30.4159C241.681 31.2879 241.762 31.9177 241.923 32.3052C242.117 32.6605 242.328 32.8381 242.554 32.8381C242.813 32.8381 243.185 32.8219 243.67 32.7896C244.188 32.725 244.56 32.6928 244.786 32.6928C244.948 32.6928 245.11 32.725 245.271 32.7896C245.433 32.8542 245.514 33.0319 245.514 33.3225C245.514 33.5809 245.449 33.7585 245.32 33.8554C245.191 33.92 245.029 33.9684 244.835 34.0007C243.573 34.1622 242.489 34.4044 241.584 34.7274C240.678 35.0503 239.869 35.3572 239.157 35.6478C239.06 35.6801 238.915 35.7286 238.721 35.7932C238.527 35.89 238.349 35.9385 238.187 35.9385Z" fill="#F8F9FF"/>
<path d="M248.151 35.1634C247.86 35.1634 247.617 35.1149 247.423 35.0181C247.262 34.9535 247.181 34.8243 247.181 34.6305C247.181 34.3721 247.278 34.2107 247.472 34.1461C247.666 34.0492 247.941 33.9523 248.297 33.8554C248.782 33.7262 249.251 33.5486 249.704 33.3225C250.157 33.0965 250.383 32.6605 250.383 32.0145V21.5991C250.383 20.7272 250.286 19.9844 250.092 19.3707C249.93 18.7571 249.429 18.3373 248.588 18.1112C248.458 18.0466 248.345 17.982 248.248 17.9174C248.151 17.8205 248.103 17.6752 248.103 17.4814C248.103 17.1262 248.248 16.9324 248.539 16.9001C249.672 16.6094 250.594 16.2542 251.305 15.8343C252.017 15.4145 252.712 14.9462 253.392 14.4295C253.489 14.3649 253.57 14.3164 253.634 14.2841C253.731 14.2196 253.829 14.1873 253.926 14.1873C253.99 14.1873 254.039 14.2196 254.071 14.2841C254.136 14.3487 254.168 14.4295 254.168 14.5264C254.168 14.7524 254.12 15.2207 254.023 15.9312C253.958 16.6094 253.926 17.1746 253.926 17.6268C253.926 17.7559 253.926 17.8851 253.926 18.0143C253.958 18.1112 253.99 18.1758 254.023 18.2081C255.155 17.1423 256.352 16.3349 257.613 15.7859C258.907 15.2369 260.315 14.9624 261.835 14.9624C263.42 14.9624 264.73 15.6083 265.766 16.9001C266.801 18.1919 267.318 19.7906 267.318 21.696V32.0145C267.318 32.6605 267.545 33.0965 267.998 33.3225C268.451 33.5163 268.92 33.6939 269.405 33.8554C269.664 33.9523 269.906 34.0653 270.133 34.1945C270.392 34.2914 270.521 34.469 270.521 34.7274C270.521 34.9212 270.408 35.0342 270.181 35.0665C269.955 35.1311 269.745 35.1634 269.55 35.1634C268.903 35.1634 268.402 35.1311 268.046 35.0665C267.69 35.0342 267.351 35.0019 267.027 34.9696C266.704 34.9373 266.251 34.9212 265.669 34.9212C265.119 34.9212 264.666 34.9373 264.31 34.9696C263.954 35.0019 263.582 35.0342 263.194 35.0665C262.838 35.1311 262.336 35.1634 261.689 35.1634C261.528 35.1634 261.317 35.1311 261.059 35.0665C260.832 35.0342 260.719 34.9212 260.719 34.7274C260.719 34.469 260.832 34.2914 261.059 34.1945C261.317 34.0653 261.576 33.9523 261.835 33.8554C262.32 33.6939 262.789 33.5163 263.242 33.3225C263.695 33.0965 263.922 32.6605 263.922 32.0145V21.8414C263.922 20.4203 263.517 19.3223 262.708 18.5472C261.932 17.7398 260.881 17.32 259.554 17.2877C258.39 17.2877 257.371 17.4814 256.497 17.869C255.624 18.2242 254.848 18.6764 254.168 19.2254C254.039 19.3546 253.942 19.5322 253.877 19.7583C253.812 19.9521 253.78 20.1458 253.78 20.3396V32.0145C253.78 32.6605 254.006 33.0965 254.459 33.3225C254.912 33.5486 255.381 33.7262 255.867 33.8554C256.611 34.0492 256.983 34.3075 256.983 34.6305C256.983 34.8243 256.902 34.9535 256.74 35.0181C256.578 35.1149 256.336 35.1634 256.012 35.1634C255.365 35.1634 254.848 35.1311 254.459 35.0665C254.103 35.0342 253.764 35.0019 253.44 34.9696C253.117 34.9373 252.664 34.9212 252.082 34.9212C251.532 34.9212 251.079 34.9373 250.723 34.9696C250.399 35.0019 250.044 35.0342 249.655 35.0665C249.3 35.1311 248.798 35.1634 248.151 35.1634Z" fill="#F8F9FF"/>
<path d="M288.976 35.9385C288.911 35.9385 288.798 35.8739 288.636 35.7447C288.507 35.6155 288.442 35.5186 288.442 35.454C288.442 35.1311 288.474 34.6789 288.539 34.0976C288.636 33.484 288.685 32.9673 288.685 32.5474V32.2568C288.199 32.9996 287.423 33.7585 286.356 34.5336C285.288 35.3087 283.945 35.6963 282.328 35.6963C280.484 35.6963 278.883 35.2118 277.524 34.243C276.198 33.2741 275.163 32.0307 274.418 30.5128C273.707 28.9949 273.351 27.4285 273.351 25.8137C273.351 23.9406 273.788 22.1805 274.661 20.5334C275.535 18.8863 276.78 17.546 278.397 16.5126C280.047 15.4791 282.004 14.9624 284.269 14.9624C284.916 14.9624 285.563 15.0269 286.21 15.1561C286.889 15.253 287.407 15.3661 287.763 15.4952C288.054 15.5921 288.264 15.6406 288.394 15.6406C288.62 15.6406 288.733 15.253 288.733 14.4779V7.59891C288.733 6.27478 288.523 5.38665 288.102 4.93451C287.682 4.48236 287.083 4.1917 286.307 4.06252C286.016 3.99793 285.87 3.78801 285.87 3.43275C285.87 3.14209 286 2.94832 286.259 2.85143C287.682 2.49617 288.798 2.15707 289.607 1.83411C290.415 1.51115 291.046 1.25278 291.499 1.05901C291.629 0.994419 291.742 0.962123 291.839 0.962123C291.968 0.929826 292.065 0.913678 292.13 0.913678C292.324 0.913678 292.437 1.01057 292.47 1.20434C292.47 1.39812 292.437 1.73722 292.373 2.22166C292.34 2.6738 292.292 3.35201 292.227 4.25629C292.162 5.16058 292.13 6.33937 292.13 7.79269V29.6892C292.13 30.7873 292.211 31.5947 292.373 32.1114C292.534 32.5959 292.793 32.8381 293.149 32.8381C293.311 32.8381 293.586 32.8219 293.974 32.7896C294.394 32.7573 294.815 32.7251 295.236 32.6928C295.818 32.6605 296.109 32.8058 296.109 33.1287C296.109 33.3548 296.028 33.5647 295.866 33.7585C295.737 33.92 295.591 34.0007 295.43 34.0007C294.524 34.1299 293.634 34.3237 292.761 34.5821C291.887 34.8081 290.884 35.1634 289.752 35.6478C289.493 35.777 289.316 35.8577 289.219 35.89C289.154 35.9223 289.073 35.9385 288.976 35.9385ZM284.075 33.1772C284.916 33.1772 285.741 32.9673 286.55 32.5474C287.358 32.0953 288.07 31.514 288.685 30.8035L288.733 22.0836C288.733 21.2116 288.474 20.3558 287.957 19.5161C287.472 18.6764 286.776 17.9982 285.87 17.4814C284.997 16.9324 283.962 16.6579 282.765 16.6579C282.021 16.6579 281.18 16.884 280.241 17.3361C279.303 17.7882 278.495 18.5956 277.815 19.7583C277.136 20.8886 276.796 22.5357 276.796 24.6995C276.796 26.5404 277.071 28.026 277.621 29.1564C278.171 30.2544 278.834 31.0941 279.611 31.6754C280.419 32.2568 281.228 32.6605 282.037 32.8865C282.878 33.0803 283.557 33.1772 284.075 33.1772Z" fill="#F8F9FF"/>
<path d="M147.375 48.9038C147.557 48.3459 148.347 48.3459 148.529 48.9038L149.927 53.1984C150.008 53.4479 150.241 53.6169 150.503 53.6169H155.027C155.614 53.6169 155.859 54.3675 155.383 54.7123L151.724 57.3665C151.511 57.5207 151.422 57.7941 151.503 58.0436L152.901 62.3382C153.083 62.8961 152.443 63.36 151.968 63.0152L148.308 60.361C148.096 60.2068 147.808 60.2068 147.595 60.361L143.936 63.0152C143.461 63.36 142.821 62.8961 143.003 62.3382L144.4 58.0436C144.482 57.7941 144.393 57.5207 144.18 57.3665L140.521 54.7123C140.045 54.3675 140.29 53.6169 140.877 53.6169H145.4C145.663 53.6169 145.896 53.4479 145.977 53.1984L147.375 48.9038Z" fill="#F8F9FF"/>
<path fill-rule="evenodd" clip-rule="evenodd" d="M2.58032 56.8203H136.023V58.0314H2.58032V56.8203ZM293.728 58.0314H160.892V56.8203H293.728V58.0314Z" fill="#F8F9FF"/>
</svg>
