<svg width="310" height="60" viewBox="0 0 310 60" fill="none" xmlns="http://www.w3.org/2000/svg">
<path fill-rule="evenodd" clip-rule="evenodd" d="M154.684 0H180.818V18.4112H199.486V34.8319H219.648V18.4112H253.996V52.2479H310V59.2143H243.542V25.3776H230.102V41.7983H189.032V25.3776H170.365V6.96639H165.137V44.2863C165.137 49.5701 161.878 54.9597 156.061 57.8882C153.038 59.4104 149.235 60.287 145.044 59.9146C140.911 59.5474 137.075 58.0272 133.696 55.6254C129.823 52.8725 128.326 49.3893 127.736 46.1886C127.196 43.2649 127.357 40.1862 127.491 37.6101C127.503 37.3879 127.514 37.1694 127.525 36.9551C127.673 33.9915 127.66 32.0511 127.133 30.8414C127.024 30.5889 126.923 30.4509 126.865 30.3844C126.767 30.3699 126.592 30.3536 126.308 30.3536C122.209 30.3536 119.78 32.1335 118.182 35.221C117.413 36.7083 117.007 38.245 116.8 39.4437C116.698 40.0342 116.648 40.5215 116.624 40.8521C116.612 41.0169 116.606 41.1414 116.603 41.2187C116.602 41.2574 116.601 41.2841 116.601 41.2981L116.601 41.3007V41.3029C116.601 41.3027 116.601 41.3024 116.515 41.3021L106.23 41.4675C106.153 41.4701 106.153 41.4704 106.153 41.4706L106.153 41.4687L106.152 41.4613C106.152 41.4533 106.151 41.4421 106.149 41.4278C106.148 41.4137 106.146 41.3967 106.144 41.3767C106.136 41.2958 106.122 41.1675 106.098 40.9985C106.052 40.6597 105.971 40.1625 105.836 39.5608C105.562 38.3414 105.084 36.7693 104.278 35.2413C102.502 31.8762 100.142 30.3536 97.1865 30.3536C96.5718 30.3536 95.5829 30.4878 94.2662 32.0894C92.9045 33.7456 91.8408 36.2878 91.0725 39.4875C89.9777 44.0474 89.6419 49.0776 89.3495 53.4567C89.3411 53.5831 89.3327 53.7089 89.3243 53.8342C89.2661 55.58 89.1365 57.1765 88.9512 58.5345L78.5311 57.9795C78.6562 56.771 78.7559 55.2814 78.8674 53.6159C78.8721 53.5463 78.8768 53.4764 78.8815 53.4062C78.9955 49.3822 78.7026 44.4718 77.7673 40.0587C77.0998 36.909 76.1476 34.2271 74.9518 32.3518C73.8387 30.6063 73.014 30.3062 72.9822 30.2826C71.5177 30.109 71.2352 30.3066 71.0977 30.4028C71.0864 30.4108 71.076 30.418 71.0661 30.4243C70.4059 30.8414 69.6268 31.7376 68.307 33.8223C68.0624 34.2087 67.8092 34.6185 67.5428 35.0494C65.1502 38.921 61.7034 44.4984 54.0036 50.1181C46.6907 55.4555 36.8132 57.9764 27.8839 59.0473C18.9484 60.1189 10.4339 59.8065 5.14051 59.1567L0 58.5257L1.89387 51.6745L7.03438 52.3056C11.1993 52.8168 18.4405 53.1015 26.0323 52.191C33.6302 51.2798 41.0516 49.2394 46.2835 45.4209C52.6876 40.7469 55.4919 36.2317 57.8806 32.3856C58.1492 31.9532 58.4125 31.5292 58.6751 31.1144C59.8755 29.2183 61.3832 26.9423 63.8733 25.369C66.8904 23.4627 70.6987 22.9092 75.0017 23.4468C80.1024 24.0841 82.9269 27.0881 84.5015 29.5159C84.6925 29.2518 84.8912 28.9937 85.098 28.7421C87.3779 25.9689 91.2302 23.3872 97.1865 23.3872C104.097 23.3872 108.498 26.007 111.249 28.8942C114.16 25.951 118.867 23.3872 126.308 23.3872C128.921 23.3872 131.446 23.8486 133.523 24.994C135.535 26.104 136.592 27.5648 137.174 28.9016C138.258 31.3928 138.105 34.5528 137.973 37.1872C137.964 37.3736 137.954 37.5593 137.945 37.7444C137.807 40.4374 137.677 42.9849 138.112 45.3385C138.571 47.8291 139.595 49.6329 141.322 50.8608C143.544 52.4398 145.308 52.9101 146.425 53.0093C147.484 53.1034 148.582 52.9226 149.759 52.33C152.343 51.029 154.684 47.9593 154.684 44.2863V0ZM126.967 30.4061C126.966 30.4067 126.955 30.4042 126.935 30.3971C126.958 30.402 126.967 30.4055 126.967 30.4061Z" fill="#EFF6FF"/>
</svg>
