<svg width="376" height="376" viewBox="0 0 376 376" fill="none" xmlns="http://www.w3.org/2000/svg">
<rect width="376" height="376" fill="#217D01"/>
<path d="M51.188 248.16C54.6547 248.16 57.636 248.871 60.132 250.292C62.6627 251.679 64.604 253.689 65.956 256.324C67.308 258.959 67.984 262.131 67.984 265.84C67.984 269.549 67.308 272.721 65.956 275.356C64.604 277.991 62.6627 280.019 60.132 281.44C57.636 282.827 54.6547 283.52 51.188 283.52C47.7213 283.52 44.7227 282.827 42.192 281.44C39.6613 280.019 37.72 277.991 36.368 275.356C35.016 272.721 34.34 269.549 34.34 265.84C34.34 262.131 35.016 258.959 36.368 256.324C37.72 253.689 39.6613 251.679 42.192 250.292C44.7227 248.871 47.7213 248.16 51.188 248.16ZM51.188 255.18C49.524 255.18 48.12 255.579 46.976 256.376C45.832 257.173 44.9653 258.369 44.376 259.964C43.7867 261.524 43.492 263.483 43.492 265.84C43.492 268.163 43.7867 270.121 44.376 271.716C44.9653 273.311 45.832 274.507 46.976 275.304C48.12 276.101 49.524 276.5 51.188 276.5C52.852 276.5 54.2387 276.101 55.348 275.304C56.492 274.507 57.3587 273.311 57.948 271.716C58.5373 270.121 58.832 268.163 58.832 265.84C58.832 263.483 58.5373 261.524 57.948 259.964C57.3587 258.369 56.492 257.173 55.348 256.376C54.2387 255.579 52.852 255.18 51.188 255.18ZM105.076 248.68V283H95.1438L84.4838 264.436L81.8838 259.34H81.8318L82.0398 265.684V283H74.1358V248.68H84.0678L94.7278 267.244L97.3278 272.34H97.3798L97.1718 265.996V248.68H105.076ZM155.504 248.68V255.596H144.324V283H135.38V255.596H124.148V248.68H155.504ZM191.608 248.68V283H182.664V248.68H191.608ZM169.56 248.68V283H160.616V248.68H169.56ZM187.448 262.252V269.168H164.984V262.252H187.448ZM199.21 283V248.68H225.938V255.596H208.154V262.564H222.298V269.064H208.154V276.084H226.614V283H199.21ZM75.524 300.68V335H67.62V319.244L67.88 308.688H67.776L59.3 335H52.072L43.596 308.688H43.492L43.752 319.244V335H35.796V300.68H48.536L53.944 318.152L55.868 325.432H55.972L57.948 318.204L63.304 300.68H75.524ZM98.5161 300.16C101.983 300.16 104.964 300.871 107.46 302.292C109.991 303.679 111.932 305.689 113.284 308.324C114.636 310.959 115.312 314.131 115.312 317.84C115.312 321.549 114.636 324.721 113.284 327.356C111.932 329.991 109.991 332.019 107.46 333.44C104.964 334.827 101.983 335.52 98.5161 335.52C95.0495 335.52 92.0508 334.827 89.5201 333.44C86.9895 332.019 85.0481 329.991 83.6961 327.356C82.3441 324.721 81.6681 321.549 81.6681 317.84C81.6681 314.131 82.3441 310.959 83.6961 308.324C85.0481 305.689 86.9895 303.679 89.5201 302.292C92.0508 300.871 95.0495 300.16 98.5161 300.16ZM98.5161 307.18C96.8521 307.18 95.4481 307.579 94.3041 308.376C93.1601 309.173 92.2935 310.369 91.7041 311.964C91.1148 313.524 90.8201 315.483 90.8201 317.84C90.8201 320.163 91.1148 322.121 91.7041 323.716C92.2935 325.311 93.1601 326.507 94.3041 327.304C95.4481 328.101 96.8521 328.5 98.5161 328.5C100.18 328.5 101.567 328.101 102.676 327.304C103.82 326.507 104.687 325.311 105.276 323.716C105.865 322.121 106.16 320.163 106.16 317.84C106.16 315.483 105.865 313.524 105.276 311.964C104.687 310.369 103.82 309.173 102.676 308.376C101.567 307.579 100.18 307.18 98.5161 307.18ZM151.958 300.68L139.79 335H129.286L117.066 300.68H126.478L132.77 321.428L134.642 328.188L136.462 321.532L142.858 300.68H151.958ZM156.046 335V300.68H182.774V307.596H164.99V314.564H179.134V321.064H164.99V328.084H183.45V335H156.046Z" fill="white"/>
<path d="M32 65C32 65 40.5 118 96.5 118C152.5 118 161.376 62.7752 208.5 43C264.5 19.5 301 69 301 69" stroke="white" stroke-width="6" stroke-dasharray="16 16"/>
<path d="M320 83L344 107L340 111L316 87L320 83Z" fill="white"/>
<path d="M344 87L320 111L316 107L340 83L344 87Z" fill="white"/>
</svg>
