<svg width="363" height="52" viewBox="0 0 363 52" fill="none" xmlns="http://www.w3.org/2000/svg">
<path d="M32.7812 2C15.9914 20.0966 5.26467 41.5402 2 50C15.8049 45.4023 57.9658 38.1379 94.9032 50C82.9151 35.2487 75.866 25.9569 62.1632 5.86207L48.7314 22.9655C44.0101 17.7414 38.6843 10.0481 32.7812 2Z" fill="#FCFEFA"/>
<path d="M53.4885 28.2069C51.7689 26.5924 52.4253 27.0528 48.7314 22.9655M48.7314 22.9655C44.0101 17.7414 38.6843 10.0481 32.7812 2C15.9914 20.0966 5.26467 41.5402 2 50C15.8049 45.4023 57.9658 38.1379 94.9032 50C82.9151 35.2487 75.866 25.9569 62.1632 5.86207L48.7314 22.9655Z" stroke="#416E16" stroke-width="2"/>
<path d="M109.579 35.7147V13.3147H119.307C120.651 13.3147 121.878 13.6347 122.987 14.2747C124.097 14.8933 124.971 15.7467 125.611 16.8347C126.273 17.9013 126.603 19.1067 126.603 20.4507C126.603 21.7307 126.273 22.9147 125.611 24.0027C124.971 25.0693 124.097 25.9227 122.987 26.5627C121.899 27.1813 120.673 27.4907 119.307 27.4907H113.643V35.7147H109.579ZM122.571 35.7147L116.875 25.6027L121.163 24.8027L127.499 35.7467L122.571 35.7147ZM113.643 23.8747H119.339C119.958 23.8747 120.491 23.736 120.939 23.4587C121.409 23.16 121.771 22.7547 122.027 22.2427C122.283 21.7307 122.411 21.1653 122.411 20.5467C122.411 19.8427 122.251 19.2347 121.931 18.7227C121.611 18.2107 121.163 17.8053 120.587 17.5067C120.011 17.208 119.35 17.0587 118.603 17.0587H113.643V23.8747Z" fill="#FCFEFA"/>
<path d="M138.467 36.0347C136.696 36.0347 135.128 35.6613 133.763 34.9147C132.419 34.168 131.363 33.1547 130.595 31.8747C129.848 30.5733 129.475 29.0907 129.475 27.4267C129.475 26.104 129.688 24.8987 130.115 23.8107C130.542 22.7227 131.128 21.784 131.875 20.9947C132.643 20.184 133.55 19.5653 134.595 19.1387C135.662 18.6907 136.824 18.4667 138.083 18.4667C139.192 18.4667 140.227 18.68 141.187 19.1067C142.147 19.5333 142.979 20.12 143.683 20.8667C144.387 21.592 144.92 22.4667 145.283 23.4907C145.667 24.4933 145.848 25.592 145.827 26.7867L145.795 28.1627H132.131L131.395 25.4747H142.499L141.987 26.0187V25.3147C141.923 24.6533 141.71 24.0773 141.347 23.5867C140.984 23.0747 140.515 22.68 139.939 22.4027C139.384 22.104 138.766 21.9547 138.083 21.9547C137.038 21.9547 136.152 22.1573 135.427 22.5627C134.723 22.968 134.19 23.5547 133.827 24.3227C133.464 25.0693 133.283 26.008 133.283 27.1387C133.283 28.2267 133.507 29.176 133.955 29.9867C134.424 30.7973 135.075 31.4267 135.907 31.8747C136.76 32.3013 137.752 32.5147 138.883 32.5147C139.672 32.5147 140.398 32.3867 141.059 32.1307C141.72 31.8747 142.435 31.416 143.203 30.7547L145.155 33.4747C144.579 34.008 143.918 34.4667 143.171 34.8507C142.446 35.2133 141.678 35.5013 140.867 35.7147C140.056 35.928 139.256 36.0347 138.467 36.0347Z" fill="#FCFEFA"/>
<path d="M155.681 36.0347C154.294 36.0347 153.036 35.6507 151.905 34.8827C150.774 34.1147 149.868 33.0693 149.185 31.7467C148.502 30.424 148.161 28.92 148.161 27.2347C148.161 25.5493 148.502 24.0453 149.185 22.7227C149.868 21.4 150.796 20.3653 151.969 19.6187C153.142 18.872 154.465 18.4987 155.937 18.4987C156.79 18.4987 157.569 18.6267 158.273 18.8827C158.977 19.1173 159.596 19.4587 160.129 19.9067C160.662 20.3547 161.1 20.8667 161.441 21.4427C161.804 22.0187 162.049 22.6373 162.177 23.2987L161.313 23.0747V18.8507H165.281V35.7147H161.281V31.6827L162.209 31.5227C162.06 32.0987 161.782 32.664 161.377 33.2187C160.993 33.752 160.502 34.232 159.905 34.6587C159.329 35.064 158.678 35.3947 157.953 35.6507C157.249 35.9067 156.492 36.0347 155.681 36.0347ZM156.769 32.5467C157.686 32.5467 158.497 32.3227 159.201 31.8747C159.905 31.4267 160.449 30.808 160.833 30.0187C161.238 29.208 161.441 28.28 161.441 27.2347C161.441 26.2107 161.238 25.304 160.833 24.5147C160.449 23.7253 159.905 23.1067 159.201 22.6587C158.497 22.2107 157.686 21.9867 156.769 21.9867C155.852 21.9867 155.041 22.2107 154.337 22.6587C153.654 23.1067 153.121 23.7253 152.737 24.5147C152.353 25.304 152.161 26.2107 152.161 27.2347C152.161 28.28 152.353 29.208 152.737 30.0187C153.121 30.808 153.654 31.4267 154.337 31.8747C155.041 32.3227 155.852 32.5467 156.769 32.5467Z" fill="#FCFEFA"/>
<path d="M176.628 36.0347C175.135 36.0347 173.791 35.6613 172.596 34.9147C171.423 34.1467 170.484 33.112 169.78 31.8107C169.097 30.488 168.756 28.9733 168.756 27.2667C168.756 25.5813 169.097 24.0773 169.78 22.7547C170.463 21.432 171.391 20.3973 172.564 19.6507C173.759 18.8827 175.103 18.4987 176.596 18.4987C177.407 18.4987 178.185 18.6267 178.932 18.8827C179.7 19.1387 180.383 19.4907 180.98 19.9387C181.577 20.3653 182.047 20.8453 182.388 21.3787C182.751 21.912 182.953 22.4667 182.996 23.0427L181.94 23.1707V12.0347H185.876V35.7147H182.068L181.972 31.7467L182.74 31.8107C182.719 32.344 182.527 32.856 182.164 33.3467C181.823 33.8373 181.375 34.2853 180.82 34.6907C180.265 35.096 179.615 35.4267 178.868 35.6827C178.143 35.9173 177.396 36.0347 176.628 36.0347ZM177.396 32.7067C178.313 32.7067 179.124 32.472 179.828 32.0027C180.532 31.5333 181.076 30.8933 181.46 30.0827C181.865 29.272 182.068 28.3333 182.068 27.2667C182.068 26.2213 181.865 25.2933 181.46 24.4827C181.076 23.6507 180.532 23.0107 179.828 22.5627C179.124 22.0933 178.313 21.8587 177.396 21.8587C176.479 21.8587 175.668 22.0933 174.964 22.5627C174.26 23.0107 173.705 23.6507 173.3 24.4827C172.916 25.2933 172.724 26.2213 172.724 27.2667C172.724 28.3333 172.916 29.272 173.3 30.0827C173.705 30.8933 174.26 31.5333 174.964 32.0027C175.668 32.472 176.479 32.7067 177.396 32.7067Z" fill="#FCFEFA"/>
<path d="M192.904 43.0747L196.488 34.7867L196.52 37.4107L188.2 18.8507H192.744L197.384 29.8587C197.533 30.136 197.683 30.5093 197.832 30.9787C197.981 31.4267 198.109 31.8747 198.216 32.3227L197.416 32.5787C197.565 32.1733 197.725 31.7467 197.896 31.2987C198.067 30.8293 198.227 30.3493 198.376 29.8587L202.344 18.8507H206.92L199.88 35.7147L197 43.0747H192.904Z" fill="#FCFEFA"/>
<path d="M229.15 36.0347C227.55 36.0347 226.067 35.7467 224.702 35.1707C223.336 34.5947 222.142 33.7947 221.118 32.7707C220.115 31.7253 219.336 30.4987 218.782 29.0907C218.227 27.6827 217.95 26.1467 217.95 24.4827C217.95 22.8187 218.227 21.2827 218.782 19.8747C219.336 18.4667 220.115 17.2507 221.118 16.2267C222.142 15.1813 223.336 14.3707 224.702 13.7947C226.067 13.2187 227.55 12.9307 229.15 12.9307C230.771 12.9307 232.264 13.2187 233.63 13.7947C234.995 14.3707 236.179 15.1813 237.182 16.2267C238.184 17.272 238.963 18.4987 239.518 19.9067C240.072 21.2933 240.35 22.8187 240.35 24.4827C240.35 26.1253 240.072 27.6507 239.518 29.0587C238.963 30.4667 238.184 31.6933 237.182 32.7387C236.179 33.784 234.995 34.5947 233.63 35.1707C232.264 35.7467 230.771 36.0347 229.15 36.0347ZM229.15 32.0667C230.174 32.0667 231.102 31.8853 231.934 31.5227C232.787 31.1387 233.523 30.6053 234.142 29.9227C234.76 29.2187 235.24 28.408 235.582 27.4907C235.944 26.5733 236.126 25.5707 236.126 24.4827C236.126 23.3947 235.944 22.392 235.582 21.4747C235.24 20.5573 234.76 19.7573 234.142 19.0747C233.523 18.3707 232.787 17.8373 231.934 17.4747C231.102 17.0907 230.174 16.8987 229.15 16.8987C228.147 16.8987 227.219 17.0907 226.366 17.4747C225.512 17.8373 224.776 18.36 224.158 19.0427C223.539 19.7253 223.059 20.5253 222.718 21.4427C222.376 22.36 222.206 23.3733 222.206 24.4827C222.206 25.5707 222.376 26.584 222.718 27.5227C223.059 28.44 223.539 29.24 224.158 29.9227C224.776 30.6053 225.512 31.1387 226.366 31.5227C227.219 31.8853 228.147 32.0667 229.15 32.0667Z" fill="#FCFEFA"/>
<path d="M250.013 36.0347C248.797 36.0347 247.741 35.768 246.845 35.2347C245.949 34.68 245.266 33.9013 244.797 32.8987C244.327 31.8747 244.093 30.6587 244.093 29.2507V18.8507H248.029V28.4187C248.029 29.3147 248.167 30.0827 248.445 30.7227C248.722 31.3413 249.127 31.8213 249.661 32.1627C250.194 32.504 250.834 32.6747 251.581 32.6747C252.135 32.6747 252.637 32.5893 253.085 32.4187C253.554 32.2267 253.959 31.9707 254.301 31.6507C254.642 31.3093 254.909 30.9147 255.101 30.4667C255.293 29.9973 255.389 29.496 255.389 28.9627V18.8507H259.325V35.7147H255.485L255.421 32.1947L256.125 31.8107C255.869 32.6213 255.431 33.3467 254.813 33.9867C254.215 34.6053 253.501 35.1067 252.669 35.4907C251.837 35.8533 250.951 36.0347 250.013 36.0347Z" fill="#FCFEFA"/>
<path d="M265.762 35.7147V14.5627H269.698V35.7147H265.762ZM262.434 22.4987V18.8507H273.378V22.4987H262.434Z" fill="#FCFEFA"/>
<path d="M283.003 36.0347C281.51 36.0347 280.166 35.6613 278.971 34.9147C277.798 34.1467 276.859 33.112 276.155 31.8107C275.473 30.488 275.131 28.9733 275.131 27.2667C275.131 25.5813 275.473 24.0773 276.155 22.7547C276.838 21.432 277.766 20.3973 278.939 19.6507C280.134 18.8827 281.478 18.4987 282.971 18.4987C283.782 18.4987 284.561 18.6267 285.307 18.8827C286.075 19.1387 286.758 19.4907 287.355 19.9387C287.952 20.3653 288.422 20.8453 288.763 21.3787C289.126 21.912 289.329 22.4667 289.371 23.0427L288.315 23.1707V12.0347H292.251V35.7147H288.443L288.347 31.7467L289.115 31.8107C289.094 32.344 288.902 32.856 288.539 33.3467C288.198 33.8373 287.75 34.2853 287.195 34.6907C286.641 35.096 285.99 35.4267 285.243 35.6827C284.518 35.9173 283.771 36.0347 283.003 36.0347ZM283.771 32.7067C284.689 32.7067 285.499 32.472 286.203 32.0027C286.907 31.5333 287.451 30.8933 287.835 30.0827C288.24 29.272 288.443 28.3333 288.443 27.2667C288.443 26.2213 288.24 25.2933 287.835 24.4827C287.451 23.6507 286.907 23.0107 286.203 22.5627C285.499 22.0933 284.689 21.8587 283.771 21.8587C282.854 21.8587 282.043 22.0933 281.339 22.5627C280.635 23.0107 280.08 23.6507 279.675 24.4827C279.291 25.2933 279.099 26.2213 279.099 27.2667C279.099 28.3333 279.291 29.272 279.675 30.0827C280.08 30.8933 280.635 31.5333 281.339 32.0027C282.043 32.472 282.854 32.7067 283.771 32.7067Z" fill="#FCFEFA"/>
<path d="M304.431 36.0347C302.746 36.0347 301.242 35.6613 299.919 34.9147C298.596 34.1467 297.551 33.1013 296.783 31.7787C296.015 30.456 295.631 28.952 295.631 27.2667C295.631 25.5813 296.015 24.0773 296.783 22.7547C297.551 21.432 298.596 20.3973 299.919 19.6507C301.242 18.8827 302.746 18.4987 304.431 18.4987C306.095 18.4987 307.589 18.8827 308.911 19.6507C310.234 20.3973 311.268 21.432 312.015 22.7547C312.783 24.0773 313.167 25.5813 313.167 27.2667C313.167 28.952 312.783 30.456 312.015 31.7787C311.268 33.1013 310.234 34.1467 308.911 34.9147C307.589 35.6613 306.095 36.0347 304.431 36.0347ZM304.431 32.5467C305.348 32.5467 306.159 32.312 306.863 31.8427C307.589 31.3733 308.154 30.744 308.559 29.9547C308.986 29.1653 309.188 28.2693 309.167 27.2667C309.188 26.2427 308.986 25.336 308.559 24.5467C308.154 23.7573 307.589 23.1387 306.863 22.6907C306.159 22.2213 305.348 21.9867 304.431 21.9867C303.514 21.9867 302.682 22.2213 301.935 22.6907C301.21 23.1387 300.645 23.768 300.239 24.5787C299.834 25.368 299.631 26.264 299.631 27.2667C299.631 28.2693 299.834 29.1653 300.239 29.9547C300.645 30.744 301.21 31.3733 301.935 31.8427C302.682 32.312 303.514 32.5467 304.431 32.5467Z" fill="#FCFEFA"/>
<path d="M324.4 36.0347C322.715 36.0347 321.211 35.6613 319.888 34.9147C318.565 34.1467 317.52 33.1013 316.752 31.7787C315.984 30.456 315.6 28.952 315.6 27.2667C315.6 25.5813 315.984 24.0773 316.752 22.7547C317.52 21.432 318.565 20.3973 319.888 19.6507C321.211 18.8827 322.715 18.4987 324.4 18.4987C326.064 18.4987 327.557 18.8827 328.88 19.6507C330.203 20.3973 331.237 21.432 331.984 22.7547C332.752 24.0773 333.136 25.5813 333.136 27.2667C333.136 28.952 332.752 30.456 331.984 31.7787C331.237 33.1013 330.203 34.1467 328.88 34.9147C327.557 35.6613 326.064 36.0347 324.4 36.0347ZM324.4 32.5467C325.317 32.5467 326.128 32.312 326.832 31.8427C327.557 31.3733 328.123 30.744 328.528 29.9547C328.955 29.1653 329.157 28.2693 329.136 27.2667C329.157 26.2427 328.955 25.336 328.528 24.5467C328.123 23.7573 327.557 23.1387 326.832 22.6907C326.128 22.2213 325.317 21.9867 324.4 21.9867C323.483 21.9867 322.651 22.2213 321.904 22.6907C321.179 23.1387 320.613 23.768 320.208 24.5787C319.803 25.368 319.6 26.264 319.6 27.2667C319.6 28.2693 319.803 29.1653 320.208 29.9547C320.613 30.744 321.179 31.3733 321.904 31.8427C322.651 32.312 323.483 32.5467 324.4 32.5467Z" fill="#FCFEFA"/>
<path d="M336.657 35.7147V18.8507H340.529L340.593 24.2267L340.049 23.0107C340.283 22.1573 340.689 21.3893 341.265 20.7067C341.841 20.024 342.502 19.4907 343.249 19.1067C344.017 18.7013 344.817 18.4987 345.649 18.4987C346.011 18.4987 346.353 18.5307 346.673 18.5947C347.014 18.6587 347.291 18.7333 347.505 18.8187L346.449 23.1387C346.214 23.0107 345.926 22.904 345.585 22.8187C345.243 22.7333 344.902 22.6907 344.561 22.6907C344.027 22.6907 343.515 22.7973 343.025 23.0107C342.555 23.2027 342.139 23.48 341.777 23.8427C341.414 24.2053 341.126 24.632 340.913 25.1227C340.721 25.592 340.625 26.1253 340.625 26.7227V35.7147H336.657Z" fill="#FCFEFA"/>
<path d="M355.757 36.0347C354.264 36.0347 352.92 35.7893 351.725 35.2987C350.552 34.7867 349.592 34.0613 348.845 33.1227L351.405 30.9147C352.045 31.64 352.76 32.1627 353.549 32.4827C354.339 32.8027 355.171 32.9627 356.045 32.9627C356.408 32.9627 356.728 32.92 357.005 32.8347C357.304 32.7493 357.56 32.6213 357.773 32.4507C357.987 32.28 358.147 32.088 358.253 31.8747C358.381 31.64 358.445 31.384 358.445 31.1067C358.445 30.5947 358.253 30.1893 357.869 29.8907C357.656 29.7413 357.315 29.5813 356.845 29.4107C356.397 29.24 355.811 29.0693 355.085 28.8987C353.933 28.6 352.973 28.2587 352.205 27.8747C351.437 27.4693 350.84 27.0213 350.413 26.5307C350.051 26.1253 349.773 25.6667 349.581 25.1547C349.411 24.6427 349.325 24.088 349.325 23.4907C349.325 22.744 349.485 22.072 349.805 21.4747C350.147 20.856 350.605 20.3227 351.181 19.8747C351.757 19.4267 352.429 19.0853 353.197 18.8507C353.965 18.616 354.765 18.4987 355.597 18.4987C356.451 18.4987 357.272 18.6053 358.061 18.8187C358.872 19.032 359.619 19.3413 360.301 19.7467C361.005 20.1307 361.603 20.6 362.093 21.1547L359.917 23.5547C359.512 23.1707 359.064 22.8293 358.573 22.5307C358.104 22.232 357.624 21.9973 357.133 21.8267C356.643 21.6347 356.184 21.5387 355.757 21.5387C355.352 21.5387 354.989 21.5813 354.669 21.6667C354.349 21.7307 354.083 21.8373 353.869 21.9867C353.656 22.136 353.485 22.328 353.357 22.5627C353.251 22.776 353.197 23.032 353.197 23.3307C353.219 23.5867 353.283 23.832 353.389 24.0667C353.517 24.28 353.688 24.4613 353.901 24.6107C354.136 24.76 354.488 24.9307 354.957 25.1227C355.427 25.3147 356.035 25.496 356.781 25.6667C357.827 25.944 358.701 26.2533 359.405 26.5947C360.109 26.936 360.664 27.3307 361.069 27.7787C361.475 28.1627 361.763 28.6107 361.933 29.1227C362.104 29.6347 362.189 30.2 362.189 30.8187C362.189 31.8213 361.901 32.7173 361.325 33.5067C360.771 34.296 360.003 34.9147 359.021 35.3627C358.061 35.8107 356.973 36.0347 355.757 36.0347Z" fill="#FCFEFA"/>
</svg>
