<svg width="225" height="226" viewBox="0 0 225 226" fill="none" xmlns="http://www.w3.org/2000/svg">
<path fill-rule="evenodd" clip-rule="evenodd" d="M111.088 0C84.067 27.4597 68.9971 68.2497 68.1254 109.725C67.2528 151.241 80.6037 193.559 110.583 223.988C49.3799 223.229 0 173.379 0 111.996C0 50.4448 49.6519 0.490069 111.088 0ZM112 223.996C112 223.996 112 223.996 112 223.996V223.996Z" fill="#FC7575"/>
<path fill-rule="evenodd" clip-rule="evenodd" d="M15.4562 169.788C52.7474 179.459 95.6075 172.115 131.962 152.132C168.352 132.13 198.325 99.409 209.688 58.2321C239.632 111.615 221.151 179.304 167.992 209.995C114.687 240.771 46.5986 222.748 15.4562 169.788ZM208.987 57C208.986 56.9999 208.987 57.0001 208.987 57V57Z" fill="#FF9696"/>
<path fill-rule="evenodd" clip-rule="evenodd" d="M220.6 140.277C201.07 107.07 165.57 81.9563 125.733 70.3796C85.858 58.7918 41.5263 60.735 4.37541 81.8169C20.949 22.8961 81.8803 -11.8993 141.172 3.98776C200.626 19.9185 236.027 80.8078 220.6 140.277ZM3.99999 83.184C3.99997 83.1841 4.00002 83.1839 3.99999 83.184V83.184Z" fill="#5596D1"/>
</svg>
